<svg id="Layer_1" data-name="Layer 1" xmlns="http://www.w3.org/2000/svg" width="1000" height="1000" viewBox="0 0 1000 1000"><defs><style>.cls-1{fill:#a8542a;}.cls-2{fill:#fff;}.cls-3{fill:#fc7f3a;}.cls-4{fill:#ffc41f;}.cls-5{fill:#458dc9;}.cls-6{fill:#5db2ed;}</style></defs><path d="M387.5437,792.4058a7.1754,7.1754,0,0,0-.627-4.5486c-1.7232-3.6014-5.9123-5.0323-9.5771-5.6266l.5667.7444c.3641-2.7567.1577-6.3685-2.9361-7.43a6.6853,6.6853,0,0,0-4.1915.0961l.5948,1.4109a15.4218,15.4218,0,0,0,4.9031-5.1638c1.51-2.58,2.7988-7.01.7193-9.6319-1.6228-2.0458-4.6183-2.5273-7.056-2.747a44.8733,44.8733,0,0,0-9.2718.3051c-1.9088.2262-3.8217.4993-5.7048.89l.5949,1.4109a52.3541,52.3541,0,0,0,6.0423-4.8875c2.55-2.3821,5.8385-5.6271,6.0978-9.3351.25-3.5832-3.05-5.1775-6.1437-5.27-4.0675-.1214-8.211,1.2-11.9969,2.5514a77.7771,77.7771,0,0,0-7.9582,3.3071l1.0561,1.0562c2.8642-4.645,5.4876-9.458,7.9384-14.3315a125.1091,125.1091,0,0,0,5.473-12.2817,37.5618,37.5618,0,0,0,2.7607-11.1639c.1206-2.5163-.3841-5.4558-2.82-6.7525-2.657-1.4144-5.7952-.4107-8.1322,1.1562-3.36,2.2527-5.9607,5.5718-8.2563,8.8509a106.1383,106.1383,0,0,0-7.4045,12.5846c-1.9848,3.879-3.8181,7.8355-5.5371,11.8389q-.9086,2.1159-1.7737,4.25a17.53,17.53,0,0,0-.9566,2.42,2.672,2.672,0,0,1-.119.3124l1.5163.2052a88.351,88.351,0,0,0-4.24-24.1348c-1.6075-4.6911-3.7726-9.7391-7.4237-13.231-1.9572-1.8718-4.9561-3.4724-7.4539-1.5967-3.0742,2.3085-3.3141,7.36-3.3313,10.822-.0477,9.6083,2.6355,19.2734,5.5353,28.3457l1.29-.751a57.2664,57.2664,0,0,0-8.2717-8.4181c-4.7058-3.9464-10.756-7.9349-17.18-7.5272-6.0217.3821-12.191,5.5047-12.2886,11.8175-.0909,5.8865,4.5288,11.0126,8.6065,14.7205a61.8538,61.8538,0,0,0,10.7574,7.8964l.39-1.4385c-2.6552.1248-5.3108.3573-7.95.6673-2.0831.2446-4.1677.535-6.2189.9783a14.2722,14.2722,0,0,0-4.5982,1.569c-1.1017.6961-1.7881,1.8973-.94,3.0932.57.8039,1.9095.0336,1.3331-.7792-.268-.378-.2772-.4338.0784-.7584a5.3872,5.3872,0,0,1,1.9084-.9363,36.4232,36.4232,0,0,1,6.5974-1.3875c3.2417-.4548,6.52-.7489,9.79-.9025a.7783.7783,0,0,0,.39-1.4385,60.8871,60.8871,0,0,1-8.2566-5.7683c-4.1292-3.3837-8.7481-7.7083-10.06-13.0928-1.4549-5.9728,3.6457-11.62,9.3882-12.5763,5.9909-.9978,11.9571,2.7408,16.406,6.3329a56.9733,56.9733,0,0,1,9.0276,9.04c.4843.6176,1.5132-.0534,1.29-.7511-2.5787-8.0677-4.8651-16.4505-5.39-24.9421a31.5885,31.5885,0,0,1,.2766-7.5792,9.6589,9.6589,0,0,1,1.6624-4.3364c1.5958-1.9871,3.8942-1.1666,5.6675.3751,3.3813,2.94,5.4342,7.4158,6.9666,11.5276a84.3416,84.3416,0,0,1,4.6978,25.16.7759.7759,0,0,0,1.5163.2052c1.8592-4.9467,4.014-9.7991,6.3018-14.56a138.1206,138.1206,0,0,1,6.6088-12.3,52.0011,52.0011,0,0,1,7.7442-10.2443c2.0014-1.9522,4.761-4.1707,7.7572-3.8223,2.51.2918,3.4791,2.3708,3.5647,4.68.1286,3.4678-.9769,6.9842-2.0991,10.2217a106.6609,106.6609,0,0,1-5.0509,11.84c-2.652,5.4276-5.6879,10.6076-8.664,15.8548-.05.0873-.1046.1718-.1573.2573-.4311.6991.4,1.3764,1.0562,1.0561,5.1489-2.5121,10.8837-4.8019,16.5927-5.51,2.3766-.2948,6.6685-.47,7.1647,2.7294.5028,3.2426-3.0117,6.5836-5.0873,8.59a49.1376,49.1376,0,0,1-6.27,5.1588.7758.7758,0,0,0,.5949,1.4109,57.9368,57.9368,0,0,1,11.8822-1.2557c2.447.0084,5.3217.0921,7.4842,1.3884,2.6362,1.58,1.8259,5.43.7374,7.77a13.6384,13.6384,0,0,1-4.8833,5.6228c-.7086.4473-.2657,1.71.5948,1.4109a5.5019,5.5019,0,0,1,2.9455-.22c2.6764.6152,2.509,3.9369,2.2278,6.0654a.7675.7675,0,0,0,.5667.7444c3.2434.5259,7.1526,1.6615,8.6545,4.917a5.9418,5.9418,0,0,1,.54,2.3694,4.4779,4.4779,0,0,1-.0683.99c-.2213.9672,1.2668,1.38,1.4887.41Z"/><path d="M333.1868,779.61c-1.1207-3.642-3.043-8.2172-6.42-10.283a4.7186,4.7186,0,0,0-6.2273.978c-1.5321,2.0326-1.0987,4.9584-.5154,7.2512a27.59,27.59,0,0,0,2.1709,5.7281l.8718-1.134a15.3107,15.3107,0,0,0-5.5172-1.0915c-1.96-.017-5.3484.5091-5.9769,2.7861-.7827,2.8356,3.4068,5.4118,5.4247,6.5595v-1.3331c-2.6888,1.7571-4.3014,4.9892-2.33,7.8993.5542.8181,1.8924.0464,1.3331-.7792-1.48-2.1852-.23-4.4762,1.776-5.787a.7806.7806,0,0,0,0-1.3331,19.35,19.35,0,0,1-2.2785-1.5251c-.8056-.6247-2.6519-1.9664-2.4615-3.1806.1292-.8249,1.37-1.2378,2.0241-1.44a9.0408,9.0408,0,0,1,3.479-.2735,14.6311,14.6311,0,0,1,4.1166.9865c.6754.274,1.1464-.5981.8718-1.134a26.39,26.39,0,0,1-1.5021-3.6335c-.6778-2.0177-1.4139-4.5121-.7594-6.6261a3.1022,3.1022,0,0,1,4.721-1.5853c1.8662,1.1431,3.072,3.2923,4.02,5.1967a27.6671,27.6671,0,0,1,1.69,4.1636c.2913.9468,1.782.543,1.4887-.41Z"/><path d="M758.9259,435.02l4.585,25.1823a18.7175,18.7175,0,0,1-6.2924,17.6147L744.86,488.3221l-39.9094-35.0514"/><path d="M757.4371,435.4309l3.9018,21.43c.7187,3.9471,1.3961,7.69.1919,11.6794a17.5582,17.5582,0,0,1-5.4381,8.2149c-1.0129.874-2.039,1.7332-3.0584,2.6l-9.2659,7.876h2.1833l-13.492-11.85-21.4956-18.879-4.9217-4.3226c-1.4877-1.3066-3.68.8689-2.1834,2.1833l13.492,11.85,21.4956,18.879,4.9218,4.3227a1.5923,1.5923,0,0,0,2.1833,0l8.225-6.9913c3.56-3.0257,7.2035-5.8381,9.2312-10.2089a20.422,20.422,0,0,0,1.7712-11.237c-.1383-1.0612-.3485-2.1126-.54-3.1652l-2.354-12.9285-1.87-10.2729c-.3555-1.952-3.3318-1.1251-2.9775.8209Z"/><path class="cls-1" d="M817.2986,690.89l61.215,33.3425-45.492,84.1663s-24.6216-11.4577-10.256-44.1654a12.8148,12.8148,0,0,0-5.7139-16.5109c-7.4938-3.9545-14.7625-7.747-14.7625-7.747"/><path d="M816.5194,692.2233l20.7931,11.3255,32.8641,17.9,7.5578,4.1166-.5539-2.1124-4.5055,8.3359-10.8837,20.1362L848.6758,776.191l-11.3913,21.0754-3.7375,6.9149a26.6429,26.6429,0,0,0-1.7789,3.2912,1.1981,1.1981,0,0,1-.08.1472l2.1123-.5538a14.1473,14.1473,0,0,1-1.312-.724c-.4726-.2856-.9348-.5884-1.3877-.9044-.26-.1817-.5167-.369-.7715-.5585-.2023-.15-.3244-.2445-.7316-.5805a26.8991,26.8991,0,0,1-7.4422-9.6165,30.0215,30.0215,0,0,1-1.7917-17.6682,65.0312,65.0312,0,0,1,4.0279-12.6951,14.4955,14.4955,0,0,0-.3285-11.3267c-2.2367-4.919-6.8677-6.9415-11.3932-9.32q-4.7976-2.5212-9.6018-5.03c-1.76-.9183-3.3227,1.7455-1.5585,2.6661q4,2.0871,7.9935,4.1851c2.3586,1.2381,4.7609,2.4189,7.0791,3.7311a11.1948,11.1948,0,0,1,4.0418,3.8646c2.1592,3.5113,2.0414,7.463.4654,11.1584a54.7552,54.7552,0,0,0-3.76,12.2736,33.617,33.617,0,0,0,1.6517,18.5457,29.48,29.48,0,0,0,7.6624,10.7555,24.2606,24.2606,0,0,0,5.5987,3.9093,1.5753,1.5753,0,0,0,2.1123-.5538l4.5055-8.3359,10.8837-20.1362,13.1155-24.2655,11.3913-21.0754c1.8354-3.3957,3.79-6.7529,5.5164-10.2061.0249-.05.0531-.0982.08-.1472a1.5676,1.5676,0,0,0-.5539-2.1123L858.5,711.574l-32.8642-17.9-7.5577-4.1165c-1.7456-.9508-3.3059,1.7143-1.5584,2.6662Z"/><path class="cls-2" d="M822.2607,754.988a13.2041,13.2041,0,0,1,.145,10.9744c-14.7444,33.57,10.5263,45.33,10.5263,45.33l28.4367-66.15-4.2376-.5867a43.82,43.82,0,0,0-34.87,10.4331Z"/><path d="M820.9276,755.7672a11.9062,11.9062,0,0,1,1.0166,5.8994,19.3447,19.3447,0,0,1-1.776,5.6558,55.3318,55.3318,0,0,0-3.0576,9.9412,37.3128,37.3128,0,0,0-.0082,15.821,30.385,30.385,0,0,0,11.4584,17.2741,20.7581,20.7581,0,0,0,3.592,2.2665,1.5634,1.5634,0,0,0,2.1123-.5538l9.6142-22.3649,15.3166-35.63,3.5059-8.1555c.34-.79.1758-2.1159-.9227-2.2679-2.0929-.29-4.1875-.627-6.29-.8377a45.3648,45.3648,0,0,0-34.32,11.0811c-1.4981,1.3113.6931,3.4878,2.1833,2.1834a42.522,42.522,0,0,1,20.545-9.7794c5.7417-1.0162,11.3493-.4607,17.0609.33l-.9226-2.2679-9.6142,22.3648-15.3166,35.63-3.5058,8.1554,2.1123-.5538a19.0777,19.0777,0,0,1-2.8189-1.705c-.21-.1471-.4174-.2978-.6237-.45-.3881-.2863-.1761-.1235-.5068-.3895-.5053-.4065-1-.8254-1.4793-1.2623a29.3147,29.3147,0,0,1-3.11-3.3039c-5.5566-6.9191-6.8133-16.1553-5.0847-24.7639a56.0158,56.0158,0,0,1,3.4778-10.9458,15.47,15.47,0,0,0,.0279-12.93C822.7745,752.4016,820.1126,753.97,820.9276,755.7672Z"/><path class="cls-2" d="M839.8209,816.8169c4.8881,2.5868,7.3255-2.3073,9.971-7.164s-2.0345-7.4059.611-12.2625,7.3251-2.3067,9.97-7.1627-2.035-7.405.61-12.2608,7.3251-2.3065,9.97-7.1623-2.035-7.405.61-12.2607,7.3247-2.3059,9.9694-7.161-2.0354-7.4043.6092-12.2593a6.6212,6.6212,0,0,1,4.0846-3.2878,3.775,3.775,0,0,0,.609-6.8528L873.5582,721.48l-45.996,86.0058A56.9731,56.9731,0,0,0,839.8209,816.8169Z"/><path d="M839.0417,818.15a6.2577,6.2577,0,0,0,7.2463-.6276c2.0873-1.7507,3.3836-4.3854,4.6483-6.7434a9.4508,9.4508,0,0,0,.687-7.5323c-.6329-2.3383-.7934-4.6456,1.1505-6.4672,1.6633-1.5586,4.2421-1.581,6.139-2.7723a8.4142,8.4142,0,0,0,3.8421-6.6926c.0776-2.2583-1.2421-4.3507-1.0571-6.5845.2215-2.674,2.2232-4.0721,4.5468-4.8134,2.3971-.7647,4.4763-1.7646,5.8446-3.9906,1.477-2.4028,1.405-4.9042.6949-7.5268-.633-2.3379-.8009-4.6382,1.15-6.466,1.662-1.5572,4.242-1.5806,6.1385-2.7714a8.41,8.41,0,0,0,3.8416-6.6917c.0789-2.2976-1.3088-4.458-1.0487-6.7338a5.4015,5.4015,0,0,1,1.7456-3.3149c.9441-.8269,2.1457-.9887,3.1861-1.6282a5.3831,5.3831,0,0,0,2.2931-6.0108,6.0288,6.0288,0,0,0-3.196-3.54l-4.4145-2.4946-8.1423-4.601a1.5643,1.5643,0,0,0-2.1123.5539l-4.5819,8.5676-11.0007,20.57-13.2451,24.7663-11.503,21.509c-1.86,3.4769-3.8347,6.9159-5.5877,10.4483-.0244.049-.0517.0966-.0776.1449a1.5885,1.5885,0,0,0,.2415,1.8709,52.5588,52.5588,0,0,0,12.5711,9.5722c1.75.94,3.3114-1.7243,1.5584-2.6662a49.752,49.752,0,0,1-11.9462-9.0894l.2414,1.8709,4.582-8.5676,11.0007-20.57,13.245-24.7663,11.5031-21.509,3.7779-7.0643a27.64,27.64,0,0,0,1.81-3.3839,1.1762,1.1762,0,0,1,.0775-.145l-2.1123.5539c4.4057,2.49,8.9425,4.8265,13.2472,7.4857a2.2726,2.2726,0,0,1,.3474,3.7411,23.9389,23.9389,0,0,1-2.595,1.1979,8.0613,8.0613,0,0,0-2.97,3.1062,8.9762,8.9762,0,0,0-.5712,6.9128c.6272,2.36.9915,4.52-.8476,6.5069-1.44,1.5553-3.7715,1.7163-5.6061,2.59a8.3044,8.3044,0,0,0-4.4458,5.7779c-.4545,2.2845.4006,4.2545.8056,6.4543a5.251,5.251,0,0,1-2.97,5.7433c-1.9719.9-4.0752,1.1544-5.77,2.6329a8.31,8.31,0,0,0-2.7719,6.7914c.1853,2.0671,1.3593,4.1325.9544,6.2239-.4992,2.5779-2.4724,3.6609-4.7428,4.3852-2.72.8678-4.9114,2.2344-6.11,4.9434-1.1589,2.6185-.5063,4.9433.1268,7.5773.6956,2.8941-1,5.3042-2.4848,7.6791-1.3538,2.1653-3.0611,4.2757-5.7751,2.9215C838.8272,814.5993,837.2615,817.2618,839.0417,818.15Z"/><path class="cls-2" d="M857.64,746.5363l4.6851-40.2795a5.5138,5.5138,0,0,0-6.5768-5.79h0a4.6577,4.6577,0,0,0-5.1646,4.0883l-4.6851,40.2794Z"/><path d="M859.1835,746.5363l1.9838-17.0554,2.5585-21.9958c.358-3.0775-.5216-6.175-3.4564-7.7769a8.4607,8.4607,0,0,0-4.5214-.7852,6.7821,6.7821,0,0,0-4.0773,1.0889,6.533,6.533,0,0,0-2.664,4.826c-.7875,6.533-1.5206,13.0731-2.2809,19.6094l-1.4825,12.7458c-.2814,2.4191-.6766,4.8548-.8474,7.2848-.0083.119-.0277.2381-.0415.3567a1.5356,1.5356,0,0,0,1.1335,1.4887l11.7413,1.7017a1.5979,1.5979,0,0,0,1.8992-1.0783,1.5536,1.5536,0,0,0-1.0783-1.8991l-11.7414-1.7017,1.1335,1.4887,1.842-15.8362,2.5816-22.1946c.0813-.6993.1335-1.41.2448-2.1049a3.2588,3.2588,0,0,1,.5537-1.4015c.827-1.1623,1.9639-1.2551,3.2684-1.31a4.5419,4.5419,0,0,1,3.4751.866,4.1528,4.1528,0,0,1,1.3764,2.5108,7.4651,7.4651,0,0,1-.1106,1.8162l-2.3648,20.33-1.3814,11.8763c-.2632,2.2633-.6405,4.5449-.7931,6.8189-.0074.11-.0257.2209-.0385.3308C855.8666,748.5064,858.9563,748.49,859.1835,746.5363Z"/><circle cx="852.1584" cy="744.4573" r="9.042"/><path d="M849.544,754.7153a10.7521,10.7521,0,0,0,11.3762-4.321,10.5842,10.5842,0,1,0-11.3762,4.321,1.5452,1.5452,0,0,0,.8209-2.9774,7.4969,7.4969,0,1,1,8.6067-4.1338,7.6011,7.6011,0,0,1-8.6067,4.1338C848.4327,751.28,847.6082,754.2565,849.544,754.7153Z"/><path class="cls-1" d="M666.6755,734.4783l-6.85,69.3692-95.2407-9.0939s.9562-27.14,36.6764-26.6572A12.8146,12.8146,0,0,0,614.24,756.4c.7214-8.4425,1.3813-16.6144,1.3813-16.6144"/><path d="M665.1317,734.4783l-2.3266,23.5629-3.6773,37.2418-.8457,8.5645,1.5439-1.5439-9.4327-.9007-22.7856-2.1756-27.4584-2.6218-23.8484-2.2771-7.8247-.7472a29.7239,29.7239,0,0,0-3.7243-.3556,1.324,1.324,0,0,1-.1666-.0159l1.5439,1.5439a2.7931,2.7931,0,0,1,.026-.3841c.0233-.13.027-.271.0395-.4029.0084-.0887.0216-.1769.031-.2655.0392-.3661-.06.3854-.0006.0028a29.1534,29.1534,0,0,1,.7949-3.6486,26.1921,26.1921,0,0,1,5.4679-10.0968,29.5243,29.5243,0,0,1,14.6266-8.7235,49.3142,49.3142,0,0,1,12.1983-1.5935,22.0965,22.0965,0,0,0,6.3653-.6328,14.7054,14.7054,0,0,0,5.4734-3.12,14.35,14.35,0,0,0,3.7877-5.6177c.9865-2.621.986-5.5139,1.2179-8.272q.5133-6.1061,1.0084-12.2136c.16-1.9808-2.9286-1.97-3.0877,0q-.3995,4.9437-.8135,9.8864c-.39,4.6742-.1348,9.7311-3.5977,13.3559a11.3482,11.3482,0,0,1-4.9685,3.0508c-2.1341.6334-4.3244.43-6.5208.5025a51.5724,51.5724,0,0,0-12.1658,1.7544c-10.1476,2.836-18.4263,9.9027-21.7033,20.032a24.0406,24.0406,0,0,0-1.2668,6.3863,1.5786,1.5786,0,0,0,1.5439,1.5439l9.4327.9006,22.7856,2.1757,27.4584,2.6218,23.8484,2.2771,7.8247.7471c1.2285.1173,2.4894.3314,3.7243.3556.0552.0011.1115.0107.1666.0159.8875.0848,1.4684-.78,1.5439-1.5438l2.3266-23.5629,3.6772-37.2418.8457-8.5645c.1951-1.976-2.894-1.9625-3.0877,0Z"/><path class="cls-2" d="M609.58,764.0282a13.2037,13.2037,0,0,1-10.05,4.4105c-36.6619-.4957-37.6433,27.36-37.6433,27.36l72.0026.408-1.1113-4.1311A43.82,43.82,0,0,0,609.58,764.0282Z"/><path d="M608.4878,762.9365a12.04,12.04,0,0,1-4.4726,3.1512,15.7549,15.7549,0,0,1-5.8582.8021,59.0712,59.0712,0,0,0-10.5248.966,36.9814,36.9814,0,0,0-14.8752,6.079,30.414,30.414,0,0,0-11.6965,17.36,22.61,22.61,0,0,0-.7184,4.5041,1.5635,1.5635,0,0,0,1.5439,1.5438l24.3434.138,38.7822.22,8.877.05a1.56,1.56,0,0,0,1.4887-1.9543,66.0772,66.0772,0,0,0-4.4649-12.8664,45.03,45.03,0,0,0-11.75-14.5927,45.5184,45.5184,0,0,0-8.8033-5.6421c-1.78-.8633-3.3479,1.7985-1.5584,2.6662A42.282,42.282,0,0,1,630.7035,790.5c.6449,2.0135,1.1473,4.0758,1.6963,6.117l1.4888-1.9543-24.3434-.138-38.7823-.22-8.8769-.05,1.5438,1.5439c.0112-.3041.049-.6063.0787-.9089.0373-.3808.0247-.1982.0112-.1083.029-.1929.0566-.3858.0883-.5782q.1154-.7011.2688-1.3952a26.9875,26.9875,0,0,1,2.7561-7.4174c4.34-7.9512,12.2855-12.6127,21.0487-14.4067a56.565,56.565,0,0,1,11.65-1.0036,15.1106,15.1106,0,0,0,11.34-4.8605C612.0131,763.6582,609.8352,761.4689,608.4878,762.9365Z"/><path class="cls-3" d="M639.6457,450.0877,608.9706,737.91l84.9836,7.66S717.56,540.2775,718.258,508.54s-15.2046-79.7573-15.2046-79.7573"/><path d="M638.1019,450.0877l-.8219,7.7111-2.2363,20.9835L631.75,509.683l-4.0322,37.8342-4.4,41.2869L618.86,630.6379l-4.1572,39.006-3.512,32.9535-2.5162,23.6088c-.3977,3.7316-.945,7.4812-1.1964,11.2264-.0107.1594-.034.3188-.0509.4777-.094.8815.7869,1.4756,1.5438,1.5438l28.7107,2.5878,45.7647,4.125,10.5082.9471c.8973.0809,1.4559-.7781,1.5439-1.5439q.484-4.2093.9628-8.4192,1.2844-11.2672,2.5542-22.5361,1.8442-16.36,3.6613-32.723,2.1392-19.2673,4.2349-38.5393,2.1936-20.1924,4.3205-40.392,2.0034-19.076,3.9051-38.1624c1.05-10.6116,2.07-21.2267,2.9884-31.8505.6192-7.1629,1.2417-14.3355,1.5733-21.5188.6714-14.5433-1.6755-29.1584-4.6362-43.353a389.1068,389.1068,0,0,0-9.881-37.7135c-.21-.6643-.4205-1.3285-.6393-1.99-.6212-1.8776-3.6041-1.0732-2.9774.8208,2.9978,9.061,5.5008,18.3117,7.767,27.5787,4.0849,16.7044,7.6954,34.0916,7.39,51.3706-.1106,6.265-.6689,12.5324-1.1773,18.7743-.8061,9.8972-1.7344,19.7844-2.6914,29.668q-1.7941,18.53-3.7344,37.0445-2.09,20.1219-4.2679,40.2346-2.1232,19.6742-4.3,39.3425-1.8927,17.1216-3.8167,34.24-1.4248,12.68-2.8661,25.3578c-.4606,4.05-1.1848,8.1625-1.3968,12.2357-.0092.1766-.0407.3546-.0609.5305l1.5438-1.5438-28.7107-2.5878-45.7647-4.125-10.5082-.9471,1.5439,1.5439.8218-7.7112,2.2364-20.9835,3.2933-30.9006,4.0322-37.8343,4.4-41.2868,4.4585-41.8338,4.1571-39.0061,3.5121-32.9534,2.5161-23.6089c.3977-3.7316.945-7.4812,1.1965-11.2264.0107-.1593.034-.3187.0509-.4776.21-1.9735-2.879-1.9587-3.0877,0Z"/><path class="cls-3" d="M668.1813,453.8424l4.9655,169.9837A111.1863,111.1863,0,0,0,728.5175,699.65l77.1572,42.5694,37.7326-66.3s-63.6957-40.7935-92.3206-54.5182l4.4761-110.5577a114.51,114.51,0,0,0-2.0974-26.9256l-7.6793-38.689L662.8845,422.05"/><path d="M666.6374,453.8424l.3977,13.6157.9848,33.71,1.2544,42.9414,1.2214,41.811.8714,29.8316.2064,7.0645c.01.3334,0,.6746.0294,1.0071a46.2917,46.2917,0,0,0,1.69,7.4765q1.0489,3.9456,2.3871,7.8068a113.4069,113.4069,0,0,0,37.8172,52.5286c8.1634,6.2878,17.2579,11.0112,26.2443,15.9692l36.1533,19.9467,27.5179,15.1822,1.4827.818a1.5693,1.5693,0,0,0,2.1123-.5538l12.798-22.4875,20.2333-35.5519,4.7013-8.2606a1.5761,1.5761,0,0,0-.5539-2.1123q-11.5485-7.3954-23.22-14.5978c-15.2542-9.4609-30.5978-18.7955-46.2-27.6733-7.52-4.2791-15.0979-8.4985-22.9-12.2472l.7647,1.3331.8686-21.4542,1.794-44.3123,1.5272-37.7205q.1419-3.5055.2838-7.011a122.7517,122.7517,0,0,0-2.4245-28.7781l-7.201-36.2792-.2039-1.0275a1.5294,1.5294,0,0,0-1.0783-1.0783l-28.1217-7.8626L673.5922,423.44l-10.2972-2.879a1.5452,1.5452,0,0,0-.8209,2.9774l28.1217,7.8627,44.4826,12.437,10.2972,2.8791-1.0783-1.0783,6.7994,34.2558a135.8019,135.8019,0,0,1,3.0124,25.4095c.0276,3.3922-.14,6.78-.2776,10.1678L752.42,550.3431,750.6012,595.26c-.3466,8.5609-1.0268,17.1821-1.0426,25.7516,0,.13-.01.26-.0157.39a1.5107,1.5107,0,0,0,.7646,1.3331c15.0108,7.2122,29.3759,15.8485,43.6525,24.3942q20.401,12.2118,40.4908,24.9358,4.0951,2.5836,8.1773,5.1882l-.5539-2.1123-12.7981,22.4875-20.2332,35.5519-4.7013,8.2606,2.1123-.5539-20.0868-11.0823-36.9836-20.4047q-10.0433-5.5412-20.0868-11.0823A110.4829,110.4829,0,0,1,684.47,651.95a108.5248,108.5248,0,0,1-6.4245-15.4795q-1.2716-3.8861-2.2551-7.8587a37.5738,37.5738,0,0,1-1.101-4.8243c-.1513-1.4127-.0843-2.8845-.1257-4.3032l-.7513-25.7165L672.65,553.9584l-1.2686-43.4273L670.3128,473.96l-.5621-19.2413-.0256-.8758c-.0579-1.9827-3.1459-1.991-3.0877,0Z"/><path class="cls-2" d="M559.4827,804.2959c-.4772,5.51,4.98,5.8471,10.4835,6.3907s6.0275-4.76,11.5311-4.2163,4.9791,5.847,10.482,6.3905,6.0264-4.76,11.529-4.2164,4.9789,5.8469,10.4816,6.39,6.0264-4.76,11.529-4.2165,4.9782,5.8469,10.48,6.39,6.0256-4.76,11.5274-4.2166a6.6212,6.6212,0,0,1,4.62,2.48,3.775,3.775,0,0,0,6.5483-2.11l1.7351-15.1513L563.2984,789.37A56.9741,56.9741,0,0,0,559.4827,804.2959Z"/><path d="M557.9389,804.2959a6.1567,6.1567,0,0,0,3.2726,6.1612c2.4041,1.238,5.2335,1.4276,7.8778,1.6875a9.1963,9.1963,0,0,0,7.0277-1.9236c1.8929-1.4538,3.6009-2.7159,6.1248-2.058,2.182.5688,3.21,2.6382,4.7671,4.0695a8.4584,8.4584,0,0,0,7.302,2.0573c2.33-.43,3.8145-2.1151,5.73-3.3169a5.2088,5.2088,0,0,1,6.2546.4832c1.68,1.5445,2.7876,3.4869,4.964,4.4444a8.3667,8.3667,0,0,0,7.5406-.396c1.7858-1.0487,3.216-2.914,5.39-3.1591,2.6146-.2947,4.1551,1.2324,5.7214,3.0454a8.8689,8.8689,0,0,0,6.44,3.3891c2.5842.1359,4.55-1.0617,6.5035-2.5878,1.9209-1.5007,4.1878-2.3669,6.5208-1.07,1.1286.6275,1.7968,1.788,2.9118,2.4361a5.3513,5.3513,0,0,0,3.83.5663,5.4108,5.4108,0,0,0,4.1265-4.81c.1421-1.1365.2607-2.2764.391-3.4144l1.2512-10.9256.0875-.764c.1009-.8811-.7927-1.4755-1.5439-1.5439l-9.6759-.8807-23.2305-2.1145-27.97-2.5459-24.2913-2.2111-7.9781-.7262c-1.2612-.1148-2.5544-.3265-3.8217-.3478-.0543-.001-.11-.01-.1636-.0149A1.5782,1.5782,0,0,0,561.81,788.96a52.5189,52.5189,0,0,0-3.8707,15.3362c-.1849,1.9776,2.9041,1.9649,3.0877,0a49.9858,49.9858,0,0,1,3.76-14.5153l-1.4887,1.1334,9.6758.8807,23.2305,2.1145,27.97,2.5459,24.2913,2.2111,7.9781.7262a30.8276,30.8276,0,0,0,3.8217.3478,1.3312,1.3312,0,0,1,.1637.0149l-1.5439-1.5438-.9522,8.3157-.5914,5.1639a4.7515,4.7515,0,0,1-.6582,2.6615,2.2947,2.2947,0,0,1-2.439.7194c-1.03-.3311-1.7748-1.5522-2.647-2.1825a8.2891,8.2891,0,0,0-7.8953-.8548c-1.9036.811-3.2278,2.5519-5.1293,3.3311a5.3311,5.3311,0,0,1-5.8954-1.5027c-1.5113-1.6064-2.724-3.2885-4.8763-4.0988a8.3381,8.3381,0,0,0-7.2018.6492c-1.681,1.0227-3.0607,2.759-5.0991,3.073-2.4962.3846-4.1541-.9792-5.66-2.7384a9.204,9.204,0,0,0-5.5716-3.55,8.5474,8.5474,0,0,0-6.7123,1.7593c-1.7364,1.31-3.2382,2.6495-5.5776,2.36-2.258-.2795-3.3906-1.9426-4.8067-3.5a8.5079,8.5079,0,0,0-7.3062-2.8761c-2.6339.2888-4.2217,1.9889-6.3248,3.3493-2.2958,1.4849-5.375.7976-7.9151.3342a8.0633,8.0633,0,0,1-3.6324-1.3055,3.3118,3.3118,0,0,1-.9675-3.0235C561.1559,802.312,558.0676,802.32,557.9389,804.2959Z"/><path class="cls-2" d="M631.1508,793.3161l38.9206-11.3829a5.5138,5.5138,0,0,0,2.7691-8.3133h0a4.6576,4.6576,0,0,0-5.7778-3.1629L628.1421,781.84Z"/><path d="M631.5613,794.8049l16.1252-4.7161,21.3754-6.2516c.4717-.138.9511-.261,1.418-.4147a7.1482,7.1482,0,0,0,4.853-6.3881,10.21,10.21,0,0,0-1.3231-4.6557,6.1621,6.1621,0,0,0-3.2831-3.1717,6.6651,6.6651,0,0,0-4.4976-.115c-6.3935,1.8394-12.7714,3.7352-19.1567,5.6027-6.327,1.85-12.71,3.57-18.996,5.5557-.1141.036-.23.0672-.3447.1008a1.5714,1.5714,0,0,0-1.0783,1.8992l3.0087,11.4762a1.5452,1.5452,0,0,0,2.9775-.8209L629.6308,781.43l-1.0783,1.8992,14.9511-4.3727,21.4939-6.2863c2.0662-.6043,4.7683-1.7516,6.1156.7809.68,1.2781,1.3841,2.7182,1.033,4.1967a4.0584,4.0584,0,0,1-2.2375,2.7154,12.2353,12.2353,0,0,1-1.3464.4031l-19.7959,5.79c-5.8968,1.7246-11.85,3.3208-17.7062,5.1784-.1058.0336-.2132.0624-.32.0935C628.8372,792.3841,629.647,795.3647,631.5613,794.8049Z"/><circle cx="630.9293" cy="787.458" r="9.042"/><path d="M620.5057,789.2563a10.5788,10.5788,0,1,0,6.8246-11.7492,10.6369,10.6369,0,0,0-6.8246,11.7492,1.5537,1.5537,0,0,0,1.8992,1.0783,1.5847,1.5847,0,0,0,1.0783-1.8991,7.5142,7.5142,0,1,1,7.0967,6.5156,7.576,7.576,0,0,1-7.0967-6.5156,1.5563,1.5563,0,0,0-1.8992-1.0783A1.58,1.58,0,0,0,620.5057,789.2563Z"/><path d="M695.9185,725.617l-8.5-.7979-20.2854-1.904L642.4719,720.6l-21.2292-1.9926-7.0717-.6638a27.9267,27.9267,0,0,0-3.3249-.3121,1.2323,1.2323,0,0,1-.149-.014c-.9887-.0928-.9823,1.4517,0,1.5439l8.5.7979,20.2854,1.904,24.661,2.3148,21.2292,1.9926,7.0717.6638a27.9475,27.9475,0,0,0,3.3249.3121,1.2526,1.2526,0,0,1,.149.0139c.9887.0928.9823-1.4516,0-1.5438Z"/><path d="M750.0726,605.9218l-1.4151,30.258-.2023,4.3263c-.0929,1.9865,2.9951,1.9818,3.0877,0l1.4151-30.258.2023-4.3263c.0929-1.9864-2.9951-1.9817-3.0877,0Z"/><path d="M789.8172,733.4919l12.9207-22.9L823.17,674.3812l4.6881-8.3088a.7725.7725,0,0,0-1.3331-.7792l-12.9208,22.9-20.4315,36.2111-4.6881,8.3088a.7725.7725,0,0,0,1.3331.7792Z"/><path d="M731.2045,349.9361c3.9743-.92,5.5436-10.7755,5.291-22.1885l-18.4164,7.76C720.9485,344.9111,726.9925,350.9107,731.2045,349.9361Z"/><path d="M731.615,351.4248c3.2894-.8574,4.5442-4.8952,5.2124-7.8038a65.289,65.289,0,0,0,1.2119-15.8734c-.018-.8911-.9916-1.8943-1.9543-1.4887l-16.1233,6.7935-2.293.9662a1.5791,1.5791,0,0,0-1.0783,1.8991,29.8309,29.8309,0,0,0,6.6458,11.9865c2.1585,2.2291,5.1448,4.1948,8.3788,3.5206,1.944-.4052,1.1213-3.3823-.8209-2.9774a4.0732,4.0732,0,0,1-2.52-.5087,11.8717,11.8717,0,0,1-3.2325-2.6211,26.9769,26.9769,0,0,1-5.4733-10.2207L718.49,336.996l16.1233-6.7935,2.293-.9662-1.9543-1.4887a65.7466,65.7466,0,0,1-.9134,14.1734,17.6349,17.6349,0,0,1-1.4266,4.6121,5.5645,5.5645,0,0,1-.9066,1.3566,2.2414,2.2414,0,0,1-.4457.3708c-.3156.2-.1051.093-.4652.1869A1.5452,1.5452,0,0,0,731.615,351.4248Z"/><path class="cls-1" d="M656.86,375.62l-58.359,50.7972-12.6583,10.352c-17.24,13.71-30.4653,12.975-60.1049-6.2553l-80.8013-69.0484,19.3847-30.69,94.6882,61.9837,4.5214-5.0471,62.2365-71.6792a31.6992,31.6992,0,0,1,23.9359-10.9166h16.55"/><path d="M655.7679,374.528l-12.2907,10.6981-24.8005,21.5871-19.2039,16.7155c-4.5753,3.9825-9.3393,7.7463-14.0344,11.586a44.5727,44.5727,0,0,1-13.3216,7.9722,29.21,29.21,0,0,1-17.057.3739c-8.026-2.08-15.45-6.203-22.4911-10.4747a54.8583,54.8583,0,0,1-7.4376-5.0151L509.28,414.4256l-24.8457-21.2318L460.33,372.5954l-13.6571-11.6706-.645-.5513.2414,1.8709,16.9792-26.8813,2.4055-3.8083-2.1123.5538,9.45,6.186,22.5824,14.7827,27.3088,17.8766,23.7007,15.5147c3.8054,2.491,7.541,5.2408,11.4817,7.516.0565.0326.11.072.1647.1078a1.5545,1.5545,0,0,0,1.8709-.2414c3.599-4.0175,7.1464-8.07,10.6826-12.1432l21.361-24.6019,23.4108-26.9627c3.7653-4.3366,7.5094-8.6926,11.2963-13.01A30.6031,30.6031,0,0,1,649.8486,306.66c4.9464-.0109,9.8929,0,14.8393,0h1.5654a1.5448,1.5448,0,0,0,0-3.0878H651.9266a46.6814,46.6814,0,0,0-8.072.5248,32.843,32.843,0,0,0-13.41,5.6292,44.2272,44.2272,0,0,0-7.5117,7.2219l-6.8414,7.8794L593.3932,350.97,570.79,377.0026c-3.6054,4.1524-7.19,8.3219-10.8593,12.4179l-2.013,2.2471,1.8709-.2414-9.45-6.1859L527.756,370.4576,500.4471,352.581l-23.7007-15.5147c-3.8054-2.491-7.541-5.2409-11.4817-7.516-.0565-.0327-.11-.072-.1647-.1078a1.5677,1.5677,0,0,0-2.1123.5538l-16.9792,26.8813-2.4055,3.8084a1.5549,1.5549,0,0,0,.2414,1.8709l9.8349,8.4043,22.7264,19.4208,25.6986,21.9607,18.7514,16.0239c1.2243,1.0462,2.4324,2.1158,3.675,3.14a64.1335,64.1335,0,0,0,8.2053,5.18,117.5911,117.5911,0,0,0,12.014,6.3219c6.1549,2.7407,12.8014,4.8986,19.6193,4.65a33.7264,33.7264,0,0,0,16.7568-5.6093,117.9946,117.9946,0,0,0,11.2763-8.6606c2.46-2.0118,4.9658-3.979,7.38-6.0456,4.9591-4.2445,9.849-8.5728,14.7726-12.8585l25.2609-21.9877,17.2447-15.01.89-.775c1.5016-1.307-.69-3.4833-2.1833-2.1834Z"/><path class="cls-4" d="M669.7251,369.9588l-57.33,54.9142-12.6583,10.352c-17.24,13.71-53.73,29.6137-83.37,10.3834l-61.7548-55.5793,33.8953-44.8441,70.5009,47.5743,4.5214-5.0471,62.2365-71.6792a31.6992,31.6992,0,0,1,23.9359-10.9166h16.55"/><path d="M668.6335,368.8672l-10.3111,9.8765L636.64,399.5125,616.7672,418.548l-4.9332,4.7254c-1.4406,1.38-3.0606,2.5772-4.6033,3.8388-3.0325,2.48-6.0189,5.0327-9.1128,7.4364a90.6213,90.6213,0,0,1-17.145,10.3462c-14.206,6.66-30.6714,10.1872-46.2147,6.7549a52.873,52.873,0,0,1-11.98-4.1717,29.86,29.86,0,0,1-5.5542-3.173c-1.4637-1.1856-2.82-2.538-4.22-3.7976L493.7627,423.19,470.68,402.4155l-14.2682-12.8414-.7074-.6366.2414,1.8709,11.4709-15.1763,18.2617-24.1606,4.1627-5.5073-2.1123.5539,23.9454,16.1584,37.88,25.5615,8.6758,5.8544a1.5517,1.5517,0,0,0,1.8709-.2414c3.599-4.0175,7.1464-8.07,10.6826-12.1432l21.361-24.6019,23.4108-26.9627c3.7653-4.3366,7.5094-8.6926,11.2963-13.01A30.6031,30.6031,0,0,1,649.8486,306.66c4.9464-.0109,9.8929,0,14.8393,0h1.5654a1.5448,1.5448,0,0,0,0-3.0878H651.9266a46.6814,46.6814,0,0,0-8.072.5248,32.843,32.843,0,0,0-13.41,5.6292,44.2272,44.2272,0,0,0-7.5117,7.2219l-6.8414,7.8794L593.3932,350.97,570.79,377.0026c-3.6054,4.1524-7.19,8.3219-10.8593,12.4179l-2.013,2.2471,1.8709-.2414-23.9454-16.1584-37.88-25.5615-8.6758-5.8544a1.5807,1.5807,0,0,0-2.1123.5539L475.7041,359.582l-18.2617,24.1606L453.28,389.25a1.5426,1.5426,0,0,0,.2414,1.8709l10.39,9.3512L486.2539,420.58l21.3423,19.208,6.2636,5.6373a33.6124,33.6124,0,0,0,8.65,5.3339c15.2778,7.0318,32.64,6.4472,48.413,1.3869A97.6478,97.6478,0,0,0,602.916,434.61c4.3036-3.5195,8.74-6.891,12.7561-10.7379L632.84,407.4272l22.7113-21.7544L670.1,371.7375l.7172-.687c1.4378-1.3772-.7475-3.5586-2.1833-2.1833Z"/><path class="cls-4" d="M666.2533,304.9287l53.4383,1.2372c8.1438-.5743,12.6359,2.4932,16.9742,14.1984,0,0,19.8059,98.1764,26.2844,137.5911-13.202-12.36-123.8447-3.1393-123.8447-3.1393l12.252-121.5229"/><path d="M666.2533,306.4725l35.4394.82,16.9283.3919c2.1767.05,4.3418-.19,6.4775.3859,4.3363,1.1684,6.7768,5.1582,8.5546,8.9947a21.8641,21.8641,0,0,1,1.7651,4.9066q.4653,2.3121.9287,4.6245,1.7778,8.8665,3.5391,17.7362,5.4425,27.3972,10.7287,54.8252c3.4665,18.0457,6.9155,36.1006,10.009,54.2148q.4261,2.4952.8378,4.993l2.58-1.5021a16.8458,16.8458,0,0,0-6.9091-3.3631,71.4508,71.4508,0,0,0-11.041-2.0336,260.7024,260.7024,0,0,0-30.3142-1.4947c-11.3972-.0507-22.7954.2539-34.182.7292q-14.3257.598-28.6335,1.56-4.6212.3071-9.24.6514a31.6888,31.6888,0,0,0-4.4293.3444,1.4055,1.4055,0,0,1-.1875.0154l1.5438,1.5439,1.217-12.0707,2.9232-28.9937,3.5377-35.089,3.0605-30.3567,1.0156-10.0732c.1575-1.5622.4208-3.1532.4762-4.7234.0026-.0719.0146-.1445.0218-.2162.1992-1.9754-2.89-1.9615-3.0877,0l-1.217,12.0707-2.9231,28.9937-3.5377,35.0891-3.0606,30.3566L638.06,449.8765c-.1575,1.5622-.4207,3.1532-.4762,4.7234-.0025.0719-.0146.1445-.0218.2162a1.5479,1.5479,0,0,0,1.5439,1.5439c3.6765-.3062,7.3571-.5672,11.0375-.8206q13.4184-.9239,26.8554-1.5481c11.2282-.5177,22.4669-.8757,33.7076-.93,10.3913-.05,20.8213.0931,31.1753,1.0464a93.4972,93.4972,0,0,1,11.6235,1.67,38.9722,38.9722,0,0,1,4.46,1.22c.292.1014.581.21.87.32.147.056.2928.1159.438.1765-.3737-.156.1561.0707.2536.1171a14.0927,14.0927,0,0,1,1.451.7753c.208.1306.4094.27.6077.4143-.3921-.2861.1554.1372.2737.2465a1.5578,1.5578,0,0,0,2.58-1.5021c-2.8863-17.5433-6.2243-35.0149-9.5579-52.4775q-5.4518-28.5587-11.1283-57.074-1.9566-9.8712-3.9317-19.7387c-.5471-2.7328-.9455-5.5526-1.656-8.2491a30.83,30.83,0,0,0-2.626-6.089,20.8387,20.8387,0,0,0-4.2868-5.8737c-3.33-3.0155-7.252-3.4989-11.5606-3.421-4.0266.0728-8.0882-.1873-12.1135-.2805l-40.4733-.937-.8515-.02c-1.9877-.046-1.9871,3.0417,0,3.0877Z"/><path class="cls-1" d="M752.0648,365.3272l66.5074,1.3482,10.649,112.67,36.0777-4.0024,3.5369-106.2263c.0483-34.6664-11.146-45.9543-32.6171-50.8709l-15.9881-3.432L757.266,302.6209a60.69,60.69,0,0,0-11.5379-1.1069l-.868,8.7486"/><path d="M752.0648,366.8711l22.457.4552,35.81.7259,8.2406.167-1.5439-1.5438,1.0628,11.2444,2.54,26.8708,3.0712,32.4948,2.6655,28.2016c.43,4.5527.8055,9.1147,1.2913,13.662.0069.0652.0123.1306.0185.196.0717.7583.6525,1.6427,1.5439,1.5438l31.6007-3.5057,4.477-.4966a1.5881,1.5881,0,0,0,1.5439-1.5439l.4164-12.5068.9721-29.1976,1.1084-33.29.8384-25.1807a128.6481,128.6481,0,0,0-.8619-22.6463,50.9411,50.9411,0,0,0-5.7938-18.2791,32.5543,32.5543,0,0,0-10.8506-11.28c-8.4049-5.308-18.5549-6.7449-28.0994-8.7937-5.063-1.0869-10.1486-2.0479-15.2327-3.0324l-31.712-6.1407q-9.9354-1.9239-19.8708-3.8478a65.1581,65.1581,0,0,0-12.0288-1.1775,1.5834,1.5834,0,0,0-1.5439,1.5438l-.868,8.7486c-.1961,1.9759,2.893,1.9623,3.0877,0l.8681-8.7486-1.5439,1.5439c8.1332.0324,16.1635,2.0268,24.1144,3.5665l31.6206,6.123c6.1162,1.1844,12.2478,2.3082,18.352,3.5537,3.8847.7926,7.7548,1.6645,11.6312,2.4967a87.8909,87.8909,0,0,1,12.7046,3.3968,33.401,33.401,0,0,1,12.6124,8.067,34.5619,34.5619,0,0,1,7.738,14.3276c2.5707,8.8876,2.9974,18.3166,2.691,27.5195l-.7216,21.672-1.08,32.4414-1.0289,30.9027-.5792,17.3946-.0274.8232,1.5439-1.5439-31.6007,3.5057-4.477.4967,1.5438,1.5439-1.0627-11.2445-2.54-26.8708-3.0713-32.4948-2.6655-28.2015c-.43-4.5528-.8055-9.1148-1.2913-13.6621-.0069-.0652-.0123-.1306-.0185-.1959a1.5825,1.5825,0,0,0-1.5438-1.5439l-22.4571-.4552-35.81-.7259-8.24-.167c-1.9878-.04-1.9876,3.0474,0,3.0877Z"/><path class="cls-4" d="M738.17,375.62h66.3863l5.6608,62.2693,56.0939-2.0584.8146-21.5238,1.71-45.19c.0483-34.6664-11.146-45.9543-32.6171-50.8709l-15.9881-3.432L757.266,302.6209a60.69,60.69,0,0,0-11.5379-1.1069H713.9827"/><path d="M738.17,377.1636h66.3863l-1.5439-1.5439,1.9192,21.1111,3.0437,33.48.698,7.6781a1.5719,1.5719,0,0,0,1.5438,1.5439l18.9575-.6957,30.21-1.1086,6.9263-.2542a1.5772,1.5772,0,0,0,1.5439-1.5438L868.67,414.3l.836-22.09c.29-7.6738.6838-15.3515.8715-23.0286a92.3778,92.3778,0,0,0-1.96-21.69,42.8285,42.8285,0,0,0-6.6892-16.0293c-6.0379-8.3651-15.5587-12.62-25.3949-14.7687-5.8846-1.2856-11.7681-2.6086-17.6819-3.7537l-24.7248-4.7878-29.2235-5.6588q-3.3912-.6567-6.7824-1.3134a73.2424,73.2424,0,0,0-13.9159-1.2091H713.9827a1.5448,1.5448,0,0,0,0,3.0877h24.3155c3.3579,0,6.7342-.0884,10.09.0588a76.145,76.145,0,0,1,11.1593,1.5142L784.91,309.542l28.596,5.5373c5.2279,1.0123,10.4282,2.1058,15.6356,3.2236,8.8608,1.9021,18.1553,3.6825,25.27,9.73,9.32,7.9212,11.8737,20.6564,12.6223,32.298.5278,8.2085-.03,16.4144-.3411,24.6209l-1.0415,27.521-.76,20.0874-.1237,3.2705,1.5438-1.5439-18.9575.6957-30.21,1.1086-6.9263.2542,1.5439,1.5438-1.9192-21.1111-3.0436-33.48L806.1,375.62a1.5782,1.5782,0,0,0-1.5439-1.5439H738.17a1.5448,1.5448,0,0,0,0,3.0878Z"/><path class="cls-1" d="M713.801,301.2852a27.7818,27.7818,0,1,1-55.4259,3.9085Z"/><path d="M712.2571,301.2852a26.2419,26.2419,0,0,1-52.3381,3.9085l-1.5439,1.5439,18.7722-1.3238,29.7825-2.1,6.8712-.4845c1.9709-.139,1.9862-3.2278,0-3.0877l-18.7722,1.3237-29.7826,2.1-6.8711.4845a1.5636,1.5636,0,0,0-1.5439,1.5439,29.3136,29.3136,0,0,0,53.0011,15.2443,29.3588,29.3588,0,0,0,5.5125-19.1528C715.218,299.3121,712.1294,299.2978,712.2571,301.2852Z"/><polyline class="cls-1" points="701.589 307.263 698.913 272.325 669.886 285.419 670.253 308.435"/><path d="M703.1324,307.2634,700.79,276.6682l-.3326-4.343a1.5687,1.5687,0,0,0-2.3231-1.3331L672.6663,282.48l-3.5593,1.6055a1.5117,1.5117,0,0,0-.7647,1.3331l.32,20.0922.0466,2.9237c.0316,1.9849,3.1194,1.9909,3.0877,0l-.32-20.0922-.0465-2.9237-.7647,1.3331,25.4677-11.4882,3.5593-1.6056-2.3231-1.3331,2.3428,30.5952.3326,4.343c.1507,1.9687,3.24,1.985,3.0877,0Z"/><path class="cls-1" d="M699.8484,284.3874c16.3445-14.1673,10.3578-27.2005,10.75-36.92.2278-5.644-7.8563-17.4162-7.8563-17.4162l-46.6154-10.3543-10.2237,15.5992s-19.5524,64.9345,34.8735,52.5459"/><path d="M700.94,285.4791c4.8736-4.2665,8.9919-9.5,10.8136-15.8007,1.34-4.6337,1.2735-9.4453.8534-14.2044-.1814-2.0556-.4148-4.111-.4714-6.1753a20.7386,20.7386,0,0,0-.6789-5.9132,53.2376,53.2376,0,0,0-6.1741-12.2686c-.528-.8321-1.1491-2.2-2.1317-2.555a8.8845,8.8845,0,0,0-1.0767-.2392l-6.808-1.5122-22.9726-5.1026-15.7565-3.5a1.6018,1.6018,0,0,0-1.7435.7095l-5.8625,8.9449-3.539,5.4a8.1058,8.1058,0,0,0-1,1.6975,62.508,62.508,0,0,0-2.3143,10.6883,72.5792,72.5792,0,0,0-.68,20.6532c.9153,7.0244,3.3968,14.2423,8.9776,18.9353,7.2628,6.1075,17.2346,6.4118,26.19,4.9916,1.55-.2459,3.09-.5523,4.6214-.8975,1.9377-.4368,1.1176-3.4144-.8208-2.9774-8.6438,1.9486-18.9087,2.8818-26.555-2.3528-5.413-3.7056-8.0585-10.06-9.1488-16.5591a55.2107,55.2107,0,0,1-.6142-10.0984c.04-1.6849.1388-3.3683.2877-5.047.1349-1.52.3387-3.243.5108-4.4426a110.7458,110.7458,0,0,1,2.434-11.7623,2.8064,2.8064,0,0,0,.0951-.3307c.01-.08-.3237.5016-.0077.1136A45.7908,45.7908,0,0,0,649.9073,232l7.0516-10.7592.501-.7644-1.7435.7095,15.7565,3.5,25.1065,5.5767,5.7524,1.2777-.9227-.71c1.3448,1.9622,2.58,4.0094,3.7356,6.0873,1.672,3.0056,3.8707,6.7021,3.9135,10.2482.0866,7.1643,1.7509,14.4982-.24,21.5416-1.658,5.8668-5.5417,10.6312-10.062,14.5884-1.498,1.3114.6932,3.4879,2.1834,2.1834Z"/><path d="M664.8833,249.1774a6.894,6.894,0,0,1,.8408-.482c.1413-.071.2848-.1367.4282-.2033.2077-.0965.073-.03-.0562.021.0975-.0383.1942-.0786.2921-.1159a11.4317,11.4317,0,0,1,1.31-.4108q.3591-.0893.7232-.1552c.03-.0054.4856-.0759.1513-.031.1214-.0163.2435-.0284.3654-.04a10.5365,10.5365,0,0,1,1.8062-.0121,3.97,3.97,0,0,1,.6905.093q.4893.0926.9686.2309a9.96,9.96,0,0,1,2.0268.8517,1.5441,1.5441,0,0,0,1.5585-2.6662,12.5654,12.5654,0,0,0-8.855-1.3094,11.027,11.027,0,0,0-3.8088,1.5629,1.5843,1.5843,0,0,0-.5538,2.1123,1.5574,1.5574,0,0,0,2.1123.5539Z"/><path d="M645.1253,249.18c.2969-.1442-.3519.1146.11-.0464.3771-.1316.7513-.2637,1.1371-.3693a13.53,13.53,0,0,1,3.8669-.467,5.1282,5.1282,0,0,1,4.9025,3.5538c.6234,2.0549-.1766,4.4065-1.1033,6.253a19,19,0,0,1-2.4247,3.68,3.513,3.513,0,0,0-1.0909,1.9912,4.1848,4.1848,0,0,0,.0952,1.5278c.7676,2.837,4.1356,2.6637,6.4295,2.3449a1.5534,1.5534,0,0,0,1.0783-1.8992,1.5851,1.5851,0,0,0-1.8991-1.0783,5.5382,5.5382,0,0,1-2.5336-.0673c-.0877-.0382-.094-.0749-.1018-.096.0055.015-.0127-.0594-.0113-.0906.0058-.1277-.0042-.362.0066-.4315l-.3971.6813c3.4946-3.9292,7.37-10.5952,3.96-15.7327-2.9306-4.415-9.153-4.5722-13.5824-2.42-1.787.8682-.2233,3.5318,1.5584,2.6662Z"/><circle cx="647.286" cy="256.6869" r="1.9974"/><path d="M646.0611,256.7325c-.0006-.0646-.0243-.22.0126-.2759l-.0123.0977q.009-.0531.021-.1056t.0264-.1036c.0145-.0513.0331-.1007.05-.1513.036-.1093-.0235.0214-.0167.0387-.0173-.0436.13-.2308.1546-.2727.0853-.1453-.0871.084-.0119.01.0305-.03.0561-.0667.0853-.0981.0337-.0362.1453-.1793.189-.1783-.0274-.0006-.1244.0852-.0321.0258.044-.0284.0865-.0585.1316-.0852q.045-.0267.0916-.0511t.0945-.0464q-.1436.0584-.0624.027c.0858-.0183.1693-.0578.2557-.0778.0281-.0066.108-.0374.1329-.0263-.0862-.0382-.1323.0138-.0137.0062a2.0251,2.0251,0,0,1,.2776.0013c.1056.0077.0865.0568-.0158-.0048a.8309.8309,0,0,0,.1577.0335.7087.7087,0,0,1,.2519.0827l-.0878-.0358q.0474.0222.0938.0469c.0307.0163.0611.0336.0909.0515a.9242.9242,0,0,0,.1094.071c.0938.0388-.134-.1212-.0115-.01.0779.0705.15.1426.2226.2182.1.1039-.0172-.0318-.0227-.0347.0312.0167.07.0994.0885.1291.0266.0423.1372.1884.1247.2308,0-.0006-.0638-.1826-.0175-.0376.0163.051.0345.1009.0487.1526.01.0346.0181.07.0258.1045s.0144.071.02.1067q-.0194-.1587-.0106-.069c.0026.0837.01.1664.0077.25a.4875.4875,0,0,1-.0121.1645c.043-.0705.0255-.1329.0025-.0447-.0226.0864-.04.1729-.0695.2576l-.0178.05q-.0463.1179.0167-.0386c.0089.02-.0633.1241-.0721.14-.0215.0379-.0466.0736-.0682.1113-.0339.0592-.0419.1388.014-.0085a.7833.7833,0,0,1-.1745.1924,1.0428,1.0428,0,0,0-.0964.0872c-.0632.08.1521-.0986.0123-.0089-.0888.0569-.1781.1085-.27.16-.0816.0456-.005.0374.04-.0138a.468.468,0,0,1-.1507.0526c-.0778.0237-.157.0378-.236.0562-.1106.0258.1956-.0074.0148-.0033-.0465.001-.0928.0054-.1393.0058s-.0925,0-.1388-.0033c-.0365-.0022-.0729-.0053-.1092-.01l.0977.0123c-.0336.03-.26-.062-.3106-.0793-.03-.01-.1477-.0855-.0551-.019.1.0716-.0724-.0409-.0958-.0542-.03-.0172-.06-.0352-.0894-.0539s-.0581-.0381-.0864-.0583q.13.1036.0328.0251c-.0642-.0585-.1289-.1154-.1878-.1794l-.0347-.0388q-.08-.0958.0227.0347a.5443.5443,0,0,1-.0885-.1292q-.0418-.0665-.0784-.1362l-.0238-.0469q-.053-.1146.0138.04c-.0526-.0459-.08-.2437-.0933-.3068a.59.59,0,0,0-.02-.1067q.0212.1725.008.0416c-.0029-.0371-.0047-.0742-.0056-.1114a.772.772,0,0,0-1.5439,0,2.8217,2.8217,0,0,0,1.89,2.58,2.764,2.764,0,0,0,3.0042-.8572,2.767,2.767,0,1,0-4.8944-1.7224.772.772,0,0,0,1.5439,0Z"/><circle cx="666.0923" cy="255.4989" r="1.9974"/><path d="M664.8673,255.5445c0-.0646-.0243-.22.0126-.2759l-.0123.0977q.0091-.0531.021-.1056t.0265-.1036c.0145-.0513.033-.1007.05-.1512.036-.1094-.0235.0213-.0167.0386-.0172-.0436.13-.2308.1546-.2727.0853-.1453-.087.084-.0118.01.03-.03.056-.0667.0853-.0981.0337-.0362.1453-.1793.1889-.1783-.0274-.0006-.1244.0852-.0321.0258.0441-.0284.0865-.0585.1316-.0852q.0451-.0267.0916-.0511t.0945-.0464q-.1436.0583-.0623.027c.0858-.0183.1692-.0578.2556-.0778.0281-.0065.108-.0373.133-.0263-.0862-.0382-.1323.0138-.0138.0062a2.0265,2.0265,0,0,1,.2777.0013c.1056.0077.0865.0568-.0159-.0048a.8232.8232,0,0,0,.1577.0335.7086.7086,0,0,1,.252.0827l-.0879-.0358q.0476.0222.0938.0469t.091.0516a.9349.9349,0,0,0,.1093.0709c.0938.0388-.134-.1212-.0114-.01.0778.07.1495.1426.2225.2182.1.1039-.0171-.0318-.0226-.0347.0312.0167.07.0994.0884.1291.0266.0423.1372.1885.1248.2308,0-.0006-.0639-.1826-.0175-.0376.0162.051.0344.1009.0487.1526q.0142.0519.0257.1045t.02.1067q-.0194-.1587-.0105-.069c.0026.0837.01.1664.0076.25a.4875.4875,0,0,1-.0121.1645c.043-.07.0256-.1329.0025-.0447-.0226.0864-.04.1729-.0694.2576l-.0179.05q-.0462.1179.0167-.0386c.0089.02-.0633.1241-.0721.14-.0214.0379-.0466.0736-.0682.1113-.0338.0592-.0419.1388.014-.0085a.7813.7813,0,0,1-.1745.1924,1.0693,1.0693,0,0,0-.0964.0872c-.0632.08.1521-.0986.0123-.0089-.0888.0569-.178.1085-.27.16-.0816.0457-.005.0374.04-.0138a.4671.4671,0,0,1-.1507.0526c-.0778.0237-.157.0378-.2359.0562-.1107.0259.1955-.0074.0147-.0033-.0465.001-.0928.0054-.1393.0058s-.0925-.0005-.1387-.0033q-.0547-.0031-.1092-.01l.0977.0123c-.0336.03-.26-.062-.3107-.0793-.03-.01-.1476-.0855-.0551-.019.1.0716-.0723-.0409-.0957-.0542q-.0455-.0257-.09-.0539t-.0864-.0583q.13.1036.0329.0251c-.0643-.0584-.1289-.1153-.1879-.1794l-.0347-.0388q-.08-.0958.0227.0347a.55.55,0,0,1-.0885-.1292q-.0418-.0664-.0784-.1362l-.0238-.0469q-.053-.1146.0138.04c-.0526-.0459-.0795-.2437-.0933-.3067a.5872.5872,0,0,0-.02-.1067q.0213.1723.008.0415-.0042-.0557-.0056-.1114a.7719.7719,0,1,0-1.5438,0,2.8217,2.8217,0,0,0,1.89,2.58,2.764,2.764,0,0,0,3.0042-.8572,2.767,2.767,0,1,0-4.8944-1.7224.7719.7719,0,1,0,1.5438,0Z"/><path d="M698.395,246.8957a4.8539,4.8539,0,0,0-2.6471.01,7.33,7.33,0,0,0-4.3726,3.9,19.2763,19.2763,0,0,0-1.7478,5.4007,1.5443,1.5443,0,0,0,2.9775.8208,24.121,24.121,0,0,1,.6063-2.5489c.1048-.3471.2193-.6912.3459-1.0309.0554-.1485.1193-.2942.1735-.4431.0772-.2124-.1592.3506-.017.0431.0409-.0884.08-.1778.1212-.2659a9.8354,9.8354,0,0,1,.8092-1.422c.0291-.0419.06-.0829.0884-.1249.0933-.136.2314-.18-.0635.0759a1.9806,1.9806,0,0,0,.1793-.2194,6.2123,6.2123,0,0,1,.4515-.4778q.11-.1045.2262-.2031c.03-.0252.0611-.0492.09-.0749.1831-.161-.3041.2164-.1548.1186s.2906-.2054.4456-.2959c.1345-.0783.2746-.1414.4126-.2122.1861-.0954-.4555.166-.1368.06.0756-.0251.15-.0539.2259-.0774q.1746-.0538.3537-.0914c.0618-.0129.1251-.02.1866-.0342.18-.04-.5088.05-.197.0277a4.4208,4.4208,0,0,1,.5857-.0117c.0508.0031.1014.01.1521.0126.2547.0145-.37-.0641-.2763-.0381.0627.0174.1312.0212.1951.0356a1.5952,1.5952,0,0,1,.1653.0437,1.5546,1.5546,0,0,0,1.8992-1.0783,1.581,1.581,0,0,0-1.0783-1.8992Z"/><path class="cls-1" d="M450.0246,365.8136l-20.1714-12.1673a32.4235,32.4235,0,0,1-7.5264-6.2674h0c-4.9582-5.5987-10.4091-9.7925-17.7912-10.99l-2.8724-5.7731s24.3043-29.9835,27.8847-29.3336l10.0143-.8521a6.6527,6.6527,0,0,1,1.3745-7.0752h0a6.6529,6.6529,0,0,1,10.255.792l4.6392,6.6356a34.8348,34.8348,0,0,1,5.745,13.8472l1.0586,5.9386a24.2759,24.2759,0,0,0,10.6622,16.0895l1.5655,1.0183"/><path d="M450.8039,364.4805l-13.4373-8.1052q-3.179-1.9176-6.3581-3.8352a33.23,33.23,0,0,1-3.9-2.6972c-2.2538-1.8468-4.0632-4.0981-6.1244-6.14-4.4467-4.4039-9.8016-7.7416-16.0378-8.8032l.9227.7095-2.8724-5.7731-.2414,1.8709q5.9052-7.2834,12.0945-14.3352c3-3.4233,6.0417-6.8228,9.2647-10.039a50.9648,50.9648,0,0,1,3.7578-3.4622,4.11,4.11,0,0,1,.484-.3695c.2287-.1607.4576-.3218.6993-.4629.1635-.0954.6453-.4732.2589-.16.2555-.207.3861-.013.0846-.0625-.2091-.0344-.3131.02.1572.0093.061-.0014.1218-.0146.1828-.0156.3251-.0053.656-.0558.98-.0833l3.4675-.2951,5.3762-.4574a1.5611,1.5611,0,0,0,1.4887-1.9543,5.2275,5.2275,0,0,1,2.5013-6.6868,5.1731,5.1731,0,0,1,6.1364,1.3749c1.7311,2.092,3.1706,4.5,4.7215,6.7285a35.6078,35.6078,0,0,1,5.8042,14.3167c.6668,3.7412,1.1794,7.47,2.7106,10.9844,2.3325,5.3539,6.3478,9.1428,11.1581,12.2718,1.6706,1.0867,3.22-1.5854,1.5584-2.6661-4.5656-2.97-8.341-6.6327-10.3165-11.8343-1.2471-3.2835-1.63-6.8523-2.26-10.2895a38.94,38.94,0,0,0-6.707-15.3694l-3.2364-4.6292a9.9651,9.9651,0,0,0-3.8483-3.6539,8.2573,8.2573,0,0,0-11.1994,10.2738l1.4887-1.9543c-3.3146.282-6.63.5529-9.944.8461-.2237.02.3063.0542.2927.0544-.177.0027-.3584-.0594-.5393-.0568a2.9434,2.9434,0,0,0-.809.1453,5.7943,5.7943,0,0,0-1.4733.7566,28.2266,28.2266,0,0,0-3.5887,2.9915c-6.5742,6.1987-12.403,13.2551-18.1959,20.173q-2.3852,2.8482-4.7332,5.7277a1.6278,1.6278,0,0,0-.2414,1.8709l2.0777,4.1759a13.7987,13.7987,0,0,0,.7919,1.5916c.47.6946,1.1422.74,1.9023.894a24.6,24.6,0,0,1,2.62.6822,25.3924,25.3924,0,0,1,8.24,4.5806c2.5337,2.0711,4.5671,4.58,6.8961,6.8542a47.6425,47.6425,0,0,0,8.9778,6.472l10.0629,6.07,7.3466,4.4315c1.7059,1.029,3.26-1.64,1.5585-2.6662Z"/><path class="cls-1" d="M419.7785,328.2084a105.02,105.02,0,0,0-31.9729-3.9306c-10.9581,1.4611-10.2015,9.4654.57,10.6108s15.2089-.5956,27.2992,6.5548"/><path d="M420.1889,326.72a79.52,79.52,0,0,0-9.9111-2.2966c-3.5162-.6277-7.0649-1.0972-10.6244-1.3945q-3.0916-.2583-6.1952-.3322a37.2138,37.2138,0,0,0-6.4587.1491c-2.629.407-5.5939,1.3084-7.3605,3.4338a4.8691,4.8691,0,0,0-.5305,5.7105c1.3166,2.194,3.9315,3.3682,6.3182,3.9527a52.1737,52.1737,0,0,0,9.6826.9726,46.426,46.426,0,0,1,8.7156,1.02,41.633,41.633,0,0,1,11.0708,4.8412,1.545,1.545,0,0,0,1.5584-2.6662,41.1627,41.1627,0,0,0-16.8779-5.9827c-2.5951-.2592-5.2062-.3139-7.8072-.4907-2.8035-.1907-5.8593-.3069-8.3546-1.7505a4.2069,4.2069,0,0,1-1.7336-1.6189,1.669,1.669,0,0,1-.12-1.307c.8405-1.9741,3.63-2.6516,5.5-3.008a29.3958,29.3958,0,0,1,5.9374-.1779q2.9042.053,5.8021.2737,4.94.3726,9.8277,1.2073a81.3974,81.3974,0,0,1,10.7406,2.4415c1.9.5984,2.7125-2.3815.8208-2.9775Z"/><path class="cls-1" d="M420.2242,316.38s-16.9055-6.9763-34.209-9.6222c-11.0376-.6222-11.7972,7.3818-1.4322,10.5292s19.7932,6.8134,37.1476,13.4112"/><path d="M420.6346,314.8917c-4.1606-1.7136-8.4482-3.1572-12.7413-4.4955-4.213-1.3133-8.4723-2.4851-12.7764-3.4615-4.2348-.9607-8.7308-2.217-13.09-1.5324-2.4625.3867-5.2323,1.5791-6.0858,4.1335-.7839,2.3459.5571,4.7205,2.3238,6.2112,2.57,2.1686,5.81,2.975,8.9431,3.9737,2.9162.93,5.8134,1.9176,8.6975,2.9422,8.5247,3.0286,16.9595,6.31,25.4149,9.5245,1.8591.7069,2.6631-2.277.8208-2.9775-7.2127-2.7424-14.4131-5.52-21.6606-8.17-5.4255-1.9835-10.964-3.615-16.4028-5.5427-1.8624-.66-4.9254-2.1064-5.2641-4.2271a1.65,1.65,0,0,1,.5461-1.5084,5.6,5.6,0,0,1,2.8832-1.2759c3.8535-.78,8.0819.5317,11.8293,1.376,4.0649.9159,8.09,2.0061,12.0739,3.2258,4.6076,1.4107,9.2091,2.9452,13.6678,4.7816,1.8358.7562,2.6357-2.23.8208-2.9774Z"/><path class="cls-5" d="M830.7468,632.5379l0-.0024a6.9167,6.9167,0,0,0-1.7811-6.4455,23.451,23.451,0,1,1,24.362,5.6892,7.04,7.04,0,0,0-4.5865,5.008h0a6.9619,6.9619,0,0,0,5.1756,8.3757l35.1086,8.29a15.5335,15.5335,0,0,0,18.6877-11.5479l8.29-35.1085a6.9621,6.9621,0,0,1,8.3757-5.1758l.0023.0006a6.9171,6.9171,0,0,1,4.9681,4.4763,23.4512,23.4512,0,1,0,5.81-24.3333,7.04,7.04,0,0,1-6.5308,1.8616h0a6.9622,6.9622,0,0,1-5.1756-8.3758l8.3164-35.2182a15.5335,15.5335,0,0,0-11.5479-18.6877l-35.1086-8.29a6.962,6.962,0,0,1-5.1756-8.3758h0a7.04,7.04,0,0,1,4.5865-5.008,23.45,23.45,0,1,0-24.362-5.6892,6.9173,6.9173,0,0,1,1.7812,6.4456l-.0006.0024a6.962,6.962,0,0,1-8.3756,5.1757l-35.2183-8.3164a15.5336,15.5336,0,0,0-18.6878,11.5479l-8.2905,35.1085a6.962,6.962,0,0,1-8.3756,5.1758l0,0a7.04,7.04,0,0,1-5.0081-4.5864,23.45,23.45,0,1,0-5.6891,24.3618,6.9171,6.9171,0,0,1,6.4456-1.781l.0024,0a6.9619,6.9619,0,0,1,5.1756,8.3757L775.6049,610.71a15.5336,15.5336,0,0,0,11.5479,18.6877h0l35.2183,8.3164A6.9619,6.9619,0,0,0,830.7468,632.5379Z"/><path d="M832.2355,632.9483a8.8017,8.8017,0,0,0-2.4533-8.2347,21.9087,21.9087,0,1,1,37.1922-10.0415,21.959,21.959,0,0,1-9.1786,13.1831,23.0346,23.0346,0,0,1-3.32,1.8253,20.93,20.93,0,0,0-3.82,1.7522,8.54,8.54,0,0,0-3.63,7.4414,8.7139,8.7139,0,0,0,6.96,7.8909c2.1586.5165,4.32,1.02,6.48,1.53l21.188,5.0033q3.24.7651,6.48,1.53a17.704,17.704,0,0,0,11.1627-.7988,17.2214,17.2214,0,0,0,9.9048-11.7163c.36-1.46.6913-2.9278,1.0369-4.3913l4.9146-20.8121,1.9338-8.1894c.57-2.4151,1.2865-4.7607,3.9569-5.66a5.4669,5.4669,0,0,1,6.5532,2.6446c.5871,1.1465.9295,2.4214,1.4919,3.5874a23.6,23.6,0,0,0,2.1705,3.6283,24.9772,24.9772,0,1,0,6.4448-35.3886c-2.489,1.67-4.5829,4.7736-7.8959,4.5218a5.4872,5.4872,0,0,1-4.9578-4.6513c-.2341-1.6757.4812-3.5977.8622-5.2109L930.5058,552.1l2.1154-8.958a33.0491,33.0491,0,0,0,1.0926-5.9234,17.1529,17.1529,0,0,0-6.4561-14.1317,19.9019,19.9019,0,0,0-8.0166-3.56c-11.2148-2.6482-22.4992-5.0919-33.6623-7.949a5.46,5.46,0,0,1-.6442-10.4192,26.56,26.56,0,0,0,12.67-9.7131,24.9953,24.9953,0,1,0-45.0273-7.9731,24.6734,24.6734,0,0,0,3.9548,8.5731c1.73,2.3856,4.4989,4.2829,4.002,7.5839a5.4913,5.4913,0,0,1-4.88,4.6022,7.4728,7.4728,0,0,1-2.4323-.2945l-17.58-4.1514c-5.5071-1.3-11.0115-2.6132-16.5215-3.9013a17.64,17.64,0,0,0-11.9631,1.2425,17.2094,17.2094,0,0,0-8.9911,11.3261c-2.7468,11.1687-5.2876,22.3919-7.9309,33.5856-.1148.4862-.22.976-.3447,1.46a5.4159,5.4159,0,0,1-10.4148.6247,29.0172,29.0172,0,0,0-3.7473-7.0189,24.9786,24.9786,0,1,0-5.3657,35.4209c2.3786-1.7222,4.2993-4.4964,7.584-4.002a5.4736,5.4736,0,0,1,4.61,5.0521,18.3753,18.3753,0,0,1-.9308,4.9229l-2.22,9.399-4.6843,19.8372a28.7972,28.7972,0,0,0-1.08,6.4855,17.2261,17.2261,0,0,0,6.7876,13.6759,19.805,19.805,0,0,0,7.6963,3.3162l7.8192,1.8464,20.96,4.95c1.6488.3894,3.2938.8065,4.9489,1.1687a8.6432,8.6432,0,0,0,10.3814-6.2289,1.5452,1.5452,0,0,0-2.9774-.8208,5.4888,5.4888,0,0,1-5.4889,4.2271,9.6267,9.6267,0,0,1-1.8638-.3366l-6.9562-1.6426-21.0433-4.9692c-1.9939-.4708-3.989-.9373-5.9818-1.4125a14.0064,14.0064,0,0,1-10.7453-17.2346c.4664-1.9949.9417-3.9879,1.4126-5.9818l4.9449-20.9406,1.6571-7.0176c.7646-3.2379.4224-6.5256-2.0743-8.9847a8.6074,8.6074,0,0,0-7.49-2.31c-3.1652.5529-4.9475,3.0852-7.4715,4.787a21.9041,21.9041,0,1,1,1.9475-34.731,22.3528,22.3528,0,0,1,5.02,6.26c1.2951,2.3967,1.7882,5.1151,3.9532,6.9576a8.5616,8.5616,0,0,0,13.3044-3.06,28.91,28.91,0,0,0,1.2888-4.8187l4.7682-20.1924,2.07-8.7657a26.23,26.23,0,0,1,1.681-5.6728,14.1328,14.1328,0,0,1,12.3008-7.8725,24.1558,24.1558,0,0,1,6.0117.9672l19.6027,4.6289,9.3266,2.2024c1.4642.3458,2.9367.78,4.426,1.0082a8.5827,8.5827,0,0,0,9.6758-9.91c-.5369-3.168-3.0867-4.954-4.7871-7.4714a22.3981,22.3981,0,0,1-3.446-8.3583,21.905,21.905,0,1,1,31.9173,15.3256c-2.3982,1.296-5.1145,1.7879-6.9576,3.9532a8.565,8.565,0,0,0-1.7561,7.7505c.9347,3.4352,3.7272,5.4475,7.0385,6.23l17.5637,4.1474c5.4474,1.2864,10.8978,2.5606,16.3423,3.8591a14.2117,14.2117,0,0,1,10.734,17.2914q-3.9867,16.9886-8.0207,33.9662c-.7937,3.3611-.3088,6.8709,2.4673,9.2416a8.5658,8.5658,0,0,0,7.7206,1.8274c3.0481-.7883,4.9789-3.4827,7.5674-5.098a21.9092,21.9092,0,1,1-3.1813,34.7068,22.3958,22.3958,0,0,1-4.8238-6.4315c-.584-1.166-.9328-2.4177-1.4921-3.59a8.44,8.44,0,0,0-2.7323-3.2092,8.5935,8.5935,0,0,0-12.9737,4.2492c-.4887,1.4266-.7373,2.9658-1.0829,4.4295l-2.211,9.3631L906.8024,639.05a23.16,23.16,0,0,1-1.9386,6.0185,14.125,14.125,0,0,1-12.675,7.2549,27.8568,27.8568,0,0,1-5.6053-1.0321l-8.9721-2.1186-20.1447-4.757c-1.6009-.378-3.62-.606-5.0028-1.5468a5.4688,5.4688,0,0,1-1.9181-6.65c1.1941-2.6756,4.054-3.1244,6.423-4.3164a25.0358,25.0358,0,1,0-31.1586-7.1153c1.7492,2.2852,4.2144,4.0946,3.4479,7.3409C828.8018,634.06,831.7783,634.8845,832.2355,632.9483Z"/><path class="cls-1" d="M428.7623,308.4623s-19.4353-14.0705-35.683-20.5838c-10.6066-3.1171-13.1673,4.5042-3.79,9.9272s17.7239,11.138,33.1221,21.5112"/><path d="M429.5416,307.1292a183.7135,183.7135,0,0,0-32.7771-19.3556c-3.3749-1.495-7.2851-2.9459-11.0008-1.769a5.0327,5.0327,0,0,0-3.6565,5.9906c.7515,3.4409,4.0611,5.7807,6.9041,7.4344q4.2973,2.5,8.49,5.174c8.1551,5.1764,16.1211,10.65,24.1309,16.0464,1.6525,1.1133,3.2-1.56,1.5584-2.6662-6.8931-4.644-13.76-9.3306-20.73-13.86-2.6572-1.727-5.3331-3.4255-8.0417-5.0709-2.75-1.67-6.0111-3.0746-8.1153-5.5769a4.4367,4.4367,0,0,1-1.2547-2.8622,1.808,1.808,0,0,1,1.1853-1.4983c2.9933-1.3793,6.769.332,9.4891,1.5553A170.0361,170.0361,0,0,1,416.52,302.126c3.8858,2.45,7.74,4.9762,11.4627,7.6694,1.6124,1.1663,3.1552-1.5112,1.5585-2.6662Z"/><path class="cls-1" d="M440.3085,302.7175s-20.0934-20.8207-35.0151-29.9724c-9.9317-4.8557-13.7371,2.2268-5.405,9.1488s15.6,13.9587,29.0351,26.7726"/><path d="M441.4,301.6259A246.51,246.51,0,0,0,414.1225,277.02c-3.2317-2.4731-6.65-5.2954-10.5283-6.6517-2.9807-1.0426-7.327-1.4283-9.1853,1.7555-1.8217,3.1211.4727,6.9,2.5973,9.1815,2.51,2.6956,5.6457,4.9222,8.3958,7.3763,7.6543,6.8306,15.0076,13.9975,22.43,21.0768,1.4379,1.3715,3.6248-.8085,2.1833-2.1834-6.3957-6.1-12.7505-12.2487-19.2694-18.218-2.4814-2.2722-4.9932-4.5114-7.5541-6.6937-2.3439-1.9974-6.0809-4.4155-6.3241-7.8224-.21-2.94,3.9209-2.1633,5.7237-1.559a20.9728,20.9728,0,0,1,5.0757,2.8458c1.5709,1.0737,3.1083,2.196,4.6221,3.3485a221.1053,221.1053,0,0,1,17.4228,15.02c3.2293,3.0381,6.4247,6.1228,9.5051,9.3128,1.3829,1.4321,3.5648-.7527,2.1833-2.1833Z"/><path class="cls-1" d="M806.9231,487.6376c-1.4677,18.5082-1.9765,23.2367-2.0917,34.0684s-8.0112,12.3466-10.5084,1.5771c-2.3115-17.3513.3925-41.1924.3925-41.1924h0a11.4273,11.4273,0,0,1,10.2681-10.6927l11.9593-1.198a11.4273,11.4273,0,0,0,10.2376-12.4457l-.4238-4.4836,28.7472,2.63-6.1754,32.4213"/><path d="M805.3792,487.6376c-.834,10.5088-1.8634,21.0188-2.056,31.5651-.0474,2.596.1149,5.3574-1.02,7.77a4.1282,4.1282,0,0,1-1.5339,1.8958,1.555,1.555,0,0,1-1.535.0591c-1.8807-.8281-2.7865-3.6158-3.2776-5.4708a28.0213,28.0213,0,0,1-.5831-4.8194c-.1371-1.6691-.2358-3.3413-.3054-5.0145a213.7137,213.7137,0,0,1,1.1069-30.7408,13.8139,13.8139,0,0,1,.7843-3.8423,9.9233,9.9233,0,0,1,5.9188-5.61,18.2958,18.2958,0,0,1,4.1144-.6893l6.0219-.6032c1.2951-.13,2.5921-.2472,3.886-.3893a13.4248,13.4248,0,0,0,7.34-3.0725A12.8631,12.8631,0,0,0,828.52,461.38a21.27,21.27,0,0,0-.03-6.1068l-.1892-2.002c-.1854-1.9612-3.2749-1.98-3.0877,0,.1407,1.4887.2991,2.9767.4222,4.4668a10.0724,10.0724,0,0,1-2.523,7.7482c-2.9759,3.2284-7.0153,3.2552-11.0486,3.6592-3.7267.3733-8.0175.3056-11.47,1.8955a12.8646,12.8646,0,0,0-6.2512,6.3157A16.4142,16.4142,0,0,0,793.12,482.57a215.7885,215.7885,0,0,0-1.1142,31.6373c.15,3.2764.1409,6.8848.9735,10.0707.6756,2.5854,1.8559,5.3636,4.1173,6.9484a4.8427,4.8427,0,0,0,5.4688.1584c2.0468-1.3336,3.0546-3.8618,3.4761-6.17A53.718,53.718,0,0,0,806.46,517q.0879-3.2829.2742-6.5618c.3154-5.5645.7958-11.1194,1.2426-16.6744q.2463-3.063.49-6.1262c.1573-1.9812-2.9313-1.9709-3.0877,0Z"/><path class="cls-1" d="M805.0079,482.0907s-2.7039,23.8411-.3924,41.1924c2.4972,10.7695,10.3932,9.2546,10.5084-1.5771s.6239-15.56,2.0916-34.0684"/><path d="M803.4641,482.0907c-.4787,4.236-.7712,8.4995-.9961,12.7553a168.66,168.66,0,0,0,.2635,25.49c.36,3.6288,1.0683,7.722,3.9237,10.3089a5.0147,5.0147,0,0,0,6.9.2027c2.577-2.2729,3.0712-6.2089,3.1157-9.4307.04-2.8962.1029-5.7912.2374-8.6848.3893-8.3772,1.1878-16.7367,1.8511-25.0949.1572-1.9812-2.9313-1.9709-3.0877,0-.577,7.2693-1.2335,14.5362-1.6747,21.8155q-.2323,3.8334-.3354,7.6729c-.0818,3.1152.28,6.5252-.9039,9.4749a4.3127,4.3127,0,0,1-1.7767,2.3114,1.7,1.7,0,0,1-1.8632-.2342c-2.6233-1.8429-3.06-5.8227-3.335-8.717a168.021,168.021,0,0,1-.2859-23.95c.2242-4.6446.5326-9.2987,1.0549-13.9207.2228-1.9713-2.8668-1.9554-3.0877,0Z"/><path class="cls-1" d="M816.33,482.0907s-2.7039,23.8411-.3924,41.1924c2.4972,10.7695,10.3932,9.2546,10.5084-1.5771s.6239-15.56,2.0916-34.0684"/><path d="M814.7858,482.0907c-.4787,4.236-.7712,8.4995-.9961,12.7553a168.66,168.66,0,0,0,.2635,25.49c.36,3.6288,1.0683,7.722,3.9237,10.3089a5.0147,5.0147,0,0,0,6.9.2027c2.577-2.2729,3.0712-6.2089,3.1157-9.4307.04-2.8962.1029-5.7912.2374-8.6848.3893-8.3772,1.1878-16.7367,1.8511-25.0949.1572-1.9812-2.9313-1.9709-3.0877,0-.577,7.2693-1.2335,14.5362-1.6747,21.8155q-.2323,3.8334-.3354,7.6729c-.0818,3.1152.28,6.5252-.9039,9.4749a4.3127,4.3127,0,0,1-1.7767,2.3114,1.7,1.7,0,0,1-1.8632-.2342c-2.6233-1.8429-3.06-5.8227-3.335-8.717a168.021,168.021,0,0,1-.2859-23.95c.2242-4.6446.5326-9.2987,1.0549-13.9207.2228-1.9713-2.8668-1.9554-3.0877,0Z"/><path class="cls-1" d="M828.6806,482.0907s-2.704,23.8411-.3925,41.1924c2.4972,10.7695,10.3933,9.2546,10.5084-1.5771l.5229-2.9618c1.099-6.2256-.798-12.41,12.0378-12.4978h0A17.7014,17.7014,0,0,0,865.33,489.0021l.9809-43.3937"/><path d="M827.1367,482.0907a189.4986,189.4986,0,0,0-.8859,36.5469c.3154,3.8389.6956,7.8208,3.1449,10.9733,1.5882,2.0441,4.1672,3.2975,6.6542,2.05,2.6438-1.3261,3.7129-4.5681,4.087-7.292.1941-1.4128.2231-2.6761.4712-4.0812.18-1.0177.3512-2.0328.4735-3.06.2388-2.0056.22-4.3243,1.1024-6.0912,1.1459-2.2953,3.9106-2.9661,6.3222-3.2074,1.0763-.1076,2.1988-.016,3.2615-.1944a13.776,13.776,0,0,0,2.5289-.7454,19.3165,19.3165,0,0,0,11.5276-11.781c1.1337-3.2326,1.0592-6.6247,1.1354-9.9955l.3068-13.57c.1925-8.5167.5456-17.0468.5779-25.5658.0006-.1563.0071-.3129.0106-.4692.0449-1.9877-3.0428-1.9872-3.0877,0l-.4708,20.8242q-.2539,11.2387-.5081,22.4776a16.4076,16.4076,0,0,1-9.8778,14.9327,12.2947,12.2947,0,0,1-2.6167.8364c-.8592.1452-1.866.0707-2.7876.1625a16.7549,16.7549,0,0,0-4.8146,1.0786,8.1062,8.1062,0,0,0-4.7248,4.972c-.7246,2.0985-.7109,4.3826-1,6.5625-.12.9068-.3,1.8071-.4593,2.7076-.2387,1.3524-.2259,2.7149-.4491,4.0669a8.523,8.523,0,0,1-1.4339,3.8375,2.1142,2.1142,0,0,1-1.9648,1.0125,3.8459,3.8459,0,0,1-1.9517-1.5,11.6585,11.6585,0,0,1-1.9468-4.8412,85.52,85.52,0,0,1-.8214-12.0419c-.09-4.029-.0344-8.0607.1175-12.0875.1974-5.2332.5414-10.4671,1.0773-15.6771.0289-.2806.0579-.5611.09-.8414.2227-1.9713-2.8668-1.9554-3.0878,0Z"/><path d="M840.2688,523.2254c.1395-3.0909.3809-6.1814.6985-9.2586.238-2.3057.5224-4.6106.9684-6.8864a26.4316,26.4316,0,0,1,.706-2.8921q.0934-.2954.1991-.5862.05-.1352.1031-.2686-.1021.2358.0033-.0012c.0788-.1655.5467-.8871.2682-.5384a1.594,1.594,0,0,0,0-2.1833,1.5534,1.5534,0,0,0-2.1833,0c-1.9341,2.4217-2.2351,6.1784-2.643,9.133-.5053,3.66-.8348,7.3417-1.07,11.0281-.052.8175-.1014,1.6353-.1383,2.4537-.09,1.9866,2.9982,1.9822,3.0877,0Z"/><path d="M722.6659,247.0462l-12.0428,30.3815a11.02,11.02,0,0,1-10.456,6.9571l-.3093-.006-.0094.0086L697.19,265.674c2.5529-2.2684,5.9021-10.5306,5.6115-15.1311-.439-6.95-4.2733-8.35-9.1278-8.0431-1.7677.1117-3.5251,1.4471-5.0263,3.4228-3.4746,4.9418-2.2937,15.9209-2.2937,15.9209l-5.0582-16.5158h0a15.028,15.028,0,0,0-13.686-9.5865l-21.8545-.4707s-7.9367.3718-6.3928-15.5815c-5.1462-14.9241,2.0585-25.7311,17.4972-25.2165,7.7193-10.8071,24.1872-19.041,34.48-3.0877,15.9533-4.6316,24.7019,3.0877,22.6434,15.4386,12.8656-2.0585,18.5264,6.69,13.38,15.9533C729.936,230.4961,724.6591,241.9821,722.6659,247.0462Z"/><path d="M721.1772,246.6357c-3.9638,10-7.8573,20.0308-11.8924,30.0021a10.0962,10.0962,0,0,1-2.7895,3.973,9.4879,9.4879,0,0,1-3.9125,1.9733c-1.1533.28-2.9229-.1128-3.8261.7116l2.58.6812-2.6582-18.7133-.3971,1.5021c2.9015-2.688,4.4951-7.28,5.4237-11.01.9936-3.9906,1.1115-8.9936-1.8337-12.2438-2.3806-2.6271-7.2784-3.42-10.4605-1.9707-4.3932,2.0014-5.9675,6.7964-6.5148,11.211a40.1314,40.1314,0,0,0-.0865,9.0911l3.0326-.4105-3.3543-10.9523c-1.3726-4.4817-2.4315-8.7507-6.1178-12.0312A16.817,16.817,0,0,0,668.155,234.22c-1.1662-.0674-2.3395-.0614-3.5069-.0865l-14.5021-.3124c-1.4118-.03-2.8247-.0466-4.2362-.0912-.1093-.0034-.2212-.0077-.3305-.0063-.3844.0051-.0476,0-.0046.01-.1888-.0429-.3781-.0728-.565-.1258-.112-.0317-.2212-.071-.3319-.1066-.36-.116.1184.0686-.0814-.0291a7.6338,7.6338,0,0,1-.7769-.4385c-.3318-.213-.0145.012-.1918-.1379q-.1827-.1545-.3546-.3209a4.42,4.42,0,0,1-.6961-.815,13.5064,13.5064,0,0,1-1.8509-7.1227c-.0722-2.05.4578-4.2688-.16-6.2216a27.8066,27.8066,0,0,1-1.1609-5.1873,17.6579,17.6579,0,0,1,.9733-8.698c2.2544-5.4995,7.8841-8.094,13.5377-8.47.8632-.0574,1.7217-.0431,2.5855-.0541,1.1643-.0148,1.5458-.5921,2.2063-1.4556a31.1662,31.1662,0,0,1,3.105-3.4574,28.1877,28.1877,0,0,1,7.7453-5.3764c5.5742-2.5693,11.931-2.2619,16.632,1.9244a22.4571,22.4571,0,0,1,3.8156,4.5226,1.5872,1.5872,0,0,0,1.7435.71c5.2983-1.51,11.9128-2.39,16.6917,1.0546,3.941,2.84,4.7764,7.9609,4.0526,12.4849a1.5719,1.5719,0,0,0,1.8991,1.8992c5.4922-.8358,13.1123.6515,13.3113,7.5141a11.239,11.239,0,0,1-.7667,4.2409c-.2709.731-.72,1.3895-.9857,2.1147-.3315.9043.24,1.98.39,2.8989.6045,3.6954-.2665,7.5832-1.3057,11.1187-1.0487,3.5681-2.4941,6.9835-3.8594,10.4362-.7309,1.8483,2.254,2.65,2.9774.8209a108.9152,108.9152,0,0,0,4.1581-11.4925c1.1812-4.361,1.9386-9.1964.5389-13.5978l-.1556,1.19c2.3545-4.33,3.135-9.7991-.0564-13.937-3.5325-4.58-9.7624-5.0915-15.0673-4.2843l1.8991,1.8992c.7175-4.4844.36-9.3088-2.4538-13.0537-2.8183-3.7511-7.3005-5.4371-11.8761-5.67a31.6873,31.6873,0,0,0-10.2126,1.3857l1.7435.71c-3.4635-5.2867-8.5566-9.38-15.079-9.6671-5.6206-.2471-11.0159,2.3079-15.3492,5.7015a34.6339,34.6339,0,0,0-6.7177,7.0534l1.3331-.7647c-5.245-.1456-10.6361.9229-14.7942,4.29a16.81,16.81,0,0,0-5.8669,12.379,26.75,26.75,0,0,0,.9913,8.278,13.8431,13.8431,0,0,1,.5772,2.0667,21.5171,21.5171,0,0,1-.1346,2.6725,28.6249,28.6249,0,0,0,.2,4.4176c.4321,3.3786,1.662,7.1386,4.8235,8.9106a7.2209,7.2209,0,0,0,3.4927.88c3.2218.0617,6.4435.1388,9.6652.2082l10.6873.23c4.3891.0946,8.4087,1.515,11.2683,5.0127,2.0847,2.55,2.731,5.7292,3.6721,8.8021l3.206,10.4682.2174.71c.4852,1.5843,3.2233,1.3929,3.0325-.41a31.1857,31.1857,0,0,1,.8778-12.661,8.6558,8.6558,0,0,1,2.2863-3.6679,5.2579,5.2579,0,0,1,4.2793-1.5021c2.27.0752,4.2769.8957,5.2036,3.0964,1.2134,2.8815.7183,6.09-.1324,8.9853a21.9592,21.9592,0,0,1-3.7352,7.8893c-.636.7532-1.0982,1.22-.9506,2.2774.0662.4742.1347.948.202,1.422l.8413,5.9223,1.59,11.1926c.1746,1.23,1.82,1.3754,2.58.6812l.0093-.0085-1.0916.4522a12.7967,12.7967,0,0,0,12.26-8.1c.6552-1.6156,1.2851-3.242,1.9275-4.8627l7.9634-20.09,2.1459-5.4138C724.887,245.6091,721.902,244.8072,721.1772,246.6357Z"/><path d="M660.3577,273.6692a10.7517,10.7517,0,0,0,1.5241-.5308,10.5147,10.5147,0,0,0,3.2842-2.0192,6.0341,6.0341,0,0,0,1.4162-2.1306,1.5462,1.5462,0,0,0-.1556-1.19,1.5437,1.5437,0,0,0-2.1123-.5538,1.8132,1.8132,0,0,0-.71.9226l-.0222.0542.1556-.3688a3.7939,3.7939,0,0,1-.2692.5163c-.0569.0909-.1212.176-.1812.2647-.0851.126.2766-.3373.1155-.1508-.0319.037-.0626.0751-.0947.112a5.223,5.223,0,0,1-.4124.4214q-.12.11-.2459.2137c-.03.0251-.0617.05-.0922.0745-.1979.1621.3327-.2453.1244-.0973a10.5824,10.5824,0,0,1-1.99,1.109l.3688-.1556a10.6231,10.6231,0,0,1-1.5241.5308,1.5442,1.5442,0,1,0,.8208,2.9774Z"/><path d="M804.5563,377.1636H813.82a1.5439,1.5439,0,0,0,0-3.0878h-9.2632a1.5439,1.5439,0,0,0,0,3.0878Z"/><path d="M555.0539,399.7434l5.3626-6.0913.7584-.8614a1.5439,1.5439,0,0,0-2.1833-2.1834l-5.3626,6.0913-.7584.8615a1.5438,1.5438,0,0,0,2.1833,2.1833Z"/><path class="cls-5" d="M170.6192,378.1761v-.0025a6.9171,6.9171,0,0,0-3.2147-5.8637,23.451,23.451,0,1,1,25.0173-.0618,7.0394,7.0394,0,0,0-3.3128,5.928h0a6.9619,6.9619,0,0,0,6.962,6.962h36.0742a15.5335,15.5335,0,0,0,15.5336-15.5336V333.53a6.9619,6.9619,0,0,1,6.9619-6.962h.0025a6.9174,6.9174,0,0,1,5.8638,3.2147,23.4512,23.4512,0,1,0,.062-25.0172,7.04,7.04,0,0,1-5.9282,3.3127h0a6.962,6.962,0,0,1-6.9619-6.9621V264.93a15.5336,15.5336,0,0,0-15.5336-15.5336H196.071a6.962,6.962,0,0,1-6.962-6.9621h0a7.0394,7.0394,0,0,1,3.3128-5.928,23.45,23.45,0,1,0-25.0173.0619,6.9169,6.9169,0,0,1,3.2147,5.8637v.0024a6.962,6.962,0,0,1-6.9619,6.9621H127.47A15.5336,15.5336,0,0,0,111.9367,264.93v36.0741a6.9619,6.9619,0,0,1-6.962,6.962h0a7.04,7.04,0,0,1-5.9281-3.3127,23.45,23.45,0,1,0,.0619,25.0172,6.9174,6.9174,0,0,1,5.8638-3.2147h.0024a6.962,6.962,0,0,1,6.962,6.9621v36.1868A15.5335,15.5335,0,0,0,127.47,385.1381h36.187A6.9619,6.9619,0,0,0,170.6192,378.1761Z"/><path d="M172.1631,378.1761a8.67,8.67,0,0,0-3.9794-7.1993,23.3655,23.3655,0,0,1-6.2506-5.94,21.9166,21.9166,0,1,1,35.2562.83,22.6411,22.6411,0,0,1-2.8389,3.009c-1.1422,1.0158-2.4628,1.7562-3.6385,2.7192A8.5009,8.5009,0,0,0,196.39,386.682c2.077.0112,4.1544,0,6.2314,0h21.9613c6.0372,0,12.2643.5994,17.4631-3.1692a17.2789,17.2789,0,0,0,7.1732-13.5566c.0354-1.5078.0039-3.02.0039-4.5275V335.2911c0-2.52.2135-4.9925,2.6835-6.4391a5.4729,5.4729,0,0,1,7.06,1.4,34.2051,34.2051,0,0,0,5.63,6.4445,24.9776,24.9776,0,1,0-1.9776-36.9616,25.9548,25.9548,0,0,0-2.7811,3.3508,7.5007,7.5007,0,0,1-3.0844,3.0212,5.4724,5.4724,0,0,1-6.4368-1.71c-1.3452-1.7683-1.0944-3.9742-1.0944-6.0534V268.1375a38.0864,38.0864,0,0,0-.2422-6.0367,17.1261,17.1261,0,0,0-8.8881-12.2888,19.1935,19.1935,0,0,0-9.077-1.96c-11.6233,0-23.2667.2136-34.8878,0a5.4557,5.4557,0,0,1-2.9265-10.0131,26.0612,26.0612,0,0,0,10.4836-13.5519,24.9962,24.9962,0,1,0-46.103,3.74,24.8087,24.8087,0,0,0,5.2654,6.9759,26.1714,26.1714,0,0,0,3.1659,2.5,6.2472,6.2472,0,0,1,2.77,3.16,5.47,5.47,0,0,1-2.391,6.45,6.1686,6.1686,0,0,1-3.225.74c-5.8676.0171-11.7355,0-17.6031,0q-8.817,0-17.634,0a17.5832,17.5832,0,0,0-10.935,3.6059,17.2449,17.2449,0,0,0-6.6019,13.4739c-.1151,11.5093,0,23.0253,0,34.5353,0,.5049.0105,1.0112,0,1.516a5.5117,5.5117,0,0,1-3.2624,5.0024c-2.7039,1.17-5.398-.1013-6.9471-2.4155a25.8449,25.8449,0,0,0-5.619-6.0892,24.9769,24.9769,0,1,0,2.9794,36.7469c1.89-2.0428,3.1291-5.2592,6.01-6.0408a5.4667,5.4667,0,0,1,6.1,2.4959c1.0025,1.7116.74,3.8827.74,5.7948v30.2115a31.9454,31.9454,0,0,0,.3622,6.4147,17.1208,17.1208,0,0,0,9.36,11.9108c5.01,2.3445,10.98,1.6672,16.37,1.6672h21.9773c1.6942,0,3.391.0276,5.085,0a8.6413,8.6413,0,0,0,8.6154-8.5059c.0487-1.9877-3.039-1.9868-3.0878,0a5.4867,5.4867,0,0,1-4.4666,5.34,10.357,10.357,0,0,1-1.8093.078H133.7919c-2.0182,0-4.0363.0054-6.0544,0a14.0042,14.0042,0,0,1-14.2569-14.4183q-.0048-3.2429,0-6.4858V334.0435c0-3.5986-1.6717-6.9135-5.0927-8.4055a8.5459,8.5459,0,0,0-8.0117.6179c-2.3667,1.5551-3.555,4.3207-5.5181,6.3149a21.9012,21.9012,0,1,1-6.4926-35.289,22.3762,22.3762,0,0,1,6.6987,4.781c2.0223,2.1064,3.24,5.0224,5.9087,6.4333a8.5761,8.5761,0,0,0,12.3194-5.72,27.1168,27.1168,0,0,0,.1883-5.3033V267.4423a22.794,22.794,0,0,1,.5307-6.3392,14.1166,14.1166,0,0,1,10.449-9.84,27.0167,27.0167,0,0,1,5.9253-.3227h30.0638a22.3068,22.3068,0,0,0,5.3075-.2615,8.597,8.597,0,0,0,5.0621-12.8429c-1.55-2.3746-4.3221-3.5563-6.3149-5.518a21.8944,21.8944,0,1,1,30.2463.4535c-2.0635,1.9215-4.8041,3.075-6.1716,5.6612a8.6057,8.6057,0,0,0-.0107,8.01c1.6751,3.1952,4.9365,4.4982,8.3657,4.4982H215.23c5.5641,0,11.1287-.0185,16.6928,0A14.2469,14.2469,0,0,1,242.6,255.63a14.4163,14.4163,0,0,1,3.5352,9.8559c0,11.7133-.0332,23.4271,0,35.14a8.7393,8.7393,0,0,0,5.77,8.5433,8.5064,8.5064,0,0,0,7.9852-1.3947,13.6632,13.6632,0,0,0,2.6146-3.131,21.6056,21.6056,0,0,1,2.8126-3.23,21.9085,21.9085,0,1,1,5.2891,35.5262,22.4057,22.4057,0,0,1-6.596-5.0515c-1.9016-2.1193-3.0161-4.7779-5.7278-6.0426a8.58,8.58,0,0,0-12.0719,6.6558,40.19,40.19,0,0,0-.0755,4.8768v29.9771a21.0875,21.0875,0,0,1-.6746,6.5577,14.1236,14.1236,0,0,1-10.9706,9.4927,32.6573,32.6573,0,0,1-5.57.1884H198.86c-1.8463,0-3.8677.23-5.5232-.74a5.45,5.45,0,0,1-2.2552-6.7913,6.8438,6.8438,0,0,1,2.7241-2.8791,25.9956,25.9956,0,0,0,3.39-2.7351A24.9942,24.9942,0,1,0,154.96,350.371a24.9213,24.9213,0,0,0,4.1008,15.9235,25.3018,25.3018,0,0,0,5.4553,5.8579c2.172,1.69,4.5592,2.8721,4.5592,6.0237A1.5448,1.5448,0,0,0,172.1631,378.1761Z"/><path class="cls-5" d="M188.9963,527.5123v.0024a6.9171,6.9171,0,0,0,3.2147,5.8638,23.451,23.451,0,1,1-25.0173.0618,7.04,7.04,0,0,0,3.3128-5.928h0a6.962,6.962,0,0,0-6.962-6.9621H127.47a15.5336,15.5336,0,0,0-15.5336,15.5336v36.0741a6.962,6.962,0,0,1-6.962,6.9621h-.0024a6.9173,6.9173,0,0,1-5.8638-3.2147,23.4512,23.4512,0,1,0-.062,25.0172,7.04,7.04,0,0,1,5.9282-3.3127h0a6.962,6.962,0,0,1,6.962,6.9621v36.1868A15.5336,15.5336,0,0,0,127.47,656.2923h36.0742a6.962,6.962,0,0,1,6.962,6.9621h0a7.04,7.04,0,0,1-3.3128,5.928,23.45,23.45,0,1,0,25.0173-.0619,6.917,6.917,0,0,1-3.2147-5.8637v-.0024a6.962,6.962,0,0,1,6.9619-6.9621h36.1869a15.5336,15.5336,0,0,0,15.5337-15.5336V604.6846a6.9619,6.9619,0,0,1,6.9619-6.9621h0a7.04,7.04,0,0,1,5.9281,3.3127,23.45,23.45,0,1,0-.0619-25.0171,6.9174,6.9174,0,0,1-5.8638,3.2147h-.0025a6.9619,6.9619,0,0,1-6.9619-6.9621V536.0838A15.5336,15.5336,0,0,0,232.1452,520.55h-36.187A6.962,6.962,0,0,0,188.9963,527.5123Z"/><path d="M187.4524,527.5123a8.67,8.67,0,0,0,3.9794,7.1992,23.3689,23.3689,0,0,1,6.2506,5.94,21.9167,21.9167,0,1,1-35.2562-.83,22.6469,22.6469,0,0,1,2.8388-3.009c1.1423-1.0158,2.4629-1.7562,3.6386-2.7192a8.5009,8.5009,0,0,0-5.6778-15.0866c-2.077-.0112-4.1544,0-6.2314,0H135.033c-6.0371,0-12.2643-.6-17.463,3.1692a17.279,17.279,0,0,0-7.1733,13.5566c-.0353,1.5078-.0039,3.0195-.0039,4.5275v30.1376c0,2.5205-.2135,4.9925-2.6835,6.4391a5.4728,5.4728,0,0,1-7.06-1.3995,34.2124,34.2124,0,0,0-5.63-6.4446,24.9776,24.9776,0,1,0,1.9776,36.9617,25.9548,25.9548,0,0,0,2.7811-3.3508,7.5015,7.5015,0,0,1,3.0844-3.0213,5.4725,5.4725,0,0,1,6.4368,1.71c1.3452,1.7683,1.0943,3.9742,1.0943,6.0534v30.2056a38.0864,38.0864,0,0,0,.2423,6.0367,17.1261,17.1261,0,0,0,8.8881,12.2888,19.1935,19.1935,0,0,0,9.077,1.96c11.6232,0,23.2667-.2136,34.8877,0a5.4557,5.4557,0,0,1,2.9266,10.0131,26.0607,26.0607,0,0,0-10.4836,13.5519,24.9962,24.9962,0,1,0,46.103-3.74,24.8072,24.8072,0,0,0-5.2654-6.9759,26.1616,26.1616,0,0,0-3.1659-2.5,6.2478,6.2478,0,0,1-2.77-3.1595,5.47,5.47,0,0,1,2.3911-6.45,6.1686,6.1686,0,0,1,3.225-.74c5.8676-.0171,11.7355,0,17.6031,0q8.8168,0,17.6339,0a17.5835,17.5835,0,0,0,10.9351-3.6059,17.2449,17.2449,0,0,0,6.6019-13.4739c.1151-11.5093,0-23.0253,0-34.5353,0-.5049-.0105-1.0112,0-1.516a5.5117,5.5117,0,0,1,3.2624-5.0024c2.7039-1.17,5.398.1013,6.9471,2.4155a25.8449,25.8449,0,0,0,5.619,6.0892,24.9769,24.9769,0,1,0-2.9794-36.7469c-1.8905,2.0428-3.1292,5.2592-6.01,6.0407a5.4665,5.4665,0,0,1-6.1-2.4958c-1.0025-1.7116-.74-3.8827-.74-5.7948V538.9991a31.9381,31.9381,0,0,0-.3623-6.4147,17.12,17.12,0,0,0-9.36-11.9108c-5.0105-2.3445-10.9806-1.6672-16.37-1.6672H201.1528c-1.6942,0-3.391-.0276-5.085,0a8.6412,8.6412,0,0,0-8.6154,8.5059c-.0487,1.9877,3.039,1.9868,3.0877,0a5.4869,5.4869,0,0,1,4.4667-5.34,10.3473,10.3473,0,0,1,1.8093-.078h29.0075c2.0181,0,4.0363-.0054,6.0544,0a14.0042,14.0042,0,0,1,14.2569,14.4183q.0048,3.2429,0,6.4858v28.6466c0,3.5987,1.6717,6.9136,5.0927,8.4055a8.5456,8.5456,0,0,0,8.0117-.6178c2.3666-1.5551,3.555-4.3208,5.5181-6.3149a21.9011,21.9011,0,1,1,6.4926,35.289,22.3772,22.3772,0,0,1-6.6988-4.781c-2.0222-2.1064-3.24-5.0225-5.9086-6.4333a8.5761,8.5761,0,0,0-12.3194,5.72,27.1168,27.1168,0,0,0-.1883,5.3033v30.03a22.7978,22.7978,0,0,1-.5307,6.3392,14.1166,14.1166,0,0,1-10.449,9.8405,27.0167,27.0167,0,0,1-5.9253.3227H199.1661a22.3079,22.3079,0,0,0-5.3076.2615,8.5968,8.5968,0,0,0-5.062,12.8428c1.55,2.3747,4.3221,3.5564,6.3149,5.5181a21.8945,21.8945,0,1,1-30.2464-.4535c2.0636-1.9216,4.8042-3.0751,6.1717-5.6612a8.606,8.606,0,0,0,.0107-8.01c-1.6751-3.1953-4.9365-4.4982-8.3657-4.4982H144.3859c-5.5642,0-11.1287.0185-16.6928,0a14.2469,14.2469,0,0,1-10.6773-4.69,14.4163,14.4163,0,0,1-3.5352-9.8559c0-11.7133.0332-23.4271,0-35.14a8.7393,8.7393,0,0,0-5.77-8.5433,8.5063,8.5063,0,0,0-7.9852,1.3946,13.6607,13.6607,0,0,0-2.6146,3.1311,21.6106,21.6106,0,0,1-2.8126,3.23,21.9085,21.9085,0,1,1-5.2891-35.5262,22.4082,22.4082,0,0,1,6.596,5.0515c1.9016,2.1193,3.0161,4.7779,5.7278,6.0426a8.58,8.58,0,0,0,12.0719-6.6558,40.19,40.19,0,0,0,.0755-4.8768V538.3329a21.0875,21.0875,0,0,1,.6746-6.5577,14.1236,14.1236,0,0,1,10.9706-9.4927,32.6573,32.6573,0,0,1,5.57-.1884h30.06c1.8463,0,3.8677-.23,5.5233.74a5.45,5.45,0,0,1,2.2552,6.7914,6.8438,6.8438,0,0,1-2.7241,2.8791,25.9949,25.9949,0,0,0-3.39,2.735,24.9942,24.9942,0,1,0,42.2354,20.0781,24.9206,24.9206,0,0,0-4.1007-15.9235,25.3022,25.3022,0,0,0-5.4554-5.8579c-2.172-1.69-4.5592-2.8721-4.5592-6.0237A1.5448,1.5448,0,0,0,187.4524,527.5123Z"/><path class="cls-6" d="M118.6155,462.5473h.0024a6.9171,6.9171,0,0,1,5.8637,3.2148,23.451,23.451,0,1,0,.0619-25.0174,7.04,7.04,0,0,1-5.928,3.3129h0a6.962,6.962,0,0,1-6.9621-6.962V401.0214a15.5336,15.5336,0,0,1,15.5336-15.5336h36.0741a6.962,6.962,0,0,0,6.9621-6.962v-.0024a6.9173,6.9173,0,0,0-3.2147-5.8638,23.4511,23.4511,0,1,1,25.0171-.062,7.04,7.04,0,0,0-3.3127,5.9282h0a6.962,6.962,0,0,0,6.9621,6.962h36.1869a15.5336,15.5336,0,0,1,15.5336,15.5336v36.0742a6.9619,6.9619,0,0,0,6.962,6.962h0a7.04,7.04,0,0,0,5.9281-3.3129,23.45,23.45,0,1,1-.0619,25.0174,6.9172,6.9172,0,0,0-5.8637-3.2148h-.0025a6.9619,6.9619,0,0,0-6.962,6.962v36.1869A15.5336,15.5336,0,0,1,231.8619,521.23H195.7878a6.962,6.962,0,0,0-6.9621,6.962h0a7.04,7.04,0,0,0,3.3127,5.9282,23.45,23.45,0,1,1-25.0172-.062,6.9173,6.9173,0,0,0,3.2147-5.8638v-.0024a6.962,6.962,0,0,0-6.9621-6.962H127.187a15.5335,15.5335,0,0,1-15.5336-15.5335v-36.187A6.962,6.962,0,0,1,118.6155,462.5473Z"/><path d="M118.6155,464.0912c3.2876,0,4.468,2.6125,6.2475,4.8466a24.9926,24.9926,0,0,0,43.9886-10.6991A24.9959,24.9959,0,0,0,125.3771,437.04c-1.7971,2.1164-2.9691,5.0179-6.0451,5.4355a5.4862,5.4862,0,0,1-5.7919-3.4648c-.5976-1.5854-.3428-3.6285-.3428-5.2921V403.6705a23.6355,23.6355,0,0,1,.4849-6.3141,14.1147,14.1147,0,0,1,10.1659-9.9244,25.2409,25.2409,0,0,1,6.1275-.4h30.06a19.945,19.945,0,0,0,5.6465-.35,8.6016,8.6016,0,0,0,4.7406-12.7544A9.7778,9.7778,0,0,0,167.48,371.13a22.5662,22.5662,0,0,1-3.629-2.9777,21.895,21.895,0,1,1,30.5035.7107c-2.062,1.92-4.8058,3.0781-6.1716,5.6612a8.5813,8.5813,0,0,0-.1558,7.7161c1.5909,3.33,4.9035,4.7916,8.4249,4.7916h18.0634c5.6766,0,11.3533-.0137,17.03,0a14.2055,14.2055,0,0,1,14.3066,14.4209q.0263,17.5417,0,35.0837a8.7552,8.7552,0,0,0,5.4615,8.4946,8.4954,8.4954,0,0,0,8.2933-1.2772,13.6942,13.6942,0,0,0,2.6146-3.1311,21.6206,21.6206,0,0,1,2.8126-3.23,21.909,21.909,0,1,1,5.2892,35.5262,22.4062,22.4062,0,0,1-6.5961-5.0515c-2.017-2.2479-3.1426-4.9673-6.0965-6.1982a8.5679,8.5679,0,0,0-11.7031,6.8114,40.0134,40.0134,0,0,0-.0755,4.8562V503.33a21.6452,21.6452,0,0,1-.6255,6.5145A14.1242,14.1242,0,0,1,234.54,519.434a29.351,29.351,0,0,1-5.7553.252H198.719a17.2751,17.2751,0,0,0-5.6675.4531,8.5637,8.5637,0,0,0-3.922,13.3017,13.674,13.674,0,0,0,3.1311,2.6146,22.1291,22.1291,0,0,1,7.801,10.062,21.9163,21.9163,0,1,1-34.773-8.7972c2.1951-1.9093,4.742-3.0153,5.9255-5.8557a8.5608,8.5608,0,0,0-.4956-7.5657c-1.7871-3.0513-4.9229-4.2128-8.2874-4.2128h-29.116c-1.9689,0-3.9378.0065-5.9067,0a14.0012,14.0012,0,0,1-14.2111-14.48q-.0042-3.3127,0-6.6257V470.2087a8.0967,8.0967,0,0,1,.1512-1.9782,5.4851,5.4851,0,0,1,5.267-4.1393c1.9835-.0486,1.991-3.1365,0-3.0877a8.644,8.644,0,0,0-8.506,8.6857c-.0153,1.9188,0,3.8382,0,5.757V497.33c0,5.675-.6741,11.771,2.2765,16.8908a17.2092,17.2092,0,0,0,12.7215,8.4149,44.175,44.175,0,0,0,5.438.138H160.875c2.1,0,4.2332-.2022,5.9748,1.2555a5.4773,5.4773,0,0,1,1.2106,6.8931,8.9541,8.9541,0,0,1-2.93,2.6174,25.62,25.62,0,0,0-3.6036,3.1036,24.9737,24.9737,0,1,0,37.107,1.1153,23.51,23.51,0,0,0-3.0675-3.0362c-1.1225-.9226-2.4793-1.6228-3.5183-2.6282a5.4489,5.4489,0,0,1-.6761-7.0482c1.6085-2.2477,3.98-2.2723,6.4139-2.2723h30.1466c1.6518,0,3.3282.0753,4.9784-.0349a17.2868,17.2868,0,0,0,13.2331-7.6806,17.8991,17.8991,0,0,0,2.7952-10.0614c0-11.74-.07-23.4811,0-35.22.0248-4.1536,4.3416-7.1606,8.1486-4.9536,1.3176.7639,1.9564,2.0414,2.8325,3.2243a25.7131,25.7131,0,0,0,2.8885,3.3092,24.98,24.98,0,1,0,8.311-41.3809,25.6454,25.6454,0,0,0-7.47,4.5077,23.6075,23.6075,0,0,0-2.7622,2.8335c-.9243,1.1229-1.6225,2.4757-2.6282,3.5183-3.5018,3.63-9.2822.8612-9.32-3.92-.0439-5.4945,0-10.9912,0-16.4858V401.8026a18.0827,18.0827,0,0,0-2.6166-9.868,17.2872,17.2872,0,0,0-13.0661-7.9289c-1.6726-.1489-3.3868-.0618-5.063-.0618h-30.282c-2.2583,0-4.4573.111-6.1811-1.7028a5.4419,5.4419,0,0,1-.3-7.0716,16.2059,16.2059,0,0,1,3.1477-2.4833,24.905,24.905,0,0,0,5.2319-34.3644,24.9776,24.9776,0,1,0-38.89,31.2187,24.491,24.491,0,0,0,3.2,2.9615c1.1354.8832,2.56,1.5533,3.448,2.7085a5.4987,5.4987,0,0,1-.1443,6.7912c-1.713,2.0467-4.0421,1.9422-6.4118,1.9422H130.8751a50.8059,50.8059,0,0,0-5.4264.0962,17.2579,17.2579,0,0,0-12.8955,8.1736c-3.109,5.14-2.4437,11.2559-2.4437,17.001v22.1034c0,1.8772-.03,3.757,0,5.634a8.6228,8.6228,0,0,0,8.506,8.6493,8.93,8.93,0,0,0,7.4573-4.3812,21.9117,21.9117,0,1,1,5.0895,29.5876,25.996,25.996,0,0,1-5.555-6.1357,8.5893,8.5893,0,0,0-6.9918-3.6686A1.5448,1.5448,0,0,0,118.6155,464.0912Z"/><path class="cls-5" d="M459.3284,350.7438l-.0021-.0012a6.9178,6.9178,0,0,0-6.6861.1257,23.451,23.451,0,1,1,11.5571-22.1878,7.04,7.04,0,0,0,3.7133,5.6859,6.9618,6.9618,0,0,0,9.398-2.9353l16.744-31.9528a15.5335,15.5335,0,0,0-6.5489-20.9689l-31.9529-16.7441a6.962,6.962,0,0,1-2.9351-9.3981,7.04,7.04,0,0,1,5.6859-3.7131,23.45,23.45,0,1,0-22.1879-11.5571,6.9171,6.9171,0,0,1,.1258,6.6859l-.0011.0022A6.962,6.962,0,0,1,426.84,246.72L394.7876,229.924a15.5336,15.5336,0,0,0-20.969,6.5489l-17.9323,34.22a6.9582,6.9582,0,0,0,3.6716,7.0211h0a7.04,7.04,0,0,0,6.7885-.1826,23.45,23.45,0,1,1-11.6668,22.13,6.9173,6.9173,0,0,0-3.7018-5.5692l-.0021-.0011a6.958,6.958,0,0,0-7.8627.9769l-17.88,34.12a15.5336,15.5336,0,0,0,6.5489,20.969l31.9528,16.744A6.962,6.962,0,0,1,366.67,376.3a7.04,7.04,0,0,1-5.6858,3.7131A23.45,23.45,0,1,0,383.1721,391.57a6.9173,6.9173,0,0,1-.1258-6.686l.0011-.0021a6.962,6.962,0,0,1,9.3981-2.9353l32.0527,16.7964a15.5336,15.5336,0,0,0,20.969-6.5489l16.7963-32.0526A6.9618,6.9618,0,0,0,459.3284,350.7438Z"/><path d="M460.1076,349.4107c-3.07-1.6087-6.0536-1.0352-8.9625.5247a21.805,21.805,0,0,1-8.9844,2.5465,21.911,21.911,0,1,1,19.6152-28.2681c.7922,2.6125.6038,5.5189,1.8656,7.9649a8.5365,8.5365,0,0,0,6.8414,4.4975c3.7472.318,6.8122-1.8962,8.4853-5.089l3.1838-6.0756,10.1935-19.4523q1.4461-2.76,2.8923-5.5194a17.593,17.593,0,0,0,1.7437-11.89,17.2137,17.2137,0,0,0-8.7167-11.4827c-1.4225-.7626-2.86-1.4986-4.2893-2.2477l-19.23-10.077-7.149-3.7463c-.4157-.2179-.837-.4275-1.2481-.654a5.5219,5.5219,0,0,1-2.9778-5.1745c.1678-2.9352,2.5268-4.7929,5.286-5.1016a26.79,26.79,0,0,0,7.9626-2.0966A24.8887,24.8887,0,0,0,478.773,236.36a24.9911,24.9911,0,1,0-45.28-1.0427c.5912,1.36,1.5758,2.646,1.8854,4.1022a5.4322,5.4322,0,0,1-7.4473,6.1215c-1.3183-.565-2.5769-1.3408-3.8452-2.0054L405.1438,233.61,397.436,229.57a23.3827,23.3827,0,0,0-6.7566-2.6791,17.3213,17.3213,0,0,0-14.6308,4.19,21.3626,21.3626,0,0,0-4.3851,6.1814c-5.6309,10.7455-11.3682,21.4418-16.8951,32.241-1.8206,3.5575,1.1433,8.211,4.3923,9.7295a8.4994,8.4994,0,0,0,4.8362.7061,15.4237,15.4237,0,0,0,4.554-1.83,21.7788,21.7788,0,0,1,8.9283-2.164,21.91,21.91,0,1,1-20.4889,27.89c-.7394-2.6145-.502-5.5358-1.9246-7.9191a8.6266,8.6266,0,0,0-7.0893-4.1591c-2.07-.0651-5.0045.751-6.221,2.5795a14.6359,14.6359,0,0,0-.6939,1.3242L332.147,312.672l-8.0035,15.2733a17.7557,17.7557,0,0,0-2.0563,10.7817,17.16,17.16,0,0,0,8.606,12.5974c10.0275,5.5606,20.3363,10.6611,30.4925,15.9832,2.1273,1.1147,4.226,2.207,4.6708,4.8816a5.4519,5.4519,0,0,1-3.8741,6.0775c-1.2459.3574-2.6009.3521-3.8747.5959a23.6047,23.6047,0,0,0-4.0879,1.1729,24.9865,24.9865,0,1,0,32.3823,14.822c-1.0582-2.87-3.5265-5.6082-2.209-8.8038a5.4978,5.4978,0,0,1,5.68-3.3287c1.659.2037,3.3173,1.3538,4.7679,2.114l8.4774,4.4424,18.2669,9.5723a29.1672,29.1672,0,0,0,5.9075,2.6314,17.2216,17.2216,0,0,0,14.9237-3.05c4.3079-3.3529,6.5-9.1183,8.9726-13.8363l9.9963-19.0762c.7886-1.5048,1.6043-2.9987,2.3669-4.5168a8.64,8.64,0,0,0-3.4448-11.5947c-1.7385-.9661-3.2975,1.7-1.5584,2.6661a5.4905,5.4905,0,0,1,2.74,6.3866,9.3353,9.3353,0,0,1-.7567,1.6591l-3.2883,6.275-10.085,19.2453q-1.4263,2.722-2.8528,5.4441a14.0077,14.0077,0,0,1-19.3571,6.1514q-2.7252-1.4205-5.4441-2.8529L400.26,384.3l-6.275-3.2883c-2.9536-1.5477-6.2665-1.9935-9.2434-.1342a8.6306,8.6306,0,0,0-4.03,6.9621c-.1363,3.3013,2.1653,5.96,3.107,8.9984A21.9052,21.9052,0,1,1,351.0878,384.94,22.4135,22.4135,0,0,1,358.58,381.91c1.2817-.2655,2.6075-.2773,3.8785-.5756a8.7285,8.7285,0,0,0,3.7786-1.9941,8.58,8.58,0,0,0-1.4194-13.602c-1.293-.7663-2.6723-1.41-4.0026-2.1071l-18.6328-9.764-7.7417-4.0568a20.3132,20.3132,0,0,1-5.6408-3.8206,14.1043,14.1043,0,0,1-3.1412-13.8366,30.7862,30.7862,0,0,1,2.3186-4.8775l9.3666-17.8745,4.729-9.0244,1.5535-2.9645a7.22,7.22,0,0,1,.7717-1.4727c1.2347-1.35,4.1574-1.3455,5.7983-.5143a5.4444,5.4444,0,0,1,2.3727,2.3506,12.9394,12.9394,0,0,1,.8306,4.0811,24.93,24.93,0,0,0,7.8942,14.5311,25.0135,25.0135,0,1,0,6.7974-41.4464,24.7414,24.7414,0,0,1-4.1006,1.8755,5.3729,5.3729,0,0,1-6.4044-3.7791c-.1669-.5906-.04-1.2651-.1988-1.82-.1309-.458-.3022.3757-.1329.1876a7.0791,7.0791,0,0,0,.7352-1.403l8.8906-16.9661,7.964-15.1978a14.747,14.747,0,0,1,7.2-7.016,14.1731,14.1731,0,0,1,12.09.5012c10.29,5.2994,20.5064,10.7458,30.7584,16.1181,2.6774,1.403,5.46,2.19,8.4222.9608a8.4947,8.4947,0,0,0,4.938-10.1991,44.1865,44.1865,0,0,0-2.0963-4.4525,21.9606,21.9606,0,1,1,26.2711,12.5825c-2.6164.7507-5.5327.5492-7.9325,1.9336a8.5667,8.5667,0,0,0-1.1809,13.84,25.3324,25.3324,0,0,0,4.4479,2.5588l8.2989,4.3488,18.1929,9.5335a26.8987,26.8987,0,0,1,5.012,2.9753,14.1189,14.1189,0,0,1,4.7107,13.684,23.2065,23.2065,0,0,1-2.4238,5.7173l-4.091,7.8069-9.7749,18.6536a27.5819,27.5819,0,0,1-2.2562,4.1429,5.4943,5.4943,0,0,1-6.43,1.6589c-3.07-1.3179-3.0926-4.2078-3.5894-7.0335a25.0287,25.0287,0,1,0-15.2974,27.649c2.7663-1.1189,5.356-3.3389,8.4345-1.7257C460.3076,352.9983,461.87,350.3343,460.1076,349.4107Z"/><path class="cls-1" d="M474.8622,337.676l-1.5655-1.0183a24.2759,24.2759,0,0,1-10.6622-16.0895l-1.0586-5.9386a34.8348,34.8348,0,0,0-5.745-13.8472l-4.6392-6.6356a6.6529,6.6529,0,0,0-10.255-.792h0a6.6527,6.6527,0,0,0-1.3745,7.0752l4.0555,10.137s-8.1255,12.77-8.8563,26.8239"/><path d="M475.6414,336.343a28.3532,28.3532,0,0,1-6.8175-5.77,23.115,23.115,0,0,1-4.7007-10.4153c-1.0423-5.6354-1.9193-11.1089-4.6089-16.2766a58.1725,58.1725,0,0,0-4.1072-6.3909c-1.1237-1.6073-2.1694-3.33-3.43-4.8366a8.1891,8.1891,0,0,0-14.3067,6.7011,30.353,30.353,0,0,0,2.2006,5.9794l2.2577,5.6433.1556-1.19A58.3714,58.3714,0,0,0,438,318.2346a57.5655,57.5655,0,0,0-4.7828,19.1563c-.1139,1.9852,2.9742,1.9787,3.0877,0,.4988-8.6933,3.6141-17.3007,7.9193-24.8234a4.68,4.68,0,0,0,.937-2,7.0513,7.0513,0,0,0-.7956-2.2611l-3.1094-7.7722a5.8058,5.8058,0,0,1-.2516-4.518,5.152,5.152,0,0,1,4.4741-3.1613c3.2717-.1426,4.7262,2.5675,6.3453,4.8833a66.0861,66.0861,0,0,1,5.3176,8.2781,42.2257,42.2257,0,0,1,3.41,11.6332c.7344,4.12,1.5621,8.0767,3.7226,11.7442a29.3675,29.3675,0,0,0,9.8082,9.6159c1.6706,1.0867,3.22-1.5854,1.5584-2.6661Z"/><path d="M655.8729,453.2707l.9516,22.8612.6193,14.88c.1312,3.1513-.0076,6.5692.9976,9.587,1.0829,3.2509,3.208,5.5987,5.5289,7.9863l4.8317,4.9705c1.3876,1.4274,3.57-.7571,2.1834-2.1834l-4.0157-4.131a27.0508,27.0508,0,0,1-4.6661-5.464c-1.7226-3.1224-1.598-6.5847-1.7411-10.0232l-1.2386-29.7572-.3632-8.726c-.0824-1.98-3.1706-1.99-3.0878,0Z"/><path d="M700.3452,479.5735a8.5875,8.5875,0,0,0,2.3145,5.499c3.787,4.2412,10.3933,4.4619,15.6207,4.0215l-.772-.7719c-.9264,8.7117-1.3822,17.4762-1.7946,26.2246-.5432,11.52-.91,23.0488-1.213,34.5777q-.4716,17.9671-.7379,35.939c-.09,5.717-.3385,11.4654-.1762,17.1816a74.9532,74.9532,0,0,0,2.3275,16.5221,75.842,75.842,0,0,0,33.2122,45.0265l28.9165,18.2912,27.9385,17.6726.477.3017c.8421.5327,1.6176-.8027.7792-1.3331L783.75,683.869l-31.9846-20.232a88.4144,88.4144,0,0,1-13.77-10.3253,73.23,73.23,0,0,1-22.3151-43.9191,119.51,119.51,0,0,1-.4866-16.7538q.2487-17.7265.6506-35.45c.4956-21.21.9339-42.497,2.7143-63.6467q.22-2.6123.4932-5.22a.7738.7738,0,0,0-.7719-.772c-4.8183.4059-11.0186.3622-14.5291-3.5692a7.2832,7.2832,0,0,1-1.8622-4.4074.7724.7724,0,0,0-1.5439,0Z"/><path d="M654.08,722.3893l.4507-5.3107,1.2332-14.5336,1.8168-21.41,2.216-26.1146,2.4378-28.7286,2.45-28.8752,2.2848-26.9251,1.9313-22.76,1.39-16.3794c.22-2.5911.5437-5.197.6615-7.7953.005-.1106.0188-.2215.0281-.3318.084-.99-1.46-.9844-1.5438,0l-.4507,5.3107L667.7522,543.07l-1.8167,21.41L663.72,590.594l-2.4378,28.7286-2.45,28.8752-2.2848,26.9251-1.9313,22.76-1.39,16.3794c-.22,2.5911-.5437,5.197-.6615,7.7954-.005.1105-.0188.2214-.0281.3317-.084.99,1.46.9844,1.5438,0Z"/><path d="M218.6521,657.8362c3.7763,0,7.63-.2948,11.2669.916a17.6054,17.6054,0,0,1,11.1294,11.4547c1.2472,4.0964.7652,8.858.7652,13.0944v46.5948c0,4.3085-.1683,8.6552,0,12.9614.0026.0674,0,.1354,0,.2028a1.5448,1.5448,0,0,0,3.0877,0V684.2452c0-4.2549.4148-8.8693-.4254-13.0706a20.5578,20.5578,0,0,0-18.2627-16.3313c-1.8881-.1875-3.8182-.0948-5.7127-.0948h-1.8484a1.5448,1.5448,0,0,0,0,3.0877Z"/><path d="M136.3159,654.7485c-3.9948,0-8.072-.2714-11.9294.9751a20.7254,20.7254,0,0,0-12.5471,11.2722c-2.1167,4.8463-1.7727,9.9472-1.7727,15.0877v47.2007c0,4.512-.1763,9.0638,0,13.5733.0027.0674,0,.1354,0,.2028a1.5448,1.5448,0,0,0,3.0878,0V685.5045c0-3.7213-.1756-7.49.0282-11.2084a17.5774,17.5774,0,0,1,8.0835-13.73,17.3757,17.3757,0,0,1,7.8313-2.666c1.7784-.1444,3.5877-.0639,5.37-.0639h1.8484a1.5448,1.5448,0,0,0,0-3.0877Z"/><path d="M110.2241,498.4571c0,3.7763.2949,7.63-.9159,11.2669a17.6056,17.6056,0,0,1-11.4548,11.1294c-4.0963,1.2472-8.8579.7652-13.0944.7652H38.1643c-4.3086,0-8.6553-.1683-12.9614,0-.0674.0026-.1354,0-.2029,0a1.5448,1.5448,0,0,0,0,3.0877H83.8152c4.2549,0,8.8692.4148,13.0706-.4254a20.5582,20.5582,0,0,0,16.3313-18.2627c.1874-1.8881.0948-3.8182.0948-5.7127v-1.8484a1.5448,1.5448,0,0,0-3.0878,0Z"/><path d="M113.3119,409.9454c0-3.9948.2713-8.072-.9751-11.9294a20.726,20.726,0,0,0-11.2722-12.5471c-4.8464-2.1167-9.9472-1.7727-15.0877-1.7727H38.7761c-4.5119,0-9.0638-.1762-13.5732,0-.0674.0027-.1354,0-.2029,0a1.5448,1.5448,0,0,0,0,3.0878H82.5558c3.7213,0,7.49-.1755,11.2084.0282a17.5771,17.5771,0,0,1,13.73,8.0836,17.3741,17.3741,0,0,1,2.666,7.8312c.1444,1.7785.0639,3.5877.0639,5.37v1.8484a1.5448,1.5448,0,0,0,3.0878,0Z"/><path d="M113.3119,547.8643c0-3.9948.2713-8.072-.9751-11.9294a20.726,20.726,0,0,0-11.2722-12.5471c-4.8464-2.1167-9.9472-1.7727-15.0877-1.7727H38.7761c-4.5119,0-9.0638-.1763-13.5732,0-.0674.0027-.1354,0-.2029,0a1.5448,1.5448,0,0,0,0,3.0878H82.5558c3.7213,0,7.49-.1756,11.2084.0282a17.5771,17.5771,0,0,1,13.73,8.0836,17.3737,17.3737,0,0,1,2.666,7.8312c.1444,1.7785.0639,3.5877.0639,5.37v1.8484a1.5448,1.5448,0,0,0,3.0878,0Z"/><path d="M110.2241,632.259c0,3.7763.2949,7.63-.9159,11.2669a17.6056,17.6056,0,0,1-11.4548,11.1294c-4.0963,1.2472-8.8579.7652-13.0944.7652H38.1643c-4.3086,0-8.6553-.1683-12.9614,0-.0674.0026-.1354,0-.2029,0a1.5448,1.5448,0,0,0,0,3.0877H83.8152c4.2549,0,8.8692.4148,13.0706-.4254A20.5582,20.5582,0,0,0,113.2171,639.82c.1874-1.8881.0948-3.8182.0948-5.7127V632.259a1.5448,1.5448,0,0,0-3.0878,0Z"/><path d="M113.3119,681.6663c0-3.9949.2713-8.0721-.9751-11.9295A20.726,20.726,0,0,0,101.0646,657.19c-4.8464-2.1167-9.9472-1.7726-15.0877-1.7726H38.7761c-4.5119,0-9.0638-.1763-13.5732,0-.0674.0026-.1354,0-.2029,0a1.5448,1.5448,0,0,0,0,3.0877H82.5558c3.7213,0,7.49-.1755,11.2084.0282a17.5773,17.5773,0,0,1,13.73,8.0836,17.3741,17.3741,0,0,1,2.666,7.8312c.1444,1.7785.0639,3.5877.0639,5.37v1.8485a1.5448,1.5448,0,0,0,3.0878,0Z"/><path d="M110.2241,360.5382c0,3.7763.2949,7.63-.9159,11.2669a17.6056,17.6056,0,0,1-11.4548,11.1294c-4.0963,1.2472-8.8579.7652-13.0944.7652H38.1643c-4.3086,0-8.6553-.1683-12.9614,0-.0674.0026-.1354,0-.2029,0a1.5448,1.5448,0,0,0,0,3.0877H83.8152c4.2549,0,8.8692.4148,13.0706-.4254a20.5582,20.5582,0,0,0,16.3313-18.2627c.1874-1.8881.0948-3.8182.0948-5.7127v-1.8484a1.5448,1.5448,0,0,0-3.0878,0Z"/><path d="M113.3119,272.0266c0-3.9949.2713-8.0721-.9751-11.9295A20.726,20.726,0,0,0,101.0646,247.55c-4.8464-2.1167-9.9472-1.7726-15.0877-1.7726H38.7761c-4.5119,0-9.0638-.1763-13.5732,0-.0674.0026-.1354,0-.2029,0a1.5448,1.5448,0,0,0,0,3.0877H82.5558c3.7213,0,7.49-.1755,11.2084.0282a17.5773,17.5773,0,0,1,13.73,8.0836,17.3741,17.3741,0,0,1,2.666,7.8312c.1444,1.7785.0639,3.5877.0639,5.37v1.8485a1.5448,1.5448,0,0,0,3.0878,0Z"/></svg>