<svg id="Layer_1" data-name="Layer 1" xmlns="http://www.w3.org/2000/svg" width="1000" height="1000" viewBox="0 0 1000 1000"><defs><style>.cls-1{fill:#ea2f2f;}.cls-2,.cls-4{fill:#1d2b47;}.cls-3{fill:#fff;}.cls-4{stroke:#1d2b47;}.cls-10,.cls-11,.cls-4,.cls-9{stroke-miterlimit:10;}.cls-4,.cls-9{stroke-width:1.2766px;}.cls-5{fill:#fc7f3a;}.cls-6{fill:#fc7272;}.cls-7{fill:#a8542a;}.cls-8{fill:#ffc41f;}.cls-10,.cls-11,.cls-9{stroke:#000;}.cls-10,.cls-11{fill:none;stroke-linecap:round;stroke-width:4.4681px;}.cls-11{stroke-dasharray:25.6527 25.6527;}</style></defs><path d="M553.3676,144.2262s5.1064,28.0852,26.8086,61.2768c14.6809,19.7873,3.83,47.2342,3.83,47.2342l63.1917-31.2767-54.8938-101.49"/><path d="M551.5211,144.7353a90.1861,90.1861,0,0,0,2.35,9.2724,187.1405,187.1405,0,0,0,8.8758,23.6732q3.563,7.9269,7.7842,15.5355,2.3228,4.1913,4.8337,8.2744c1.64,2.6679,3.4907,5.2055,5.1039,7.885,4.875,8.0972,6.0766,17.7348,5.2264,27.0146a58.187,58.187,0,0,1-3.536,15.8378c-.6669,1.6932,1.474,2.8252,2.813,2.1625l21.4737-10.6284,33.9312-16.7943,7.7868-3.854a1.9432,1.9432,0,0,0,.687-2.62l-5.4753-10.1228L630.29,186.1767l-15.8855-29.37L600.7215,131.51c-2.2136-4.0926-4.2658-8.3381-6.6666-12.3255-.0351-.0583-.0651-.12-.0975-.18-1.173-2.1686-4.4808-.2373-3.3069,1.933l5.4752,10.1228,13.0864,24.1945,15.8855,29.37,13.6826,25.297,4.54,8.3938c.6963,1.2874,1.305,2.718,2.1266,3.9317.0377.0557.0654.1209.0975.18l.687-2.62-21.4737,10.6283L590.8263,247.23l-7.7868,3.8541,2.813,2.1625a58.75,58.75,0,0,0,3.2513-13.2922c1.3132-9.357.8048-19.0632-2.9481-27.8341a37.4936,37.4936,0,0,0-3.8637-6.946c-1.8831-2.6567-3.5629-5.4762-5.2275-8.2741q-4.6814-7.8689-8.6681-16.1245a187.07,187.07,0,0,1-10.0847-25.3308,99.1507,99.1507,0,0,1-3.0976-11.7275c-.4421-2.421-4.1337-1.3954-3.693,1.0182Z"/><path d="M645.602,814.1222c-.0343-4.8663-1.7-9.8389-6.7447-11.421-3.5089-1.1-7.4722-.4228-10.9038.6514a24.7986,24.7986,0,0,0-2.6834.9944l1.4065,1.0812c.9429-3.6286-1.1233-7.5571-3.7874-9.8833a17.2374,17.2374,0,0,0-19.9412-2.2836,16.9278,16.9278,0,0,0-4.22,3.2812l1.6.9315a15.2118,15.2118,0,0,0-5.1077-17.9145c-3.3469-2.3836-7.4615-3.5144-11.4694-4.143v1.8465c5.3942-1.5574,10.9494-3.5778,15.3655-7.15,2.5243-2.0422,4.7035-4.88,4.81-8.249.2368-7.5185-8.7475-11.83-14.7129-13.7465a60.1582,60.1582,0,0,0-19.1395-2.5631l.677,1.6345c7.46-6.07,14.9512-12.6012,20.5867-20.466,2.4093-3.3622,5.5237-8.2062,4.3569-12.5865-.9114-3.4212-4.4722-4.6065-7.6632-4.7033-5.1218-.1554-10.2827,1.7021-14.8712,3.7972a78.576,78.576,0,0,0-20.6659,14.21l1.6.9316c3.8948-12.1691,7.3172-24.8593,7.9553-37.6845a44.9534,44.9534,0,0,0-.6478-11.3017,14.6431,14.6431,0,0,0-2.973-6.76c-2.971-3.3908-7.3145-2.2654-10.4483.2329-5.306,4.23-8.5,11.056-10.8887,17.229-4.04,10.4415-6.0018,21.6633-6.9076,32.7852q-.2133,2.6195-.3418,5.2445l1.8807-.2546c-1.522-5.9692-4.2734-12.3344-9.7449-15.6867a11.6423,11.6423,0,0,0-6.59-1.9189c-4.962.3819-9.2645,4.5109-10.453,9.1905-1.8071,7.1157,1.4163,14.8612,4.52,21.1149l.8268-1.4407c-7.1706.4922-16.0915,2.1628-20.0222,8.9735-2.1848,3.7858-2.179,8.3949-1.0247,12.5094a17.88,17.88,0,0,0,1.0711,2.9366l.5722-1.4065a44.32,44.32,0,0,0-8.6721,2.9594c-5.35,2.3727-10.4643,5.7713-13.8789,10.608a20.6246,20.6246,0,0,0-3.6839,10.3347c-.0968,1.2287,1.8186,1.2224,1.9149,0,.904-11.4694,11.9524-18.1826,21.9233-21.2677.9568-.2961,1.9251-.58,2.9058-.7879a.97.97,0,0,0,.5722-1.4065,1.3317,1.3317,0,0,1-.06-.13c-.1255-.3542-.0151-.0189-.1063-.2487-.1919-.4832-.3678-.9719-.5237-1.468a18.7669,18.7669,0,0,1-.8822-4.8062,12.18,12.18,0,0,1,6.1637-11.3694c4.1052-2.4222,9.0489-3.1942,13.731-3.5156a.9709.9709,0,0,0,.8267-1.4407c-3.5119-7.0765-8.7723-20.1729.0288-25.767a10.8327,10.8327,0,0,1,4.4163-1.6794c-.1492.02-.2695.0132-.0376.0155.2878.0028.5721.0051.86.0285a10.9574,10.9574,0,0,1,3.334.9333c5.8688,2.728,8.6638,9.351,10.1666,15.2449a.9621.9621,0,0,0,1.8807-.2545,127.591,127.591,0,0,1,5.7686-33.57c2.1821-6.6107,5.1113-13.6615,10.0463-18.7315a11.5965,11.5965,0,0,1,4.93-3.2938,4.1958,4.1958,0,0,1,3.8062.7082,9.9572,9.9572,0,0,1,2.8993,5.2085,35.4184,35.4184,0,0,1,1.004,9.8425c-.1514,11.5359-2.9993,23.0521-6.2563,34.0512q-.8217,2.7748-1.7075,5.53a.965.965,0,0,0,1.6.9316,79.5738,79.5738,0,0,1,17.5848-12.599c4.4879-2.32,9.4731-4.3709,14.56-4.7882,2.74-.2248,6.4684-.0123,7.6656,2.67,1.4171,3.1747-1.2729,7.652-3.0589,10.3514-5.5215,8.3453-13.5118,15.1474-21.2031,21.406-.6611.538-.1,1.6446.677,1.6345,9.1024-.1178,19.5765,1.099,27.1551,6.6345,2.1948,1.6031,4.3635,3.8877,4.7373,6.7.3756,2.8252-1.2905,5.3174-3.2746,7.1536-4.2014,3.8884-10.0595,5.9035-15.45,7.46-.84.2425-.9809,1.6926,0,1.8465,5.5988.8782,11.9519,2.86,14.8027,8.2133a13.9081,13.9081,0,0,1,1.0322,9.4074,13.137,13.137,0,0,1-.5952,2.0813c-.3554.8946.9893,1.6185,1.6.9315a15.5542,15.5542,0,0,1,9.94-4.9557c5.6284-.4634,13.1884,2.9275,14.6871,8.8457a7.1768,7.1768,0,0,1,.1214,3.1327A.97.97,0,0,0,626.2366,806c.0368-.0164.0739-.0358.1121-.0485-.3473.116.08-.0324.1886-.0744.4185-.1616.8383-.3184,1.2633-.4625a27.4523,27.4523,0,0,1,4.1631-1.0709c3.2353-.5558,7.1232-.4572,9.4846,2.1563,1.8418,2.0384,2.22,4.9865,2.2388,7.6218a.958.958,0,0,0,1.9149,0Z"/><path d="M520.2891,776.5942a39.8983,39.8983,0,0,1,1.9745-5.0518c1.3513-2.9124,3.0224-6.0326,5.5767-8.0706,2.2209-1.772,5.7336-2.0894,7.4034.6449,1.6546,2.7093.6983,6.5946-.1215,9.4178a38.3548,38.3548,0,0,1-2.6632,6.7962c-.3383.659.2447,1.7475,1.0813,1.4065a21.1494,21.1494,0,0,1,6.0761-1.4437,13.3485,13.3485,0,0,1,5.1253.4317c.9857.3072,2.7438.9283,2.97,2.1349.3365,1.7915-2.2189,3.7229-3.4043,4.6662a27.689,27.689,0,0,1-3.5511,2.4037.968.968,0,0,0,0,1.6534,9.953,9.953,0,0,1,2.4993,2.38,5,5,0,0,1,.14,6.253c-.7035,1.0153.9555,1.9737,1.6535.9665,2.8528-4.1166.4843-8.7755-3.3263-11.2527v1.6534c2.6922-1.5282,5.9121-3.6514,7.3641-6.47a3.6276,3.6276,0,0,0-.9183-4.7818c-2.4362-1.9118-5.9009-2.2277-8.8761-1.9228a22.8961,22.8961,0,0,0-6.2617,1.4815l1.0813,1.4065a41.4112,41.4112,0,0,0,2.7174-6.7883c1.0206-3.3426,1.9388-7.5057.3529-10.8214a6.5413,6.5413,0,0,0-8.5622-2.93c-3.3219,1.4881-5.5329,4.9779-7.1563,8.0825a43.0338,43.0338,0,0,0-3.0217,7.2454c-.3625,1.1807,1.4853,1.6855,1.8465.509Z"/><path class="cls-1" d="M29.4249,199.724,86.77,335.7162l57.356-135.9922c14.9345-41.3971-14.6476-85.4979-57.3505-85.4979h0C44.0726,114.2261,14.49,158.3269,29.4249,199.724Z"/><path class="cls-2" d="M27.5784,200.233l5.7053,13.53,13.7006,32.49,16.5729,39.3021L77.88,319.52q3.4746,8.24,6.949,16.4793l.0951.2256a1.9362,1.9362,0,0,0,3.693,0l4.9359-11.703L105.6579,295.82l15.2213-36.09,14.284-33.8677,9.2933-22.0345a66.2828,66.2828,0,0,0-15.3326-74.6844A62.128,62.128,0,0,0,80.96,112.5874a62.8623,62.8623,0,0,0-44.0124,24.93,66.8428,66.8428,0,0,0-9.3693,62.7159c.8243,2.3038,4.5262,1.3107,3.693-1.0181a63.521,63.521,0,0,1,3.0022-50.2255c7.5749-14.8065,20.9644-26.3394,37.0816-30.7811a58.31,58.31,0,0,1,48.5743,8.3691,62.558,62.558,0,0,1,25.4176,40.9773A61.54,61.54,0,0,1,141.489,201.09l-7.99,18.9439-13.4412,31.8692-15.0755,35.7442L92.0691,318.2654l-6.8379,16.2128-.3075.729h3.693l-5.7052-13.53-13.7006-32.49-16.573-39.3022L38.3155,215.92q-3.4744-8.24-6.949-16.4793l-.0951-.2256a1.9785,1.9785,0,0,0-2.3555-1.3374A1.9272,1.9272,0,0,0,27.5784,200.233Z"/><ellipse class="cls-3" cx="86.7756" cy="177.368" rx="33.4844" ry="34.6485"/><path class="cls-2" d="M118.3451,177.368c-.0647,13.2221-8.0054,25.9409-20.5655,30.7a31.2873,31.2873,0,0,1-35.3852-9.8861,33.9023,33.9023,0,0,1-2.6854-37.67c6.6838-11.5,20.1527-18.0265,33.3058-15.2414,13.1243,2.779,22.8875,13.879,24.9605,26.9869a33.8169,33.8169,0,0,1,.37,5.1111c.0121,2.4638,3.8419,2.4689,3.83,0-.0736-15.0417-9.2-29.0212-23.3772-34.3925-13.8854-5.2607-30.0071-.5456-39.2144,10.9989a37.8328,37.8328,0,0,0-3.098,42.3266,35.38,35.38,0,0,0,37.3838,16.8919c14.4936-2.9907,25.6915-15.5231,27.8516-30.0392a40.5938,40.5938,0,0,0,.4542-5.7857C122.187,174.9033,118.3572,174.9,118.3451,177.368Z"/><ellipse class="cls-4" cx="92.5394" cy="371.3592" rx="67.5394" ry="9.1698"/><path class="cls-5" d="M850.4568,916.6644l56.3156-68.8808-9.7053-27.7754h0a37.1424,37.1424,0,0,1,23.8446,4.8115l3.1278,1.844,15.2559-18.66-24.2841-19.9852-54.675-44.9964-61.98,44.0923L844.2467,824.83c12.8859,11.9961,10.0639,31.2256-1.47,60.6238a25.848,25.848,0,0,0,2.8026,24.1825Z"/><path d="M851.8108,918.0185l9.5828-11.721,20.472-25.04,19.55-23.9124,5.5535-6.7926c.3641-.4453.7331-.887,1.0924-1.3362.8471-1.0586.5909-1.8453.2133-2.9258l-9.11-26.0722-.2513-.72-1.3375,2.3556a36.067,36.067,0,0,1,15.9059,1.6378,51.985,51.985,0,0,1,9.591,4.8247,1.9338,1.9338,0,0,0,2.3206-.2994l13.3547-16.3345,1.9011-2.3253a1.9425,1.9425,0,0,0,0-2.708l-16.9373-13.9391-9.52-7.8345L897.0271,770.75l-22.3749-18.414c-4.2537-3.5007-8.4825-7.0344-12.7624-10.5031-.0669-.0542-.133-.1095-.2-.1642a1.9657,1.9657,0,0,0-2.32-.2994l-21.0775,14.9944L804.994,780.0516l-7.6043,5.41c-.9066.6449-1.4213,2.1579-.3875,3.0075l13.7346,11.2877,23.68,19.4614c4.7983,3.9434,10.2879,7.5735,13.3224,13.1551,2.822,5.1908,3.3658,11.2185,2.9671,17.0229-.5435,7.9122-2.7656,15.69-5.2593,23.1808-1.5606,4.6879-3.566,9.2357-5.0744,13.9336a28.0891,28.0891,0,0,0-.8985,13.1,27.4761,27.4761,0,0,0,4.516,11.0849c1.2315,1.787,2.4747,3.5659,3.712,5.3489l1.1011,1.5867c1.3956,2.0111,4.7168.0987,3.3069-1.9329-2.5724-3.7069-5.6993-7.4382-7.4179-11.6393a24.01,24.01,0,0,1-1.5336-12.7352c.7565-4.7588,3.0056-9.2365,4.6109-13.7506a119.6779,119.6779,0,0,0,6.4124-24.6393c.7976-6.1827.7543-12.7208-1.4128-18.6414a26.2473,26.2473,0,0,0-7.4537-11.0511c-1.9174-1.6061-3.8656-3.1769-5.7979-4.7649l-23.0594-18.9513-10.7327-8.8206c-1.8928-1.5556-3.7326-3.3249-5.747-4.7231-.0941-.0653-.18-.1476-.2683-.22l-.3875,3.0075L820.4,773.7738l33.2983-23.6882,7.6043-5.41-2.3205-.2994,10.6151,8.736,22,18.1051,18.5646,15.2782,8.3892,6.9042,18.956,15.6.4346.3576V806.65l-13.3547,16.3344-1.9011,2.3253,2.32-.2994a55.636,55.636,0,0,0-10.9173-5.3479,39.4245,39.4245,0,0,0-17.5307-1.5007,1.9221,1.9221,0,0,0-1.3374,2.3556l8.4994,24.3242,1.2059,3.4511.4924-1.8631-5.5761,6.82-13.4757,16.4823-16.2339,19.8561-14.1042,17.2511c-2.2754,2.7831-4.5769,5.547-6.8272,8.3505-.0324.0405-.0656.08-.0985.12a1.9738,1.9738,0,0,0,0,2.7081A1.9278,1.9278,0,0,0,851.8108,918.0185Z"/><path d="M843.2,822.7229c.065-.1649-.2825.63-.1164.2791.0709-.15.141-.2994.2172-.4467a12.52,12.52,0,0,1,.92-1.5c.0527-.0741.1068-.1472.16-.2206.1788-.245-.0064.02-.1027.1294.1414-.16.2683-.3345.4083-.4965a12.6635,12.6635,0,0,1,.904-.9437q.2551-.24.5239-.4652c.0916-.0767.1942-.1455.28-.2279.0142-.0135-.3477.2528-.1793.1394.0732-.0492.1427-.1061.2144-.1575a11.4029,11.4029,0,0,1,1.3238-.8187q.2065-.1087.4174-.209c.0535-.0254.1077-.0494.1612-.0748.2555-.1211.1214.0578-.0719.0259.0957.0158.366-.1435.4578-.1766q.2064-.0746.4158-.1408.4954-.1574,1.0036-.2695.2638-.0585.53-.1047c.0679-.0118.1359-.0224.2037-.0339.4746-.0806-.4384.0506.0478-.0059a1.963,1.963,0,0,0,1.9149-1.9149c-.042-.9383-.8493-2.0389-1.9149-1.9149a13.9255,13.9255,0,0,0-7.5908,3.2415,14.2461,14.2461,0,0,0-3.2457,4.0369,11.5541,11.5541,0,0,0-.5762,1.2514,1.9217,1.9217,0,0,0,1.3375,2.3555,1.9706,1.9706,0,0,0,2.3555-1.3374Z"/><path d="M850.7375,830.9036c.065-.1649-.2825.63-.1164.2791.0708-.15.141-.2995.2171-.4467a12.5344,12.5344,0,0,1,.92-1.5c.0527-.074.1068-.1471.16-.2205.1787-.2451-.0064.02-.1027.1294.1414-.16.2683-.3346.4083-.4966a12.6811,12.6811,0,0,1,.9039-.9436q.2553-.24.5239-.4652c.0917-.0768.1943-.1455.28-.2279.0142-.0136-.3477.2527-.1793.1394.0732-.0493.1427-.1062.2144-.1575a11.3893,11.3893,0,0,1,1.3238-.8187q.2065-.1089.4174-.209c.0535-.0254.1077-.0495.1612-.0748.2555-.1212.1213.0578-.0719.0258.0957.0158.366-.1434.4578-.1766q.2064-.0744.4157-.1408.4955-.1573,1.0037-.2695.2638-.0583.53-.1047c.0678-.0118.1358-.0223.2037-.0339.4746-.08-.4385.0507.0478-.0059a1.9629,1.9629,0,0,0,1.9149-1.9149c-.042-.9382-.8493-2.0389-1.9149-1.9149a13.9255,13.9255,0,0,0-7.5908,3.2415,14.2462,14.2462,0,0,0-3.2457,4.037,11.5526,11.5526,0,0,0-.5762,1.2513,1.9218,1.9218,0,0,0,1.3375,2.3556,1.9707,1.9707,0,0,0,2.3555-1.3374Z"/><path d="M887.8129,840.3992h0a15.8313,15.8313,0,0,1-2.8983,14.5992l-41.5289,50.7949a25.7167,25.7167,0,0,0,2.1935,3.8425l4.8776,7.0286,56.3156-68.8809-9.7053-27.7753a37.1429,37.1429,0,0,1,23.8446,4.8115l3.1278,1.844,15.2559-18.66L918.95,791.26,890.7111,825.8A15.8312,15.8312,0,0,0,887.8129,840.3992Z"/><path d="M885.9664,840.9082a14.0894,14.0894,0,0,1-2.4344,12.7711c-.5442.6906-1.1139,1.3624-1.67,2.043L872.7,866.9281l-24.7048,30.217-5.9635,7.2941a2.0253,2.0253,0,0,0-.2994,2.3206c1.84,3.883,4.629,7.3521,7.071,10.8711.6345.9143,2.167,1.4156,3.0075.3876l9.5828-11.721,20.472-25.04,19.55-23.9125,5.5535-6.7925c.3641-.4453.7331-.8871,1.0924-1.3362.8471-1.0587.5909-1.8454.2134-2.9258l-9.11-26.0722-.2513-.72-1.8465,2.424a36.3292,36.3292,0,0,1,16.4149,1.5694,51.9944,51.9944,0,0,1,9.591,4.8247,1.9338,1.9338,0,0,0,2.3206-.2994l13.3547-16.3345,1.9011-2.3253a1.9426,1.9426,0,0,0,0-2.7081l-17.8218-14.6668-2.5235-2.0768a1.9416,1.9416,0,0,0-2.7081,0l-12.15,14.86-15.3707,18.8a24.276,24.276,0,0,0-2.6894,3.7627,18.0459,18.0459,0,0,0-1.42,13.5785c.6814,2.3638,4.3781,1.3585,3.693-1.0181a14.5148,14.5148,0,0,1,3.0446-13.5175l5.8091-7.1052,17.4376-21.3283,4.3534-5.3247H917.596l17.8219,14.6668,2.5235,2.0768V806.65l-13.3548,16.3345-1.9011,2.3253,2.32-.2994A56.735,56.735,0,0,0,914.5,819.8a38.9164,38.9164,0,0,0-17.433-1.7062,1.9418,1.9418,0,0,0-1.8465,2.424l8.4994,24.3241,1.2059,3.4512.4925-1.8631-5.5762,6.82-13.4756,16.4824-16.234,19.8561-14.1041,17.2511-4.6257,5.6577a29.544,29.544,0,0,0-2.2015,2.6928,1.3417,1.3417,0,0,1-.0985.12l3.0075.3875c-2.4421-3.519-5.2311-6.9881-7.0711-10.8711l-.2994,2.32,16.6775-20.3987,22.8721-27.9754c.6555-.8016,1.3173-1.5985,1.9665-2.4052a18,18,0,0,0,3.4035-16.4779C888.9484,837.537,885.2508,838.54,885.9664,840.9082Z"/><path d="M854.366,854.2233l8.391-10.2632a27.3519,27.3519,0,0,0,4.5466-7.485,23.45,23.45,0,0,0,1.1838-12.0677c-.9753-6.2144-4.5-11.216-9.2763-15.1208L847.57,799.7691l-9.8982-8.0926a1.9737,1.9737,0,0,0-2.708,0,1.9277,1.9277,0,0,0,0,2.7081l20.0384,16.383c.8772.7173,1.7592,1.4292,2.632,2.1519a19.5935,19.5935,0,0,1,2.8349,27.8186q-4.3971,5.3955-8.8111,10.7771a1.9736,1.9736,0,0,0,0,2.7081,1.9276,1.9276,0,0,0,2.708,0Z"/><path d="M908.3911,802.495q-4.3688-3.5718-8.7375-7.1436c-5.1541-4.2262-7.7516-10.78-6.023-17.3574a63.2539,63.2539,0,0,1,2.4218-6.5886,1.9315,1.9315,0,0,0-1.3375-2.3556,1.9564,1.9564,0,0,0-2.3555,1.3375c-.7294,1.8873-1.5477,3.7622-2.1624,5.691a20.3028,20.3028,0,0,0,6.3929,21.69c1.4091,1.171,2.8373,2.32,4.2557,3.4794l4.8374,3.955a1.9737,1.9737,0,0,0,2.7081,0,1.9278,1.9278,0,0,0,0-2.7081Z"/><path class="cls-5" d="M689.1839,916.571h88.972l15.36-25.0944h0a37.1426,37.1426,0,0,1,11.3677,21.5057l.5521,3.5887h24.1025l.1014-31.45.2285-70.8094-73.3664-20.0755-.1515,59.4c-1.131,17.5691-17.8044,27.5558-47.8646,37.2342A25.8477,25.8477,0,0,0,691.538,908.346Z"/><path d="M689.1839,918.4859h87.144c.5726,0,1.1539.0289,1.7259,0,1.2719-.0644,1.73-.9062,2.3-1.8372l14.4183-23.5556.3979-.65-3.0075.3875a35.164,35.164,0,0,1,8.8865,13.12,53.91,53.91,0,0,1,2.5408,11.1289,1.9218,1.9218,0,0,0,1.8465,1.4059h24.1025a1.9434,1.9434,0,0,0,1.9149-1.9149l.0707-21.9355.04-12.3289.0718-22.2308.0935-28.9776c.0177-5.4984.22-11.0318.0533-16.5285-.0026-.0859.0006-.1723.0008-.2583a1.9508,1.9508,0,0,0-1.4058-1.8465l-24.95-6.8271-39.4155-10.7854-9.0013-2.463a1.9352,1.9352,0,0,0-2.424,1.8465l-.0483,18.9409-.08,31.3174-.0218,8.549a22.1965,22.1965,0,0,1-2.9526,10.6192c-2.85,5.0541-7.3948,8.8945-12.234,11.9732a109.8557,109.8557,0,0,1-21.4508,10.03c-4.4,1.6065-9.0615,2.76-13.3087,4.7391a27.2216,27.2216,0,0,0-9.3224,7.1763,28.4781,28.4781,0,0,0-5.4872,10.2913c-.605,2.0733-1.1887,4.1532-1.7831,6.23l-.5608,1.96c-.6795,2.3738,3.0149,3.3873,3.693,1.0181,1.2614-4.4073,2.185-9.2078,4.4359-13.237a23.8842,23.8842,0,0,1,7.833-8.4014c3.7737-2.44,8.1617-3.4912,12.363-4.9568a134.7908,134.7908,0,0,0,22.86-9.935c5.5115-3.1656,10.711-7.0628,14.5008-12.2225a26.9251,26.9251,0,0,0,5.2426-14.7139c.0731-2.0254.01-4.0653.0155-6.0916l.0776-30.3952.0372-14.5726c.0067-2.63.1836-5.3229.02-7.9489-.0076-.122.0006-.2469.0009-.3692l-2.424,1.8464,24.95,6.8271,39.4155,10.7854,9.0013,2.4631-1.4059-1.8465-.0443,13.7476-.092,28.4914-.0775,24.043-.0351,10.8649-.0792,24.55-.0018.5629,1.9149-1.9149H805.4359l1.8465,1.4058a52.2367,52.2367,0,0,0-2.8318-11.8709,39.4255,39.4255,0,0,0-9.5805-14.0685,1.9409,1.9409,0,0,0-3.0075.3876L778.411,912.4864l-1.9086,3.1181,1.6535-.9484h-78.03c-3.5832,0-7.2052-.1544-10.7861,0-.0517.0022-.1039,0-.1556,0A1.916,1.916,0,0,0,689.1839,918.4859Z"/><path class="cls-1" d="M705.86,385.5714S634.7527,528.369,645.2439,594.8136,790.0656,827.1722,790.0656,827.1722l84.38-85.0072-99.75-123.59L845.7434,452.016l-3.6181-77.9621"/><path d="M704.2066,384.6049c-3.25,6.5284-6.31,13.1553-9.3334,19.7905q-11.0538,24.2607-20.7894,49.0983a645.4012,645.4012,0,0,0-21.1033,62.2131c-5.4115,19.505-9.9365,39.6632-10.63,59.9638a96.4425,96.4425,0,0,0,1.75,23.4166,125.242,125.242,0,0,0,6.3656,20.0641c6.6755,16.7707,15.31,32.7451,24.4,48.3113,10.5414,18.05,21.9159,35.61,33.6633,52.8947q17.096,25.1547,35.2123,49.5959,14.3121,19.4063,29.1023,38.4537,7.5207,9.6914,15.1844,19.2718.3411.4242.6831.8476a1.9319,1.9319,0,0,0,2.7081,0l28.5434-28.7557,45.4557-45.7937L875.8,743.519a1.9691,1.9691,0,0,0,0-2.708l-9.8874-12.25L842.02,698.9585l-28.7715-35.6476L788.366,632.4814,780.12,622.2649c-1.2177-1.5088-2.4061-3.5592-3.8911-4.821a1.6317,1.6317,0,0,1-.18-.2228l.2994,2.3206L789.94,587.68l28.2964-66.3359,24.286-56.9339c1.59-3.7273,3.3825-7.4287,4.79-11.23a8.7838,8.7838,0,0,0,.2279-3.7l-.5323-11.47-2.9006-62.5014-.0675-1.4545c-.1139-2.454-3.9443-2.468-3.83,0l2.592,55.8524.6866,14.7942.2177,4.6906a8.1367,8.1367,0,0,0,.1128,2.4318c.2386.501.5819-1.2436.1562-.5056a12.7348,12.7348,0,0,0-.5828,1.3664l-2.513,5.8912-22.5686,52.9078L789.5967,578.799q-8.15,19.106-16.3,38.2119-.1274.2989-.255.5978a2.05,2.05,0,0,0,.2994,2.3205l9.8874,12.25,23.892,29.6021,28.7714,35.6476,24.8827,30.8295,8.2458,10.2165c1.2157,1.5063,2.4053,3.5648,3.8911,4.821a1.6193,1.6193,0,0,1,.18.2227v-2.708L844.548,769.5666,799.0923,815.36l-10.3807,10.4579H791.42c-3.4915-4.313-6.9237-8.6748-10.3473-13.0417q-13.2375-16.8843-26.0847-34.07-17.436-23.3006-34.1159-47.1555c-12.0024-17.2268-23.665-34.7032-34.6519-52.5974-9.8988-16.1221-19.3685-32.598-27.3-49.79-5.9716-12.9445-11.4342-26.6395-12.5253-40.9852-1.4409-18.9458,2.0743-38.1928,6.4329-56.5535a544.9756,544.9756,0,0,1,19.518-62.8329c6.611-17.8905,13.8534-35.5476,21.5767-52.9858,4.1607-9.3944,8.4382-18.7438,12.9537-27.9738q.3171-.648.6371-1.2946c1.095-2.2-2.2074-4.1419-3.3069-1.933Z"/><path class="cls-1" d="M750.7393,402.7654,746.0765,827.37l95.1189-.5112s8.894-309.3019,12.66-355.72c6.5342-80.5288-55.3809-158.4014-55.3809-158.4014l-58.7236,61.2768"/><path d="M748.8244,402.7654,748.7,414.141l-.34,30.9551-.5,45.5644-.6129,55.8107-.6686,60.8809L745.9,669.0677l-.632,57.548-.5339,48.6232-.3825,34.8312c-.0607,5.5224-.264,11.0649-.1822,16.5876.0035.237-.0052.4748-.0078.712a1.94,1.94,0,0,0,1.9149,1.9149l32.1573-.1728,51.2323-.2753,11.7293-.0631a1.9491,1.9491,0,0,0,1.9149-1.9149q.2083-7.2407.4218-14.4812.5631-19.192,1.1414-38.3836.8194-27.2209,1.6669-54.441.9878-31.7014,2.0215-63.4014,1.0558-32.286,2.184-64.57,1.0191-28.9648,2.1516-57.9256c.5865-14.7407,1.1937-29.4816,1.9522-44.2145.8212-15.95,2.3582-31.758.67-47.7327-3.0687-29.0409-12.9644-57.0516-26.0886-83.0069a300.69,300.69,0,0,0-27.6136-44.9873c-.5883-.7828-1.18-1.5644-1.7888-2.3313a1.9283,1.9283,0,0,0-2.7081,0l-51.34,53.5721-7.3837,7.7047c-1.7055,1.78.9987,4.4918,2.7081,2.7081l51.34-53.5721,7.3837-7.7047h-2.7081c.1968.2478.4163.6223.1885.2386a20.4215,20.4215,0,0,0,1.2729,1.68q2.3831,3.1892,4.6462,6.4659c5.2578,7.57,10.1595,15.3893,14.7375,23.3879,13.6989,23.9351,24.6979,49.7269,30.4547,76.7683a168.885,168.885,0,0,1,3.643,46.88c-.31,4.4342-.6367,8.8646-.8874,13.303-.7527,13.3285-1.318,26.6679-1.8694,40.0059q-1.149,27.7934-2.1228,55.5938-1.1364,31.64-2.1761,63.283-1.0571,31.8918-2.0568,63.7855-.8983,28.5543-1.763,57.11-.6468,21.3315-1.2763,42.6635c-.2016,6.8345-.89,13.8568-.6051,20.6933.0126.3-.0175.6077-.0262.9085l1.9149-1.9149-32.1573.1728-51.2323.2753-11.7293.0631,1.9149,1.9149.1249-11.3756.34-30.9552.5-45.5644.6129-55.8106.6686-60.8809.6777-61.7156.632-57.548.5339-48.6232.3825-34.8312c.0607-5.5224.264-11.0649.1822-16.5876-.0035-.237.0052-.4749.0078-.712.0271-2.4651-3.8027-2.4669-3.83,0Z"/><path d="M758.3843,841.0819c.0827-.0438.1681-.082.2525-.1223.3591-.1714.0457-.0121-.0866.0333.1444-.05.2851-.1127.4289-.1646a16.305,16.305,0,0,1,2.5414-.6365c.2321-.044-.3653.0305.0127.0027.1559-.0115.3111-.03.4671-.04q.4069-.0273.8153-.0277.4723,0,.9437.0373c.1479.0117.2953.027.4427.0434-.4049-.045.1846.0352.2153.0409a11.1085,11.1085,0,0,1,2.0685.59c-.218-.086.1556.0688.2166.0975q.2448.1146.4841.24a13.3321,13.3321,0,0,1,1.1657.7009,1.9283,1.9283,0,0,0,2.62-.687,1.96,1.96,0,0,0-.687-2.62,13.8788,13.8788,0,0,0-13.8338-.7951,1.9306,1.9306,0,0,0-.687,2.62,1.9573,1.9573,0,0,0,2.62.687Z"/><path d="M757.0535,851.5869a7.9682,7.9682,0,0,1,1.035-.2388c.0787-.0139.1576-.026.2364-.0394.3428-.0584-.03.0239-.1622.019a6.47,6.47,0,0,0,.6875-.07,13.1447,13.1447,0,0,1,1.445-.0293q.4212.0147.8407.057c.1494.0151.5137-.0373.0326-.0014a2.0092,2.0092,0,0,1,.4165.0682,11.6082,11.6082,0,0,1,1.88.5058q.2244.0815.4454.1719c-.3961-.162.0554.0323.1395.0727a11.2369,11.2369,0,0,1,1.0463.5732,10.2809,10.2809,0,0,1,.89.6109c-.265-.2054.149.1321.1979.1743.1979.1706.3883.3488.5763.53a1.9149,1.9149,0,0,0,2.7081-2.7081,13.8015,13.8015,0,0,0-8.9206-3.873,12.8826,12.8826,0,0,0-4.5128.4838,1.9154,1.9154,0,1,0,1.0181,3.693Z"/><path d="M755.4908,862.6a7.9682,7.9682,0,0,1,1.035-.2388c.0787-.0139.1576-.026.2364-.0394.3429-.0584-.03.024-.1621.019a6.4443,6.4443,0,0,0,.6874-.07,13.12,13.12,0,0,1,1.445-.0292q.4212.0147.8407.0569c.1494.0152.5137-.0373.0326-.0014a2.0092,2.0092,0,0,1,.4165.0682,11.6082,11.6082,0,0,1,1.88.5058q.2244.0815.4454.172c-.3961-.1621.0554.0322.1395.0726a11.2513,11.2513,0,0,1,1.0464.5732,10.3117,10.3117,0,0,1,.89.6109c-.2651-.2054.1489.1321.1978.1743.1979.1706.3883.3488.5763.53a1.9149,1.9149,0,1,0,2.7081-2.708,13.8011,13.8011,0,0,0-8.9206-3.8731,12.8826,12.8826,0,0,0-4.5128.4838,1.9154,1.9154,0,0,0,1.0181,3.693Z"/><path d="M771.8722,897.2188h0a15.8313,15.8313,0,0,1-13.137,6.9969H693.1245a25.7145,25.7145,0,0,0-1.5865,4.13l-2.3541,8.225h88.972l15.36-25.0944a37.1426,37.1426,0,0,1,11.3677,21.5057l.5521,3.5887h24.1025l.0849-26.3491H785.0092A15.831,15.831,0,0,0,771.8722,897.2188Z"/><path d="M770.2187,896.2523a14.023,14.023,0,0,1-11.4992,6.0485c-.8194.0075-1.6391,0-2.4585,0H693.1245a1.8886,1.8886,0,0,0-1.6535.9484c-1.9185,4.0447-2.9058,8.5229-4.1336,12.8127a1.9341,1.9341,0,0,0,1.8465,2.424H776.328c.5725,0,1.1538.0289,1.7258,0,1.2719-.0644,1.73-.9062,2.3-1.8372l14.4183-23.5556.3979-.65-3.0075.3875a35.5125,35.5125,0,0,1,8.9572,13.3068,54.2864,54.2864,0,0,1,2.47,10.9426,1.9218,1.9218,0,0,0,1.8465,1.4059h24.1025a1.9433,1.9433,0,0,0,1.9149-1.9149l.0744-23.081.01-3.2681a1.9423,1.9423,0,0,0-1.9149-1.9149H785.9386a18.45,18.45,0,0,0-15.72,7.9453c-1.4028,2.0337,1.915,3.9508,3.307,1.9329,2.8673-4.1567,7.4125-6.0484,12.3361-6.0484h43.7615l-1.9149-1.9149-.0743,23.0809-.0106,3.2682,1.9149-1.9149H805.4359l1.8465,1.4058a52.7294,52.7294,0,0,0-2.7571-11.6862,39.7525,39.7525,0,0,0-9.6552-14.2532,1.94,1.94,0,0,0-3.0075.3876L778.411,912.4864l-1.9086,3.1181,1.6535-.9484H692.8177a31.2123,31.2123,0,0,0-3.4782,0,1.3925,1.3925,0,0,1-.1556,0L691.03,917.08c1.1291-3.9448,1.9834-8.1787,3.7475-11.8979l-1.6534.9485h62.709c.9654,0,1.9313.0094,2.8967,0a18.0132,18.0132,0,0,0,14.7955-7.9454C774.9048,896.1344,771.5885,894.2154,770.2187,896.2523Z"/><path d="M740.1905,880.0844h13.2567c7.08,0,13.8315-2.5036,18.5658-7.93,4.1746-4.7848,5.8519-10.5968,5.8519-16.8473V827.37a1.916,1.916,0,0,0-3.83,0v26.049c0,1.0826.0074,2.1654,0,3.2479a19.5718,19.5718,0,0,1-19.8844,19.588c-4.6534.0079-9.3068,0-13.96,0a1.916,1.916,0,0,0,0,3.83Z"/><path d="M814.2518,888.9671q0-5.6691,0-11.3383a16.7936,16.7936,0,0,1,9.41-15.3176,52.2449,52.2449,0,0,1,6.5745-2.289c2.3317-.7639,1.3334-4.4634-1.0182-3.693-1.9625.643-3.9754,1.2061-5.8928,1.9764a20.6988,20.6988,0,0,0-9.3381,7.42,20.3722,20.3722,0,0,0-3.563,11.3084c-.0231,1.8118-.0018,3.6251-.0018,5.4371v6.4958a1.916,1.916,0,0,0,3.83,0Z"/><path class="cls-6" d="M684.3812,215.5766l-16.9354-26.9361c3.1185-4.1345,4.87-8.3126,4.6-12.1495-1.3313-18.904-38.4773-70.243-38.4773-70.243l-64.92,35.5614s19.9709,59.7155,38.4774,70.2431c6.27,3.5672,15.8983,2.8011,25.8358-.502l16.6935,31.0116,22.6171,15.4858"/><path d="M686.0347,214.61l-14.8389-23.6015-2.0966-3.3346v1.933c3.0392-4.0867,5.407-8.9763,4.7522-14.19a37.27,37.27,0,0,0-1.95-7.7542,128.5915,128.5915,0,0,0-8.7695-18.7509,419.0385,419.0385,0,0,0-22.4933-35.9073c-1.7814-2.5906-3.5741-5.1753-5.4168-7.7228a1.9674,1.9674,0,0,0-2.62-.687l-22.0148,12.0591-34.8463,19.0879-8.0589,4.4145a1.9346,1.9346,0,0,0-.88,2.1625c3.1522,9.4192,6.8447,18.6871,10.7973,27.795a230.7749,230.7749,0,0,0,10.9033,22.222c3.57,6.2809,7.5681,12.6845,12.846,17.6894a21.14,21.14,0,0,0,10.9185,5.8331c7.0878,1.2609,14.46-.2454,21.2037-2.461l-2.1625-.88,13.0479,24.2392,2.9022,5.3915a5.4524,5.4524,0,0,0,1.5846,2.1735c3.6363,2.5863,7.37,5.046,11.0514,7.5669l11.4114,7.8133c2.0388,1.3959,3.9565-1.9215,1.933-3.3069L651.37,241.4213c-.174-.1191-.3467-.2629-.5319-.3642-.6232-.3409.4454.3026.469.5365a2.8083,2.8083,0,0,0-.3968-.7373l-2.4811-4.6091-8.1978-15.2292-5.6166-10.434a1.9337,1.9337,0,0,0-2.1625-.88c-5.8434,1.92-12.2408,3.4125-18.4252,2.58a16.3962,16.3962,0,0,1-6.376-2.1452,16.6566,16.6566,0,0,1-2.8565-2.1434c-5.0469-4.4891-8.7733-10.3551-12.155-16.1509-7.5291-12.9038-13.3828-26.81-18.6318-40.7734-1.2174-3.2388-2.415-6.4894-3.5132-9.771l-.88,2.1625L591.63,131.4038l34.8463-19.0879,8.0588-4.4145-2.62-.687c4.95,6.8428,9.6639,13.8673,14.2493,20.9575,4.05,6.2624,7.9768,12.6088,11.6623,19.0933A156.0316,156.0316,0,0,1,667.105,165.77a48.2844,48.2844,0,0,1,2.7424,8.6834c.0593.303.1108.6072.1615.9117.0222.1337.0416.2681.06.4023-.0644-.4767.0028.0516.0084.1179a12.33,12.33,0,0,1-.0441,3.0326,20.6777,20.6777,0,0,1-4.2407,8.7564,1.8691,1.8691,0,0,0,0,1.933l14.8389,23.6015,2.0965,3.3346c1.3087,2.0815,4.6239.1617,3.307-1.933Z"/><path d="M645.1025,202.2484c-.1085.0894-.2195.1757-.3293.2635-.4279.3422.3-.2238-.0905.0707-.1876.1415-.3747.2835-.5636.4233q-1.7406,1.2884-3.5745,2.4447a42.6121,42.6121,0,0,1-10.9075,5.1229c-2.3644.68-1.359,4.3766,1.0181,3.693a48.9155,48.9155,0,0,0,17.1554-9.31,1.9288,1.9288,0,0,0,0-2.7081,1.9581,1.9581,0,0,0-2.7081,0Z"/><path d="M678.4745,123.1623c6.383,15.3192,30.6384,40.8512,50.4257,36.3831,16.7485-3.7819-52.9405,39.2488-54.2555,43.4044L652.6956,166.007c1.9211-4.4654,1.25-17.1372-1.9023-22.8916-4.762-8.6934-10.5493-8.1826-16.6215-4.8564s-6.5009,18.474-1.86,26.9468l-14.7976-25.8s-25.4063,15.9957-42.183,19.0886a18.8737,18.8737,0,0,1-21.88-14.4535,28.7925,28.7925,0,0,1-.5533-5.9234A49.5928,49.5928,0,0,1,590.93,89.895L612.0742,84.74C639.9662,77.9393,667.4325,96.6617,678.4745,123.1623Z"/><path d="M676.628,123.6713a65.0085,65.0085,0,0,0,11.1943,17.16A75.5734,75.5734,0,0,0,705.3911,155.95c6.0171,3.65,13.0972,6.4477,20.253,5.9783a28.2466,28.2466,0,0,0,4.2491-.6375c.1154-.0255.2338-.0359.3493-.06.2925-.0615-.5406.006-.119.0184a3.4658,3.4658,0,0,0,.5747-.0211c.4367-.0682-.5264-.1268-.0935-.0036a1.3069,1.3069,0,0,1-.8277-.6654c.0833.1353-.2062-.5769-.1384-.3263-.1375-.5078-.06-.5816-.0577-.3542-.005-.6084.094-.5437.0361-.331-.0995.3655.2312-.3771.0988-.214a2.898,2.898,0,0,0-.2342.399c-.2938.5356.2533-.2442-.0957.13-.3575.3835-.7005.7741-1.0768,1.1407-1.028,1.0013-2.1313,1.926-3.2438,2.8312-1.6517,1.3439-2.6273,2.0847-4.3433,3.3691q-2.7271,2.0412-5.5,4.02c-8.4114,6.0325-16.9873,11.8315-25.4867,17.7382-3.4789,2.4177-6.9569,4.8412-10.3574,7.3687a33.6688,33.6688,0,0,0-5.78,4.7791,3.8716,3.8716,0,0,0-.799,1.3311l3.5-.4575-7.3968-12.45-11.8116-19.88-2.7407-4.6128.1931,1.4756a19.2044,19.2044,0,0,0,1.1046-6.4269,46.6991,46.6991,0,0,0-.4489-8.427c-.7583-5.517-2.5794-11.3292-7.0483-15-4.371-3.59-9.656-2.8089-14.3757-.36-4.3839,2.2744-5.8313,7.3285-6.3348,11.912a31.4635,31.4635,0,0,0,3.22,17.9581l3.3069-1.933L621.0119,141.654l-1.8439-3.2149a1.9376,1.9376,0,0,0-2.62-.687c-3.8887,2.4462-7.9054,4.7057-11.9509,6.8793a135.5632,135.5632,0,0,1-23.64,10.4639c-3.993,1.2415-8.1751,2.3416-12.3641,1.4866a17.0674,17.0674,0,0,1-10.5944-6.8685c-2.8751-4.1624-3.3494-8.971-3.1447-13.9113a46.7868,46.7868,0,0,1,2.5338-13.2863,48.0146,48.0146,0,0,1,15.3815-21.6578,50.161,50.161,0,0,1,19.7573-9.3817l16.7073-4.0735c1.9543-.4765,3.9064-.991,5.8834-1.365a47.5555,47.5555,0,0,1,13.7943-.5139c19.0522,2.0074,35.5156,15.3519,44.5926,31.7458a66.0106,66.0106,0,0,1,3.1238,6.4016,1.978,1.978,0,0,0,2.3555,1.3375,1.9275,1.9275,0,0,0,1.3375-2.3556C672.4888,104,656.6342,88.1419,636.6964,83.07a52.966,52.966,0,0,0-25.7146-.0346l-16.84,4.1057c-2.0459.4989-4.11.9577-6.13,1.5579a51.9129,51.9129,0,0,0-32.06,27.2833,50.459,50.459,0,0,0-4.2753,13.5443c-.842,5.1918-1.2572,10.9443.1888,16.0614a20.9576,20.9576,0,0,0,22.056,15.0276,53.187,53.187,0,0,0,12.9984-3.5423c4.3774-1.66,8.655-3.5864,12.8539-5.6534,6.0675-2.9868,12.0089-6.2576,17.7783-9.787.31-.19.6207-.38.9287-.5738l-2.62-.687,12.9536,22.5853,1.8439,3.2149c1.2291,2.1431,4.4732.2373,3.3069-1.933a27.7566,27.7566,0,0,1-2.807-14.7582,18.6882,18.6882,0,0,1,1.4241-6.4375,6.6779,6.6779,0,0,1,3.4077-3.58,11.1549,11.1549,0,0,1,6.1915-1.4829,8.291,8.291,0,0,1,5.36,3.57c3.0842,4.0746,3.9716,9.3474,4.244,14.3349a31.6762,31.6762,0,0,1-.24,7.0618c-.2343,1.3555-1.1178,2.8609-.4251,4.1571.7893,1.4771,1.72,2.8947,2.575,4.3341l11.1015,18.685,8.1943,13.792a1.9394,1.9394,0,0,0,3.5-.4574c-.0454.1324-.266.54-.0412.1737.13-.212-.4177.4154.0179-.0008.2985-.2853.5808-.584.8895-.86.4355-.3892.8862-.7614,1.3407-1.1281.2469-.1992.4964-.3951.7454-.5916.1425-.1125.4492-.3483.1179-.0931q.2669-.2055.5348-.4094c3.2178-2.4478,6.5341-4.7671,9.8487-7.081,8.5318-5.9562,17.1561-11.78,25.6343-17.813,3.67-2.6117,7.32-5.2575,10.8594-8.0455,2.1671-1.7071,4.5751-3.4687,6.2005-5.7358,1.5116-2.1084.3919-4.5787-2.3059-4.4719a11.699,11.699,0,0,0-1.8915.2851,21.0855,21.0855,0,0,1-4.6646.4567,28.1836,28.1836,0,0,1-9.697-2.0911c-7.0415-2.737-13.2851-7.5419-18.6623-12.7653a73.6212,73.6212,0,0,1-13.2911-16.9939,40.1234,40.1234,0,0,1-1.8056-3.6409,1.9784,1.9784,0,0,0-2.3556-1.3374A1.9272,1.9272,0,0,0,676.628,123.6713Z"/><path d="M603.08,160.3411a7.5153,7.5153,0,0,1,.43-.6545c.0748-.1047.1681-.2052.2332-.3157-.0644.1093-.3137.3925-.1154.1517.06-.0733.1193-.1478.18-.2208q.3759-.4519.7872-.8729.4864-.4982,1.0177-.95c.1075-.0913.22-.1777.3266-.2695.2657-.2281-.2833.1991.0085-.0069.2316-.1636.4587-.3318.6957-.4877a13.918,13.918,0,0,1,1.52-.8689c.1327-.065.2678-.1247.401-.1885.3314-.1587-.25.0882.0993-.043.3179-.1193.6345-.2384.9587-.34q.5474-.1713,1.1077-.2958.29-.0645.5831-.1168c.0853-.0151.171-.0279.2563-.0427.3009-.0522-.2946.0318.014-.0044a15.855,15.855,0,0,1,2.7358-.0739,1.9149,1.9149,0,0,0,0-3.83,16.2153,16.2153,0,0,0-13.9045,6.5543,8.7685,8.7685,0,0,0-.6417.9422,1.9152,1.9152,0,0,0,3.3069,1.933Z"/><path d="M583.9578,175.615c-.3336.4482-.1883.2274.0582-.0479.3432-.3833.6974-.7531,1.0729-1.1052a17.6217,17.6217,0,0,1,3.7642-2.6581,6.9713,6.9713,0,0,1,7.7426.3447c2.1755,1.67,2.8777,4.6179,3.0832,7.2241a22.7579,22.7579,0,0,1-.1742,5.116c-.1481.9957-.3995,1.9629-.6047,2.946a3.6752,3.6752,0,0,0,.571,2.7341c2.1382,3.6305,6.3087,1.8174,8.9764-.0677,1.997-1.4111.0859-4.7335-1.933-3.3069a8.1211,8.1211,0,0,1-3.17,1.696c-.2751.0378-.3151.069-.5-.0971.1029.0923-.2612-.5735-.3114-.7215V188.69c1.6911-6.6612,2.0972-16.7477-5.0674-20.5054-5.984-3.1384-13.0735.4733-16.8146,5.4979a1.93,1.93,0,0,0,.687,2.62,1.958,1.958,0,0,0,2.62-.687Z"/><path d="M640.971,161.9623c-.1023-.4088-.19-.8216-.2741-1.2344q-.1386-.6773-.2562-1.3588-.0672-.3889-.1277-.7792-.0345-.2233-.0667-.4469c-.03-.2084-.0558-.4765-.0134-.0883a36.0558,36.0558,0,0,1-.2768-3.889c0-.6472.0345-1.29.0952-1.9346.047-.4991-.0537.24.0119-.1041.0251-.1316.0435-.2644.0691-.396a8.9487,8.9487,0,0,1,.2131-.8756c.0472-.1569.1078-.309.1567-.465.0841-.2681-.1945.3532.0416-.0816.0631-.116.1225-.2332.1915-.346.0554-.0906.3377-.4469.1314-.2091-.2118.2443.0756-.0678.1327-.1239.2446-.24.2978-.1337.0143-.0348a1.9412,1.9412,0,0,0,.3145-.19c.3326-.2057-.3884.1212.0936-.028,2.347-.7267,1.3456-4.4249-1.0181-3.693-3.1247.9675-4.0412,4.2547-4.2369,7.1789a32.97,32.97,0,0,0,.7178,8.2777c.117.6156.2414,1.2316.3935,1.84.5976,2.39,4.292,1.3773,3.693-1.0181Z"/><circle cx="592.1843" cy="179.9008" r="2.6001"/><path d="M593.638,179.1349a.8841.8841,0,0,1,.0857.171l-.0469-.1129q.0233.0579.0436.117c.04.1174.0655.2365.0951.3566.0516.2094-.0123-.2285,0-.0141.0036.06.0094.12.0109.18a1.913,1.913,0,0,0-.0158.359l.018-.1362q-.0095.0588-.0215.1173-.0181.0875-.0423.1737t-.054.17l-.0206.0559q-.0568.1431.0271-.0637c-.0314.0084-.1233.2353-.1407.2638-.0314.0515-.0663.1-.0992.1506q-.09.1228.04-.05-.0385.0469-.0792.092a3.2094,3.2094,0,0,1-.2654.2549c-.1366.1206.0452-.0385.0459-.0354a.9764.9764,0,0,1-.1579.1047q-.0817.05-.1672.0943l-.057.0285q-.1421.0654.0555-.02c-.0013.04-.37.117-.4138.1265-.0375.0081-.2138.0123-.0527.0145.1694.0022-.0241.0009-.0532.0029a2.5929,2.5929,0,0,1-.36.0009l-.06-.0047q-.1575-.017.0767.0119a.7261.7261,0,0,0-.1756-.0343,3.5338,3.5338,0,0,1-.3418-.1041c-.199-.068.1937.1039.01.0014-.0522-.0291-.1064-.0544-.1583-.0844s-.1029-.0619-.1527-.0955l-.0495-.0343q-.1228-.09.05.04c.0023-.0052-.2239-.207-.2447-.2292-.0352-.0375-.068-.077-.1023-.1154q-.0962-.1191.0354.0459-.0366-.0513-.0709-.1042c-.0224-.0347-.2067-.3066-.1837-.3353l.047.1129q-.0232-.0581-.0436-.1171-.0252-.0732-.0459-.1478t-.0371-.1489l-.0122-.06q-.0264-.1569.0063.0743a2.7381,2.7381,0,0,0-.0156-.4207.7953.7953,0,0,0,.0141-.179l-.0181.1363q.0095-.059.0216-.1174a2.63,2.63,0,0,1,.077-.2877.7338.7338,0,0,0,.0618-.1678l-.049.1192q.025-.0541.0525-.1073a3.0347,3.0347,0,0,0,.2228-.3559c.0172.0424-.1315.1522-.0362.0521.042-.0442.081-.0909.1241-.1342s.0881-.0857.1344-.1262l.047-.04q.1191-.0961-.0458.0354c-.0059-.0356.2892-.18.3251-.1989l.057-.0286q.1419-.0654-.0555.02a.8793.8793,0,0,1,.176-.0631q.088-.0281.1781-.05.0594-.0144.12-.0259.1568-.0265-.0744.0063a2.7275,2.7275,0,0,0,.4208-.0157c.04.0018.08.0062.1194.0081q.1575.017-.0767-.012.0589.0094.1173.0216a3.29,3.29,0,0,1,.4.1169c.199.0681-.1938-.104-.01-.0015.07.0389.1415.0734.21.1151.0341.0208.0679.0425.1011.0648s.066.0458.0982.07q-.17-.1335-.0521-.0362c.1045.1.2044.1977.3005.3055.1427.16-.11-.18.0006.0057.0436.0729.0911.1428.1329.217a.9576.9576,0,0,0,1.6534-.9665,3.6085,3.6085,0,0,0-3.73-1.7655,3.5447,3.5447,0,0,0-2.8577,2.775,3.5558,3.5558,0,1,0,6.588-1.01.9654.9654,0,0,0-1.31-.3435A.9785.9785,0,0,0,593.638,179.1349Z"/><circle cx="613.4675" cy="168.1569" r="2.6001"/><path d="M614.959,167.4627l.0288.0584q.065.143-.02-.0514c.0205.0066.056.158.0627.18.0228.0742.0348.3161.0839.3649-.0573-.0569-.0169-.2-.0125-.0708.0021.0613.0078.1222.0085.1837s-.0009.122-.0046.1829q-.0036.0607-.01.1212.0337-.231.0085-.0744c-.0218.0988-.041.1972-.07.2942-.0175.0581-.039.1145-.0583.1719-.0679.2011.1035-.1922,0-.0065-.0592.1067-.1137.2138-.1823.3153-.0085.0125-.07.1-.0707.1q.1322-.1686.0345-.05-.04.0466-.0828.0913-.064.0674-.1329.13l-.0466.0414q-.1182.0978.0471-.0316c-.018.0527-.22.1479-.2667.1747-.0565.0323-.1152.06-.1726.09-.1952.1041.201-.0614-.0083.0027a3.7406,3.7406,0,0,1-.3935.108c-.1741.0334-.0189-.0442.04-.0022a.7651.7651,0,0,0-.1837.0129c-.0836.0029-.2965-.0472-.3653-.0133.0991-.0488.1986.0394.0446.0029-.049-.0117-.0988-.02-.1478-.0325q-.0881-.022-.1744-.05-.0575-.0189-.1141-.04-.1435-.0568.0612.0264a1.7073,1.7073,0,0,0-.2676-.1425c-.0521-.0318-.1015-.0671-.1525-.1006-.1776-.1162.1546.1462.0011-.0014-.09-.0863-.1767-.1723-.2627-.2623-.126-.1317.0327.0474.0316.0471-.0429-.0114-.1191-.173-.1421-.2111q-.05-.0833-.0942-.17l-.0288-.0584q-.0649-.143.02.0514c-.04-.0129-.0839-.2508-.0968-.3009-.0155-.0606-.026-.1219-.04-.1828-.0475-.2127.0094.2264.0023.01-.0044-.1333-.0046-.2637-.0018-.3969.0029-.1407.0689-.0754-.01.0433a.7373.7373,0,0,0,.034-.1785,3.4959,3.4959,0,0,1,.1045-.3474c.0644-.1907-.087.1394-.0134.0339a1.4885,1.4885,0,0,0,.0687-.1351q.0438-.08.0931-.1567.0329-.0513.0682-.101.0906-.1231-.0381.048a2.9426,2.9426,0,0,1,.21-.2258c.0127-.0122.126-.13.14-.1242l-.0948.072q.0507-.038.1033-.0733a3.7549,3.7549,0,0,1,.336-.1918c.1892-.101-.1516.05-.0216.0085.07-.0222.1391-.0491.21-.0692q.09-.0254.1823-.0442.0609-.0125.1222-.0219-.2289.0286-.0708.0125c.123-.0041.2434-.0114.3666-.004l.0607.0044q.1579.0164-.0737-.0127a.9878.9878,0,0,0,.2374.048c.0614.0155.2874.1319.3448.1126l-.1176-.0485q.055.0254.1089.0532.108.0558.21.1216c.01.0066.1514.103.15.1042q-.1687-.1322-.0505-.0345l.0461.0408q.0687.0623.1328.1294.0431.045.0838.0921.0978.1181-.0316-.0471c.086.0293.1956.3031.2363.3809a.9649.9649,0,0,0,1.31.3435.9793.9793,0,0,0,.3435-1.31,3.5588,3.5588,0,0,0-6.6108.8623,3.5513,3.5513,0,0,0,5.6543,3.5939,3.5067,3.5067,0,0,0,1.2709-1.9675,3.6964,3.6964,0,0,0-.3144-2.4887.9633.9633,0,0,0-1.31-.3435A.9816.9816,0,0,0,614.959,167.4627Z"/><circle cx="620.3135" cy="192.4148" r="3.7663"/><path d="M622.79,191.0887c.0435.0816.0856.1635.1242.2477-.08-.1755.0335.0943.0384.1086.0587.17.095.3425.1379.5165.0663.2688-.0033-.181.0156.0937.0061.0872.0136.1739.0158.2615a3.7934,3.7934,0,0,1-.0229.52c.025-.2224-.0146.0584-.02.0868q-.0263.1269-.0612.2517t-.0783.2468c-.0083.0236-.1233.2773-.0338.0912-.0627.13-.1284.2585-.2038.3822-.0455.0745-.0951.1457-.1436.2182q-.0981.1338-.01.0148-.0558.0679-.1147.1333a2.4041,2.4041,0,0,1-.6335.5368q-.1186.0726-.2423.1365c-.011.0057-.2856.1307-.1047.0559a3.5244,3.5244,0,0,1-.5994.1833c.008-.0017-.2763.05-.1334.0286s-.1407.0125-.1342.012a3.769,3.769,0,0,1-.5217.0012c-.03-.002-.31-.042-.0894-.0049-.0853-.0144-.17-.03-.2543-.05a4.47,4.47,0,0,1-.4951-.1508c-.2549-.0911.1483.0908-.0884-.0412-.0757-.0422-.1542-.0788-.2294-.1223s-.149-.09-.2211-.1384c-.0161-.0109-.2387-.1855-.0865-.0591a3.9155,3.9155,0,0,1-.3544-.3319c-.0511-.0544-.1-.1106-.1482-.1672q-.1054-.1293-.0158-.02-.0532-.0742-.1027-.1509a3.8577,3.8577,0,0,1-.2661-.4857c.0805.1754-.0335-.0944-.0384-.1086-.0244-.0707-.0464-.1421-.0665-.2141s-.038-.1433-.0537-.2158c-.0053-.0247-.0522-.3124-.024-.0932a3.5559,3.5559,0,0,1-.0226-.6094q.0057-.13.02-.2592c-.025.2225.0146-.0584.02-.0868a3.7986,3.7986,0,0,1,.1115-.4168c.027-.0818.0559-.1637.09-.243-.0818.193.0385-.0661.0485-.0853a3.5476,3.5476,0,0,1,.3226-.5156c-.0989.13-.0059.0105.0147-.0114.0607-.0643.1174-.1316.18-.1945s.1277-.1241.1947-.1827c.0113-.01.2428-.1821.0887-.074a4.09,4.09,0,0,1,.4709-.2881c.0111-.0058.2856-.1307.1048-.056.0833-.0344.169-.064.2549-.0914s.1711-.0511.2579-.0721c.0379-.0091.3961-.0716.18-.0437a3.547,3.547,0,0,1,.61-.0226c.0579.0025.1153.0085.173.0116q.1709.0186.003-.002.0853.0137.17.0312a4.3527,4.3527,0,0,1,.5794.1694c.2549.091-.1483-.0909.0884.0411.1011.0564.205.1063.3041.1667q.0743.0453.1464.094t.1423.101q-.1176-.0906.0115.0147a5.79,5.79,0,0,1,.4353.4426c.1793.209-.0762-.1428.068.0951.0638.1053.1318.2068.1924.3143a.9576.9576,0,1,0,1.6535-.9665,4.7856,4.7856,0,0,0-4.9184-2.36,4.7238,4.7238,0,0,0-3.84,3.72,4.7219,4.7219,0,1,0,8.758-1.36.9576.9576,0,0,0-1.6535.9665Z"/><path class="cls-7" d="M495.9409,184.8l-22.4258,41.315-3.4935,15.7712-4.0774,18.4074a206.7516,206.7516,0,0,0,32.28,7.7572,210.4415,210.4415,0,0,0,31.6971,2.9292l2.737-18.9517.02-.1361-2.386-34.8689Z"/><path d="M494.2874,183.8338,477.2233,215.271l-4.0859,7.5276A15.3717,15.3717,0,0,0,471.63,225.78c-.8285,2.96-1.3394,6.0466-2.0042,9.0477q-.7368,3.3265-1.4737,6.6531-2.0274,9.1521-4.0546,18.3042a1.9659,1.9659,0,0,0,1.3374,2.3556c16.38,5.5431,33.7589,8.6432,50.9628,10.1017,4.4981.3814,9.0089.6165,13.5234.6531a1.9278,1.9278,0,0,0,1.8465-1.4058l1.4577-10.0935.9475-6.5608a26.7373,26.7373,0,0,0,.4192-2.952c.07-2.4046-.3365-4.9172-.5005-7.314l-.9791-14.3081-.7858-11.4846a8.6334,8.6334,0,0,0-.2849-2.49,4.9934,4.9934,0,0,0-1.3712-1.5311L513.197,198.3634c-5.2046-4.8823-10.331-9.8672-15.6228-14.6552-.0946-.0856-.1862-.1747-.2793-.2619-1.7965-1.6853-4.51,1.0175-2.7081,2.708l11.6217,10.9018,18.443,17.3006,4.2864,4.021-.5609-1.3541,1.5625,22.8337.7685,11.2306c.01.153-.0433.649.053.7753.0883.1159.0985-.6269.0453-.3057-.0271.1639-.0475.3292-.0713.4935l-.8018,5.5523-1.8584,12.868,1.8465-1.4059a215.2318,215.2318,0,0,1-50.9733-6.9505c-4.208-1.07-8.3816-2.2756-12.4948-3.6675l1.3375,2.3555q3.6273-16.3754,7.2547-32.7509a11.0215,11.0215,0,0,0,.2643-1.1931c.06-.574-.2662.3408-.1006.1483a7.5641,7.5641,0,0,0,.7078-1.3041l3.5187-6.4824,10.8534-19.9953,7.3053-13.4586C498.77,183.6,495.4648,181.6646,494.2874,183.8338Z"/><path class="cls-6" d="M666.8442,299.1261,550.2262,437.54c-25.3058,25.5737-46.53,26.8894-71.43,16.5554l0,0c-27.8182-11.5454-45.4131-44.2748-39.4352-73.7945l34.1538-154.1853L495.9409,184.8l34.351,32.2233,2.386,34.8689L515.1663,373.1439,581.6753,282.9a108.0462,108.0462,0,0,1,30.4623-27.9859l18.5433-11.38"/><path d="M665.49,297.772l-5.0015,5.9362-13.1876,15.6524-18.6487,22.1341L607.2678,366.876l-21.4767,25.4906L567.1263,414.52l-13.2147,15.6844c-1.6759,1.9891-3.2935,4.0523-5.0393,5.9811a81.1178,81.1178,0,0,1-11.42,10.1215,70.0148,70.0148,0,0,1-11.199,6.951,47.7543,47.7543,0,0,1-21.5838,4.9657,65.35,65.35,0,0,1-22.2242-4.7277,62.7587,62.7587,0,0,1-19.7883-11.8616,68.6593,68.6593,0,0,1-21.9258-40.7792,62.9226,62.9226,0,0,1,1.1163-22.9339l3.7693-17.016,6.0712-27.408,7.1787-32.408,7.0833-31.977,5.7847-26.1149,3.2832-14.8216c.0947-.4275.2357-.8692.2889-1.3042.08-.6566-.36.5476-.0015-.0419,1.5635-2.5711,2.889-5.3224,4.3241-7.9663l14.884-27.4208,3.0808-5.6758-3.0075.3875,11.5861,10.8685,18.49,17.3446,4.2751,4.01-.5609-1.3541,2.29,33.4712a5.8577,5.8577,0,0,0,.0949,1.3868c-.0412-.0218.1217-.8447.025-.1923-.1284.8657-.25,1.7325-.3754,2.5988l-1.7171,11.8893-5.7934,40.1141-6.2081,42.9851c-1.1083,7.6737-2.2315,15.3455-3.3249,23.0214q-.024.1686-.0486.3369a1.9251,1.9251,0,0,0,3.5,1.4755l11.2733-15.2963,24.2145-32.8558L575.36,294.6789c5.1771-7.0247,10.1681-14.2519,16.1805-20.6007a111.7075,111.7075,0,0,1,22.895-18.3277l15.88-9.7456,1.3317-.8172c2.0972-1.2871.1755-4.6009-1.933-3.307-11.6065,7.1229-23.7418,13.77-33.9872,22.825a113.8321,113.8321,0,0,0-16.18,17.8719l-5.2614,7.1391L552.41,319.4,527.412,353.3181l-9.1631,12.4331c-1.4971,2.0313-3.1922,4.017-4.5361,6.1549-.0593.0943-.1338.1816-.2.2713l3.5,1.4756,1.2582-8.7121,3.14-21.7418,4.1269-28.5742,4.159-28.7976,3.3055-22.8871c.5015-3.4726,1.0158-6.9437,1.5046-10.4181a24.0639,24.0639,0,0,0-.2048-4.877l-.9207-13.4552L532.4789,221c-.1107-1.6186.1782-4.2882-1.0409-5.5254-4.9594-5.0328-10.3472-9.7063-15.5-14.54L498.3434,184.43l-1.0485-.9835a1.9363,1.9363,0,0,0-3.0075.3875L483.588,203.5454,475.91,217.6911c-1.3277,2.4461-2.76,4.8623-3.9937,7.3576a9.8516,9.8516,0,0,0-.6309,2.2891l-1.3076,5.9031-4.8,21.67-6.7152,30.3155L451.12,318.37l-6.76,30.5163-4.9458,22.3274c-.66,2.98-1.38,5.953-1.9736,8.9469-3.1345,15.809.297,32.4861,8.2236,46.3965a71.0806,71.0806,0,0,0,15.2713,18.6521,67.9141,67.9141,0,0,0,20.4911,11.98,68.9074,68.9074,0,0,0,22.7215,4.8556,51.5569,51.5569,0,0,0,22.2866-4.6585c8.5834-3.8487,16.1493-9.7754,22.8893-16.2666a45.8361,45.8361,0,0,0,3.3486-3.523l9.23-10.9556,16.2321-19.2658,20.4617-24.286,21.901-25.9942,20.55-24.39,16.4605-19.5369,9.4427-11.2074,1.247-1.48c1.5785-1.8736-1.1174-4.5961-2.7081-2.7081Z"/><path class="cls-6" d="M532.6483,252.4911l4.1934-35.6039-12.3453-44.9406s-15.7613-16.3264,12.2447-41.02c-23.3686-21.9842-62.2571,4.6439-59.83,30.7354.99,10.6434,1.3652,19.626,1.4624,26.5317a118.397,118.397,0,0,1-2.6011,26.4193l-2.726,12.7533"/><path d="M534.5632,252.4911l3.0013-25.4824.7962-6.76a32.3549,32.3549,0,0,0,.3864-3.2805,7.12,7.12,0,0,0-.4167-1.8923l-1.2591-4.5836-8.4673-30.8236c-.7432-2.7054-1.3527-5.4968-2.2414-8.1591a3.0694,3.0694,0,0,0-.584-.9948c-.1235-.15-.5761-.7067-.357-.4208.2425.3165-.156-.2176-.2384-.3351q-.2327-.3313-.4485-.6742a18.5062,18.5062,0,0,1-.9574-1.7134c-.0854-.1735-.1661-.349-.2484-.524-.0547-.1164-.2686-.6289-.0773-.1643q-.2486-.6038-.4594-1.2217a20.0384,20.0384,0,0,1-.7167-2.7429q-.0728-.3894-.1308-.7813c.0578.3917-.036-.3141-.0443-.3949q-.0876-.8576-.1045-1.72a22.1859,22.1859,0,0,1,.2-3.3913c1.1017-7.1895,5.4228-13.4777,10.2748-18.6992,1.7786-1.9141,3.6695-3.7176,5.6241-5.45a1.9307,1.9307,0,0,0,0-2.7081,32.3227,32.3227,0,0,0-27.6216-8.2091c-9.5288,1.5367-18.4838,6.79-25.0371,13.796-6.2989,6.7342-10.886,15.71-10.5306,25.1193.1294,3.4272.575,6.8576.8092,10.2806q.3393,4.9581.5361,9.9248a155.0751,155.0751,0,0,1-.26,20.03c-.8031,8.908-2.9257,17.6149-4.7914,26.3433-.5138,2.4036,3.1772,3.4309,3.693,1.0181,1.3784-6.4487,2.9444-12.8956,3.9515-19.4152,2.0333-13.1642,1.5456-26.4637.5729-39.7-.38-5.1767-1.2183-10.2717.02-15.3894a33.76,33.76,0,0,1,5.69-11.8877,42.2314,42.2314,0,0,1,21.747-15.3714,31.2986,31.2986,0,0,1,14.6806-.9547,27.9829,27.9829,0,0,1,13.8325,7.1238v-2.7081c-7.5231,6.6694-15.0865,15.2363-16.8294,25.5027a22.8392,22.8392,0,0,0,2.6035,15.5062,14.8358,14.8358,0,0,0,1.9811,2.7189l-.4924-.845,9.51,34.6207,2.2145,8.0614c.1763.6419.325,1.3.5309,1.9327.2427.7463.1351-.5464-.01.0844a58.8473,58.8473,0,0,0-.7362,6.25l-1.3,11.0367-2.1258,18.0492a1.9258,1.9258,0,0,0,1.9149,1.9149,1.961,1.961,0,0,0,1.9149-1.9149Z"/><path class="cls-6" d="M486.0176,138.1764S501.95,111.4392,521.91,100.722c12.4714-6.4445,16.5887,1.2869,6.5582,10.3668-5.3563,4.8486-18.3669,18.3788-22.8047,30.0413"/><path d="M487.6711,139.1429c1.9529-3.2727,4.1636-6.4092,6.4235-9.474a121.6354,121.6354,0,0,1,16.5023-18.4657A66.3485,66.3485,0,0,1,521.1,103.3769a23.8354,23.8354,0,0,1,6.52-2.8365,9.3016,9.3016,0,0,1,2.4235-.2767,4.5807,4.5807,0,0,1,1.4529.3436c.446.2274.3507.1414.5973.6679-.2015-.43.1208.6788.0636.2339a3.848,3.848,0,0,1-.0121.9965,10.7148,10.7148,0,0,1-2.168,4.224c-2.3157,2.9426-5.4151,5.3437-8.0082,8.048-7.204,7.5132-14.3612,16.0328-18.1525,25.8435a1.9314,1.9314,0,0,0,1.3375,2.3555,1.9563,1.9563,0,0,0,2.3555-1.3374,55.887,55.887,0,0,1,7.475-12.7792,116.5478,116.5478,0,0,1,9.4752-11.1471c2.7455-2.8769,5.99-5.4236,8.4438-8.5521,2.1042-2.6831,4.35-6.7671,2.3328-10.1158-2.0642-3.4273-6.904-2.8413-10.11-1.7726-4.7511,1.5839-9.0077,4.55-12.9231,7.6064a109.9782,109.9782,0,0,0-18.8477,19.47,128.7437,128.7437,0,0,0-8.9915,12.8608c-1.266,2.1216,2.0438,4.05,3.3069,1.933Z"/><path class="cls-6" d="M496.8688,141.3679s15.932-26.7372,35.8918-37.4544c12.4714-6.4445,16.5887,1.2869,6.5582,10.3668-5.3563,4.8486-18.3669,18.3788-22.8047,30.0413"/><path d="M498.5222,142.3344c1.9529-3.2727,4.1636-6.4092,6.4235-9.474a121.6354,121.6354,0,0,1,16.5023-18.4657,66.3485,66.3485,0,0,1,10.5027-7.8263,23.8354,23.8354,0,0,1,6.52-2.8365,9.3016,9.3016,0,0,1,2.4235-.2767,4.5807,4.5807,0,0,1,1.4529.3436c.446.2274.3507.1414.5973.6679-.2015-.43.1208.6788.0636.2339a3.848,3.848,0,0,1-.0121.9965,10.7148,10.7148,0,0,1-2.168,4.224c-2.3157,2.9426-5.4151,5.3437-8.0082,8.048-7.204,7.5132-14.3612,16.0328-18.1525,25.8435a1.9314,1.9314,0,0,0,1.3375,2.3555,1.9563,1.9563,0,0,0,2.3555-1.3374,55.887,55.887,0,0,1,7.475-12.7792,116.5478,116.5478,0,0,1,9.4752-11.1471c2.7455-2.8769,5.99-5.4236,8.4438-8.5521,2.1042-2.6831,4.35-6.7671,2.3328-10.1158-2.0642-3.4273-6.904-2.8413-10.11-1.7726-4.7511,1.5839-9.0077,4.55-12.9231,7.6064a109.9782,109.9782,0,0,0-18.8477,19.47,128.7437,128.7437,0,0,0-8.9915,12.8608c-1.266,2.1216,2.0438,4.05,3.3069,1.933Z"/><path class="cls-6" d="M505.1667,150.9424s15.932-26.7372,35.8918-37.4544c12.4714-6.4445,16.5887,1.2869,6.5582,10.3668-5.3563,4.8486-18.3669,18.3788-22.8047,30.0413"/><path d="M506.82,151.9089c1.9529-3.2727,4.1636-6.4092,6.4235-9.474a121.6354,121.6354,0,0,1,16.5023-18.4657,66.3485,66.3485,0,0,1,10.5027-7.8263,23.8385,23.8385,0,0,1,6.52-2.8365,9.3016,9.3016,0,0,1,2.4235-.2767,4.5807,4.5807,0,0,1,1.4529.3436c.446.2274.3507.1414.5973.6679-.2015-.43.1208.6788.0636.2339a3.848,3.848,0,0,1-.0121.9965,10.7148,10.7148,0,0,1-2.168,4.224c-2.3156,2.9426-5.4151,5.3437-8.0082,8.048-7.204,7.5132-14.3612,16.0328-18.1525,25.8435a1.9314,1.9314,0,0,0,1.3375,2.3555,1.9563,1.9563,0,0,0,2.3555-1.3374,55.887,55.887,0,0,1,7.475-12.7792,116.5478,116.5478,0,0,1,9.4752-11.1471c2.7455-2.8769,5.99-5.4236,8.4438-8.5521,2.1042-2.6831,4.35-6.7671,2.3328-10.1158-2.0642-3.4273-6.904-2.8413-10.11-1.7726-4.7511,1.5839-9.0077,4.55-12.9231,7.6064a109.9782,109.9782,0,0,0-18.8477,19.47,128.7437,128.7437,0,0,0-8.9915,12.8608c-1.266,2.1216,2.0438,4.05,3.3069,1.933Z"/><path class="cls-6" d="M516.88,158.807s12.0461-25.8523,30.8042-38.5561c11.7463-7.6871,16.6333-.4178,7.5848,9.6411a197.0745,197.0745,0,0,0-15.6844,20.4864,35.2824,35.2824,0,0,0-4.26,30.3952l3.3336,10.4147a35.3491,35.3491,0,0,1,1.2234,16.457l-7.2038,44.2472"/><path d="M518.5334,159.7734a103.2851,103.2851,0,0,1,5.4-9.8456,109.564,109.564,0,0,1,14.7974-19.5372,58.72,58.72,0,0,1,10.2965-8.729,16.62,16.62,0,0,1,5.9925-2.6239,5.9282,5.9282,0,0,1,.7533-.0781c.1866-.0074.9458.0443.8028.0194a1.7959,1.7959,0,0,1,1.071.47c.0663.0693.1791.2684.0238.0029a3.0336,3.0336,0,0,1,.2187.3681c.128.313-.16-.4268.0378.1178a2.5944,2.5944,0,0,1,.09.36c-.0537-.267.0223.44.0187.59a3.5458,3.5458,0,0,1-.1372.9781,14.2764,14.2764,0,0,1-2.7039,5.15c-1.5223,1.9822-3.2906,3.7884-4.881,5.7185q-2.6769,3.2487-5.2066,6.6157c-3.3639,4.447-6.9852,9.01-9.4709,14.0224a37.6013,37.6013,0,0,0-3.8851,15.175c-.2945,7.2981,2.1126,13.9387,4.2955,20.7582a43.2108,43.2108,0,0,1,2.2979,10.2682,36.6965,36.6965,0,0,1-.446,8.401l-2.035,12.5-4.9293,30.2772-.1028.6311a1.9762,1.9762,0,0,0,1.3375,2.3555,1.9283,1.9283,0,0,0,2.3555-1.3374l4.4973-27.6233,2.39-14.682c.2448-1.5036.5026-3.0045.6583-4.5209a37.6129,37.6129,0,0,0-1.67-15.2228c-1.83-5.7448-4.288-11.65-4.7469-17.7035a33.8516,33.8516,0,0,1,2.4627-15.543c2.1717-5.2214,5.8484-9.85,9.1991-14.3569q2.64-3.5516,5.4394-6.9808c1.6549-2.0186,3.4627-3.9177,5.0836-5.9613,2.2892-2.8861,4.9133-7.0095,3.7819-10.8871-1.0195-3.4941-4.7515-4.19-7.8888-3.5209-4.6282.9876-8.6794,4.178-12.2222,7.1544a96.3956,96.3956,0,0,0-17.5769,20.2676,123.4785,123.4785,0,0,0-8.357,14.2977c-.1179.24-.2357.48-.3487.7217-1.0362,2.22,2.2642,4.1667,3.3069,1.9329Z"/><line class="cls-7" x1="517.2914" y1="358.4292" x2="512.2398" y2="392.7859"/><path d="M515.4449,357.92,511.02,388.0165l-.6264,4.26a1.9808,1.9808,0,0,0,1.3374,2.3555,1.9274,1.9274,0,0,0,2.3556-1.3374l4.4252-30.0964.6264-4.26a1.9808,1.9808,0,0,0-1.3374-2.3555,1.9273,1.9273,0,0,0-2.3556,1.3374Z"/><path class="cls-8" d="M630.681,243.5343l-18.5434,11.38A108.0417,108.0417,0,0,0,581.6754,282.9l-42.5248,60.3078,21.1018-78.8987L529.9213,270.98a210.4415,210.4415,0,0,1-31.6971-2.9292,206.7516,206.7516,0,0,1-32.28-7.7572L439.3613,380.3006c-5.9779,29.52,11.6171,62.2492,39.4352,73.7944l0,0c24.8993,10.334,55.2371,7.1107,80.5429-18.4629L671.755,307.0581Z"/><path d="M629.7145,241.8809q-9.3624,5.7456-18.7247,11.4916a108.3831,108.3831,0,0,0-31.6015,29.46L566.8529,300.61l-18.2881,25.9359-7.236,10.262c-1.21,1.7152-2.5965,3.3976-3.6692,5.2036-.0475.08-.1088.1542-.1624.23l3.5,1.4756,7.1566-26.7581,11.3315-42.3681,2.6137-9.7725a1.9367,1.9367,0,0,0-2.3555-2.3556l-23.5949,5.19-5.31,1.168a14.7224,14.7224,0,0,1-4.3942.18,212.9378,212.9378,0,0,1-29.1624-3.0377,200.7009,200.7009,0,0,1-30.8284-7.5154,1.93,1.93,0,0,0-2.3555,1.3374l-4.6291,20.8976L449.5921,325.27l-9.1941,41.506c-2.1176,9.56-4.5746,18.8694-4.0194,28.7872,1.28,22.8627,14.43,45.02,34.2648,56.61a64.3122,64.3122,0,0,0,7.644,3.7685l-.845-.4924a6.7622,6.7622,0,0,0,2.2575,1.0617q1.26.493,2.5377.94,2.4752.8651,5.0084,1.5509a74.0181,74.0181,0,0,0,10.4894,2.0113,69.8059,69.8059,0,0,0,21.5154-.8033,73.1184,73.1184,0,0,0,21.5517-7.9381,80.9348,80.9348,0,0,0,19.8924-15.2864c1.6076-1.7352,3.12-3.5691,4.6772-5.35l12.1824-13.9334,17.1931-19.6645,19.8512-22.7046L634.72,352.32l18.0021-20.59,13.495-15.4348c2.2028-2.5194,4.4261-5.0225,6.6091-7.5591.0936-.1087.1889-.216.2833-.3239a1.9658,1.9658,0,0,0,.2994-2.3206L659.5471,284.654l-22.1123-34.198-5.1-7.8882c-1.3337-2.0626-4.65-.1449-3.3069,1.933l13.8614,21.4376,22.1123,34.1981,5.1,7.8881.2994-2.3205-4.4678,5.11-11.85,13.5528-16.9,19.3293-19.62,22.44L597.5558,389.02,579.49,409.6825l-13.792,15.7745-7.1874,8.2205a63.0352,63.0352,0,0,1-7.1415,6.6934A76.5545,76.5545,0,0,1,530.7381,452.85a67.3353,67.3353,0,0,1-41.82,2.6324,74.343,74.343,0,0,1-9.6127-3.2333l.845.4925c-.8486-.8253-2.5095-1.217-3.5756-1.7362q-2.0389-.9928-3.9987-2.1389a59.6645,59.6645,0,0,1-6.8047-4.6117A66.0678,66.0678,0,0,1,454.1184,432.42a69.0269,69.0269,0,0,1-13.2674-30.7842,58.2155,58.2155,0,0,1,.54-21.6546l2.0953-9.4591,8.7531-39.5152,9.9851-45.0771,3.6563-16.5063c.605-2.7313,1.3857-5.4838,1.827-8.2477.02-.1248.0551-.2489.0825-.3725l-2.3556,1.3375a196.1093,196.1093,0,0,0,27.4847,6.9255,231.4885,231.4885,0,0,0,30.0874,3.6255c2.5492.1284,5.4306.5737,7.9425.0212l4.2656-.9382,15.0561-3.3115,10.49-2.3072L558.4059,263.8l-7.1566,26.7581-11.3315,42.368-2.6137,9.7726c-.5853,2.1886,2.286,3.1971,3.5,1.4755l8.9565-12.7019,18.0028-25.5313,14.0335-19.902a106.3815,106.3815,0,0,1,25.6212-25.7305c7.5243-5.2957,15.63-9.8433,23.4671-14.6531l.7622-.4678C633.7446,243.9008,631.823,240.5869,629.7145,241.8809Z"/><path d="M559.7569,264.616c.64-3.9117-13.7742-8.2466-27.0986-12.5874l-2.737,18.9517C543.7357,271.0735,559.1226,268.4941,559.7569,264.616Z"/><path d="M561.6718,264.616c.2193-1.8086-1.2209-3.2923-2.5367-4.2895a28.7446,28.7446,0,0,0-6.3427-3.3416c-6.3822-2.6795-13.05-4.6627-19.625-6.8028a1.9215,1.9215,0,0,0-2.3556,1.3374l-2.737,18.9518a1.9483,1.9483,0,0,0,1.8465,2.4239,100.9731,100.9731,0,0,0,20.8939-1.8677,31.1476,31.1476,0,0,0,7.24-2.2631c1.5009-.7233,3.1914-1.89,3.5478-3.6393.49-2.4061-3.2005-3.4353-3.6929-1.0181-.0186.0911-.0875.5479.0381.02-.0339.142-.3037.365-.0021.0763-.1564.15-.5149.5122-.5219.5176a10.934,10.934,0,0,1-1.8495.9816,35.0609,35.0609,0,0,1-6.8376,1.8412,99.0365,99.0365,0,0,1-18.8161,1.5213l1.8465,2.424,2.737-18.9518-2.3556,1.3375c5.9951,1.9513,12.047,3.79,17.9151,6.1054a36.8743,36.8743,0,0,1,5.9644,2.8422,6.3864,6.3864,0,0,1,1.6593,1.3134c-.11-.1252.317.3394.2461.4052.0438-.0406-.1379-.1516-.0774-.3135a2.1342,2.1342,0,0,0-.0148.3882,1.9255,1.9255,0,0,0,1.915,1.9149A1.9617,1.9617,0,0,0,561.6718,264.616Z"/><path d="M791.76,335.3512s26.8016-10.2219,38.12,1.8846-21.69,37.0018-21.69,37.0018"/><path d="M792.2689,337.1977a65.6935,65.6935,0,0,1,12.7861-3.3025c6.9817-1.1307,15.2921-1.4034,21.3557,2.8294A10.9526,10.9526,0,0,1,829.38,339.72a4.54,4.54,0,0,1,.617,1.3379c.0885.2821.1521.5669.2194.8544a1.4339,1.4339,0,0,1,.0859.6336,12.82,12.82,0,0,1-.023,1.7265,2.0229,2.0229,0,0,1-.0887.6111c-.0786.3824-.1584.7622-.26,1.1395a17.15,17.15,0,0,1-1.4291,3.6366c-2.9109,5.7051-7.4623,10.5342-12.0491,14.9287q-3.1962,3.0623-6.61,5.8875-1.0681.8865-2.1573,1.7474c-.3022.238-.6948.5391-.2418.1914-.0737.0566-.1473.1133-.2214.1693a1.98,1.98,0,0,0-.687,2.62,1.9265,1.9265,0,0,0,2.62.687,112.2159,112.2159,0,0,0,8.7692-7.4279c5.0248-4.675,9.9876-9.8507,13.3549-15.8815,2.9358-5.258,4.4568-11.8308-.0465-16.7-5.6924-6.1549-14.9851-7.0027-22.8492-6.2466a66.5412,66.5412,0,0,0-17.1335,3.87c-2.2813.8675-1.2918,4.5714,1.0181,3.693Z"/><path class="cls-7" d="M858.3256,277.502c-13.0053-11.3877-25.7442-20.2137-35.0227-24.7107l-9.7566,10.7377L778.0446,302.6l76.0786,5.66,2.2073-2.0366,16.3478-15.0822C868.4091,286.7113,863.5775,282.1007,858.3256,277.502Z"/><path d="M859.68,276.148a232.6035,232.6035,0,0,0-19.124-15.1174,119.5633,119.5633,0,0,0-16.2862-9.8927,1.9685,1.9685,0,0,0-2.3206.2994L807.7635,267.049l-24.2491,26.6867-6.8239,7.51a1.94,1.94,0,0,0,1.3541,3.2689l12.9313.9621,27.8467,2.0717,26.2574,1.9535,7.5206.56c.4754.0354.9675.1119,1.4447.1075,1.401-.0128,2.6687-1.6962,3.63-2.5835q7.8939-7.2831,15.7879-14.5657l.5687-.5247a1.9421,1.9421,0,0,0,0-2.7081c-4.5874-4.75-9.3894-9.2844-14.3527-13.6388-1.8459-1.62-4.5651,1.0788-2.708,2.708,4.9632,4.3545,9.7653,8.8894,14.3526,13.6389v-2.7081l-15.779,14.5576q-1.3881,1.2806-2.776,2.5613l1.354-.5609-25.779-1.9179-40.9175-3.0442-9.3821-.698,1.354,3.2689,17.6669-19.4428q8.9169-9.8133,17.8338-19.6266l9.7576-10.7388-2.32.2994c12.67,6.1757,24.0743,15.1821,34.6352,24.4112C858.82,280.4716,861.54,277.7735,859.68,276.148Z"/><path class="cls-8" d="M829.1444,336.0484c-70.9575,37.51-144.211,84.233-144.211,84.233L624.0766,269.6093c-4.6828-9.6118-1.8365-20.8493,6.6043-26.0751l41.19,7.2189,15.1333-42.089c9.1713-5.678,16.3106-4.852,28.58,6.17C715.5839,214.8345,797.3374,293.9349,829.1444,336.0484Z"/><path class="cls-8" d="M633.2921,290.16,640.1743,307.5a25.536,25.536,0,0,0,18.7094,47.1429l26.05,65.638s64.9436-40.2073,144.2109-84.2328c-31.807-42.1135-113.5605-121.2141-113.5605-121.2141"/><path d="M631.4456,290.6688l6.8822,17.3407.88-2.1625A27.4513,27.4513,0,0,0,659.3927,356.49l-2.3555-1.3374,8.8522,22.305,13.9876,35.2448,3.21,8.0882a1.9435,1.9435,0,0,0,2.813,1.1444q3.5228-2.1808,7.0622-4.3346,9.7563-5.96,19.5571-11.8464,14.9505-8.9888,29.979-17.847,18.9768-11.1894,38.07-22.1793,21.8663-12.5837,43.895-24.8821,2.8222-1.5744,5.6472-3.1435a1.9233,1.9233,0,0,0,.687-2.62c-7.3831-9.7656-15.3657-19.0723-23.4885-28.2257-9.4353-10.6326-19.1219-21.0416-28.9209-31.339q-14.154-14.8738-28.6126-29.4537-11.1325-11.2527-22.4035-22.3672c-3.41-3.3627-6.7426-6.8622-10.293-10.0791-.0486-.0439-.0944-.0914-.1415-.1369-1.772-1.7147-4.4833.99-2.708,2.708q4.1845,4.0493,8.3276,8.1412,10.6089,10.4344,21.0931,20.9947,14.1911,14.289,28.1348,28.8211c9.85,10.2861,19.5932,20.6783,29.1125,31.2721,8.3795,9.3255,16.6367,18.79,24.3514,28.6769.7537.966,1.4933,1.9307,2.2417,2.9206l.687-2.62q-22.3128,12.3948-44.4509,25.1005-19.4295,11.1436-38.7366,22.4988-15.6051,9.1756-31.13,18.4864-10.5516,6.33-21.06,12.7315-3.015,1.8385-6.0246,3.6858a25.3973,25.3973,0,0,0-2.6987,1.6617,1.0663,1.0663,0,0,1-.11.0682l2.813,1.1444-8.8522-22.305L663.94,362.2225l-3.21-8.0882a1.9664,1.9664,0,0,0-2.3556-1.3375,23.6249,23.6249,0,0,1-27.5908-32.59,24.2348,24.2348,0,0,1,10.357-11.0531,1.9264,1.9264,0,0,0,.88-2.1625l-6.8822-17.3407a1.9723,1.9723,0,0,0-2.3555-1.3375,1.9291,1.9291,0,0,0-1.3375,2.3556Z"/><rect class="cls-8" x="653.964" y="355.991" width="194.6815" height="22.3405" rx="10.9369" transform="translate(-80.7567 450.4671) rotate(-31.7621)"/><path d="M829.6823,329.5228l-4.6494,2.8785-12.4546,7.7108L794.33,351.41l-21.8678,13.5385-23.2484,14.3933L726.499,393.4046l-19.9449,12.3481-14.9875,9.2789-8.0414,4.9785a11.3674,11.3674,0,0,1-4.1382,1.7531c-5.8953.9814-11.1952-4.36-10.6554-10.1963a9.2409,9.2409,0,0,1,4.5225-6.97q1.1869-.7389,2.3776-1.472L686.43,396.44l16.9746-10.5092,21.18-13.1129,23.1879-14.3559,22.9616-14.2157,20.8187-12.8891,16.4365-10.176,9.894-6.1255c.6247-.3867,1.246-.78,1.8743-1.16a9.14,9.14,0,0,1,11.4539,1.395,9.2727,9.2727,0,0,1-1.5294,14.2325c-2.0682,1.3263-.15,4.6427,1.933,3.3069a13.0957,13.0957,0,0,0-12.4573-22.9625,55.1554,55.1554,0,0,0-5.7244,3.44l-12.6864,7.8542-18.7323,11.5974L759.662,346.5976l-23.7936,14.7308-23.08,14.2892L692.8853,387.94l-14.58,9.0268q-3.5085,2.1721-7.0172,4.3444a13.1706,13.1706,0,0,0-6.0993,8.2813A13.4848,13.4848,0,0,0,674,425.0645a13.0711,13.0711,0,0,0,10.9393-1.4261c.7674-.4714,1.5315-.9482,2.2972-1.4222l10.9535-6.7814,17.4161-10.7825,21.6583-13.4089L761.02,376.5362l23.383-14.4767,20.8617-12.9157,16.1467-9.9966,9.0293-5.59,1.1749-.7274C833.7069,331.5348,831.7859,328.2205,829.6823,329.5228Z"/><path class="cls-8" d="M668.54,219.8976c.6745-.2838,10.7348-6.6155,17.276-10.7063,3.5642-2.2292,18.4283-12.4257,22.3843-13.8478l166.1368-55.3466a46.7586,46.7586,0,0,1,52.0641,6.9178h0L907.2634,198.97,749.7779,272.4689"/><path d="M669.5069,221.551a53.5306,53.5306,0,0,0,5.7181-3.4771q5.06-3.15,10.107-6.3213c4.8808-3.0556,9.6273-6.32,14.4865-9.41,2.4574-1.5628,4.9271-3.14,7.509-4.4923.4182-.219.84-.4324,1.2721-.6227.072-.0317-.2725.0905.1222-.0414.0655-.0219.1311-.044.1968-.0656,1.0488-.3435,2.0944-.6977,3.1415-1.0465l15.88-5.29,25.2256-8.4036,30.4319-10.138,31.4985-10.4934,28.4258-9.47,21.2134-7.067c3.285-1.0944,6.5975-2.1289,9.8614-3.2852,1.3431-.4759,2.592-1.2,3.9184-1.7279a44.8355,44.8355,0,0,1,46.5328,8.07l-.4925-1.8631L918.09,163.99l-10.3058,28.0315-2.3677,6.44.88-1.1444-15.7553,7.353-37.58,17.5384L807.54,243.4067l-39.4427,18.408-12.86,6.0018c-2.0444.9541-4.1706,1.8178-6.1639,2.8767-.0847.045-.175.0816-.262.1223-2.2315,1.0414-.289,4.3439,1.933,3.3069l7.1946-3.3578,18.8738-8.8084,26.4889-12.3624,30.0394-14.0195,29.5255-13.78,24.9473-11.6429,16.3043-7.6093c1.2151-.567,2.4461-1.1088,3.6484-1.7026,1.0885-.5377,1.4094-1.5405,1.808-2.6244l9.06-24.6431,9.0872-24.7171.5263-1.4315a1.8683,1.8683,0,0,0-.4924-1.8631,49.0776,49.0776,0,0,0-48.0167-9.881c-2.6168.89-4.6061,2.0362-7.0487,2.85l-4.7323,1.5765L849.4559,146.27l-27.0224,9.0022-31.3066,10.4294-31.3552,10.4456-27.1678,9.0507-18.7447,6.2446a57.02,57.02,0,0,0-8.3756,3.054,181.18,181.18,0,0,0-15.9065,9.9509c-5.4106,3.5712-10.9224,6.9831-16.4267,10.4078a52.2048,52.2048,0,0,1-5.5765,3.389,1.9321,1.9321,0,0,0-.6869,2.62,1.9574,1.9574,0,0,0,2.62.6869Z"/><path class="cls-6" d="M881.1455,189.1341,778.0446,302.6l76.0786,5.66,81.2087-74.9222c20.9392-27.0507,16.9385-63.918-8.93-86.4228h0"/><path d="M879.7915,187.78l-10.2957,11.3306-24.55,27.0175L815.0917,258.984,789.419,287.2375c-4.1819,4.6023-8.4623,9.1336-12.5544,13.8165-.0568.0649-.1161.1277-.1741.1915a1.94,1.94,0,0,0,1.3541,3.269l16.3493,1.2163,32.7581,2.4372,24.7321,1.84c1.383.1029,2.6363.443,3.7695-.5569,1.2266-1.0824,2.4077-2.2214,3.61-3.3306l17.6772-16.3088,24.3642-22.4781L923.9626,246.43l12.2708-11.3209a13.579,13.579,0,0,0,1.6628-2.0092,65.5146,65.5146,0,0,0,6.5119-10.85,63.6163,63.6163,0,0,0-8.2944-68.0144,72.7894,72.7894,0,0,0-8.358-8.6748c-1.8341-1.6363-4.5519,1.0632-2.7081,2.708A64.6656,64.6656,0,0,1,943.22,174.3636a59.6848,59.6848,0,0,1,2.7633,30.5187A60.5193,60.5193,0,0,1,941.33,219.829a64.4445,64.4445,0,0,1-4.0049,7.3414q-1.044,1.65-2.1835,3.2375a16.93,16.93,0,0,1-1.2326,1.6633c.1336-.1442.0795-.1013.0488-.0694-1.4656,1.5222-3.1342,2.8915-4.6864,4.3236l-26.1539,24.1293-32.0928,29.6085-11.9828,11.0551c-1.9921,1.8379-4.124,3.5978-6.0106,5.5454-.0824.085-.1752.1616-.2623.242l1.354-.5609-25.779-1.9179-40.9175-3.0442-9.3821-.698,1.354,3.2689,10.2957-11.3307,24.55-27.0175L844.0984,232.75l25.6726-28.2535c4.1821-4.6025,8.4605-9.1351,12.5545-13.8165.0568-.0649.1161-.1277.174-.1916,1.6544-1.8206-1.0462-4.5369-2.708-2.708Z"/><path class="cls-6" d="M801.37,277.19l-51.3281,54.5118c-6.6861,7.0165-.1959,18.5058,9.2443,16.3112,3.9013-.9069,11.7522-5.9636,17.4078-9.9152,0,0,25.3251,30.3952,44.5415,58.1842,33.8752-8.8421,27.6211-23.8416,9.8606-62.215l29.44-31.64"/><path d="M800.0159,275.8361l-8.87,9.42L772.2154,305.361l-17.7443,18.8448c-3.5083,3.726-8.4308,7.6645-9.0185,13.0429a11.9132,11.9132,0,0,0,9.1717,12.71,13.871,13.871,0,0,0,8.7006-1.4328,76.3478,76.3478,0,0,0,9.5264-5.5211q2.4312-1.5871,4.8091-3.2534l-2.3205-.2995c10.7315,12.8828,21.081,26.1105,31.0994,39.553q6.7183,9.0147,13.1426,18.2437a1.9845,1.9845,0,0,0,2.1625.88c8.8347-2.32,20.1583-5.8783,24.1572-15.0372,3.8135-8.7342.0545-19.0517-3.1863-27.35-3-7.6808-6.5043-15.1609-9.9658-22.6409l-.2994,2.3205L855.22,310.95c2.1168-2.275,4.2538-4.533,6.3512-6.8259.1052-.115.2124-.2282.3185-.3423,1.6775-1.8028-1.0248-4.5172-2.708-2.7081l-1.7517,1.8825-12.1573,13.0659L829.742,332.713a1.9972,1.9972,0,0,0-.2994,2.3206c2.978,6.4351,5.9887,12.8664,8.6649,19.4348a85.1163,85.1163,0,0,1,4.9015,15,26.8175,26.8175,0,0,1,.6288,5.8289,14.1656,14.1656,0,0,1-.7,4.8607,13.58,13.58,0,0,1-2.1374,4.0989,19.4121,19.4121,0,0,1-3.8264,3.55c-4.8287,3.3547-10.6182,5.15-16.2473,6.6286l2.1625.88c-12.9709-18.74-27.0061-36.7669-41.42-54.4142q-1.7028-2.0849-3.42-4.1575a1.9164,1.9164,0,0,0-2.3205-.3c-3.0547,2.13-6.1572,4.2-9.3616,6.099-2.4325,1.4416-5.0839,3.1395-7.9024,3.6913A7.9524,7.9524,0,0,1,749.22,338.06c.0828-2.4748,1.4821-4.2677,3.0836-5.9685l4.7626-5.058,16.92-17.97,18.5712-19.7231c3.3356-3.5425,6.7811-7.01,10.02-10.6415.0472-.0529.0973-.1034.146-.155,1.6888-1.7936-1.0142-4.5071-2.7081-2.7081Z"/><path class="cls-6" d="M822.7014,336.4383c4.6435,7.1282,6.4773,26.1407,8.7742,40.293s17.1407,12.675,18.5089-2.2154c1.3086-17.1249-8.1447-34.0224-11.7-42.7361-1.4328-3.5116,2.9644-8.3844,5.8267-11.4224l28.0277-29.6922"/><path d="M821.048,337.4047a27.9718,27.9718,0,0,1,3.1151,7.9453c1.0012,3.7484,1.713,7.5724,2.3548,11.3965.7014,4.18,1.2995,8.3766,1.91,12.5706.5386,3.6977.7478,7.728,2.063,11.25,1.8765,5.0253,6.5332,9.083,12.1746,7.5923,6.1328-1.6206,8.8692-8.3184,9.2643-14.0791.6144-8.9558-1.6261-17.9526-4.74-26.2826-1.3759-3.68-2.9466-7.2847-4.5577-10.8673-.6527-1.4514-1.3134-2.8993-1.9491-4.3583-.5478-1.2575-.9609-2.2046-.5157-3.5741,1.179-3.6266,4.4867-6.4278,7.0667-9.161l8.6766-9.1919c5.7454-6.0866,11.5531-12.12,17.239-18.2628.1132-.1223.2287-.2423.343-.3634,1.6912-1.7916-1.012-4.5049-2.7081-2.7081l-14.4427,15.3005c-4.9062,5.1976-9.9114,10.3183-14.7159,15.6108-2.4257,2.6721-5.3077,5.9637-5.5227,9.751a9.6723,9.6723,0,0,0,1.2191,4.4084c.63,1.4512,1.287,2.8908,1.9362,4.3336,3.3074,7.35,6.3736,14.8563,7.943,22.7952a45.861,45.861,0,0,1,.85,13.18,13.22,13.22,0,0,1-3.0787,7.68,7.1862,7.1862,0,0,1-2.5326,1.8415,6.1243,6.1243,0,0,1-2.4464.426,5.3752,5.3752,0,0,1-2.4612-.77,6.9393,6.9393,0,0,1-2.1463-2.0414c-1.8531-2.6658-2.14-5.9885-2.6123-9.1084-.6205-4.1-1.19-8.207-1.8164-12.3058-1.09-7.1315-2.0815-14.6213-4.82-21.3476a22.0278,22.0278,0,0,0-1.7835-3.593c-1.3233-2.0706-4.6394-.152-3.3069,1.9329Z"/><path class="cls-6" d="M821.8884,330.0776s17.1795,25.94,18.2224,48.64c.4252,14.0753-13.6023,17.03-17.4475,4.0337s-10.1522-32.3237-15.4242-38.5"/><path d="M820.235,331.0441a123.945,123.945,0,0,1,7.1009,12.5031c4.35,8.6091,8.017,17.7151,9.8733,27.2106.8451,4.3231,1.75,9.2814.1774,13.5392a8.2776,8.2776,0,0,1-2.4385,3.5517,5.7908,5.7908,0,0,1-3.1529,1.2826,5.5734,5.5734,0,0,1-3.3842-.9477,9.2364,9.2364,0,0,1-3.0014-3.6106,39.4008,39.4008,0,0,1-2.1026-6.3311q-1.101-3.6012-2.268-7.1816c-1.8259-5.5852-3.7786-11.1365-6.0657-16.5513-1.7064-4.04-3.5342-8.2253-6.38-11.6123-1.5875-1.8892-4.2845.832-2.7081,2.7081,2.3657,2.8153,4.1478,6.961,5.6446,10.5131,2.0982,4.9792,3.8843,10.0931,5.5744,15.223q1.2714,3.859,2.457,7.7458a52.722,52.722,0,0,0,2.3463,7.019c1.5466,3.3037,4.4518,6.1841,8.1721,6.74a9.6553,9.6553,0,0,0,9.1259-3.986c2.7509-3.6483,3.06-8.3125,2.6372-12.7038-1.017-10.5747-4.6913-20.7582-9.1543-30.3315a129.3711,129.3711,0,0,0-9.1463-16.7136c-1.3536-2.0468-4.6717-.1307-3.3069,1.933Z"/><path class="cls-6" d="M811.0455,336.5228s18.1661,25.2726,20.0348,47.85c.9367,14.0068-13.0214,17.4129-17.3482,4.5936s-12.4047-34.7052-17.9148-40.6841"/><path d="M809.3921,337.4893a125.3313,125.3313,0,0,1,8.0233,13.0383c4.88,8.9343,9.0659,18.4766,11.0024,28.5176.7869,4.08,1.5735,8.83-.6049,12.6317a6.7206,6.7206,0,0,1-3.0507,2.9077,5.403,5.403,0,0,1-3.4188.2929c-3.3493-.8564-5.05-4.3263-6.1447-7.54q-2.3538-6.9105-4.9414-13.7387c-2.0325-5.3413-4.1714-10.6559-6.6079-15.8274-1.771-3.7588-3.659-7.736-6.478-10.8425-1.66-1.8292-4.3619.8857-2.7081,2.708,2.3258,2.563,4.1565,6.4352,5.74,9.772,2.25,4.7435,4.221,9.6168,6.0982,14.5182q2.7429,7.1622,5.2047,14.4285c1.4113,4.1432,3.5,8.19,7.8094,9.8787a9.3288,9.3288,0,0,0,9.6231-1.8849c3.2892-2.9336,4.3522-7.74,4.057-11.976-.7643-10.9687-5.0892-21.6888-9.9818-31.4124a130.111,130.111,0,0,0-10.3144-17.4045,1.9725,1.9725,0,0,0-2.62-.687,1.9286,1.9286,0,0,0-.6869,2.62Z"/><path class="cls-6" d="M773.9316,333.6361s26.0472,39.6167,32.8653,60.9971c5.2217,18.8933,29.2725,6.285-7.515-52.7856"/><path d="M772.2781,334.6026c4.6956,7.1441,9.1593,14.4514,13.4891,21.8215,3.748,6.38,7.3759,12.8345,10.7509,19.42a136.4627,136.4627,0,0,1,8.0559,18.1565c1.0216,3.0058,1.9228,6.0259,4.24,8.3315a6.9906,6.9906,0,0,0,6.3645,2.1993c2.4849-.55,4.0765-2.747,4.9579-4.9843,1.2766-3.2407,1.2854-6.9742.95-10.39a68.533,68.533,0,0,0-4.2839-17.1284,160.87,160.87,0,0,0-11.6753-24.17q-2.0366-3.5244-4.1919-6.9777c-1.2984-2.0891-4.6129-.1684-3.3069,1.933a192.1569,192.1569,0,0,1,13.3975,25.0448,84.0987,84.0987,0,0,1,5.74,17.9152,35.4738,35.4738,0,0,1,.6588,6.2664,25.8238,25.8238,0,0,1-.0866,2.6021c-.0166.1919-.0378.3831-.0574.5747-.0516.5032.0562-.3079-.0222.1787-.0621.3862-.128.7708-.213,1.1528-.14.6273-.343,1.2231-.5435,1.8317-.1554.4718.1241-.25-.0073.0262-.0645.1358-.1252.2729-.1932.407a7.8831,7.8831,0,0,1-.3961.6969c-.0641.1-.137.1948-.2.2953-.237.3808.2328-.2579.0389-.0475-.165.179-.3255.3579-.4974.5309-.0724.0728-.1582.1314-.2317.2026-.1567.1516.4349-.2674.0894-.0748-.1844.1029-.3783.2133-.5575.3247-.3225.2006.3284-.1.1375-.0567-.088.02-.1726.0634-.26.0866-.0853.0225-.1816.0362-.264.0666-.4039.1489.192,0,.1071-.0056a4.5491,4.5491,0,0,0-.5445.0147c-.5594.0331.3394.1429-.1461-.0159-.1778-.0582-.3733-.11-.5549-.1557-.5017-.1262.33.2307-.2352-.11-.1825-.11-.3668-.2174-.549-.3279-.5857-.355.1313.18-.2537-.1877s-.7479-.735-1.1014-1.1345c-.3179-.3591.1713.2452-.01-.0094-.08-.1129-.1627-.224-.2411-.3381-.1846-.2687-.3577-.5452-.521-.8272q-.2309-.3986-.4349-.8117c-.0711-.1432-.1371-.2887-.2064-.4327-.0353-.0735-.0664-.1489-.1-.223-.1816-.3983.162.4114-.0013-.0019-.27-.6843-.4912-1.3773-.7062-2.08a116.7525,116.7525,0,0,0-7.48-17.5942c-3.215-6.462-6.7054-12.7861-10.3172-19.0338-4.7849-8.2769-9.7135-16.521-15.0115-24.4835-.0906-.1361-.1786-.2739-.2684-.4106-1.3482-2.0511-4.666-.1347-3.307,1.933Z"/><path class="cls-8" d="M674.5914,255.4907l-24.4845-25.3638c-3.5118-3.6379-9.6061-5.5367-14.1028-3.2248l-14.051,7.2242c-5.9495,3.0588-10.9,11.4373-7.3791,17.1251l.9208,1.4873,14.4492-4.89a20.9652,20.9652,0,0,1,19.3413,4.0053l28.37,19.32"/><path d="M675.9455,254.1366l-21.9268-22.7142c-.8524-.883-1.6954-1.7763-2.5578-2.65-3.6019-3.647-9.2707-5.7878-14.339-4.3567-2.3337.6589-4.5743,2.1128-6.7133,3.2125l-8.3606,4.2985a19.8989,19.8989,0,0,0-8.6767,8.1967,13.8052,13.8052,0,0,0-1.8282,7.8909,13.39,13.39,0,0,0,2.2982,5.69,1.9487,1.9487,0,0,0,2.1625.88l12.0124-4.0651a25.6486,25.6486,0,0,1,6.04-1.5309,19.3864,19.3864,0,0,1,12.4964,3.1987c7.1826,4.8048,14.2537,9.8235,21.4011,14.6908l8.7352,5.9485c2.0425,1.3909,3.9606-1.9262,1.933-3.3069l-21.137-14.394-5.17-3.52-1.5461-1.0529c-.2433-.1657-.5541-.3971-.6-.4321a23.2341,23.2341,0,0,0-21.6985-3.7921l-13.4848,4.5634,2.1625.88a9.9148,9.9148,0,0,1-1.8018-3.9584,10.0408,10.0408,0,0,1,1.4154-5.9084,16.0644,16.0644,0,0,1,6.9833-6.55c4.403-2.2638,8.765-4.64,13.2208-6.7973,3.9634-1.9192,8.878-.02,11.7886,2.9246.8067.8161,1.5945,1.6518,2.3914,2.4774l12.5152,12.9646,9.5763,9.92c1.715,1.7766,4.4212-.9334,2.7081-2.7081Z"/><path class="cls-8" d="M890.4772,178.5028l-67.1743,74.2885c9.2785,4.497,36.6333,26.675,49.6387,38.0627,5.2519,4.5987,16.9043,21.7658,18.0379,31.3506l64.6589-75.0055c36.7318-48.1147,14.94-83.3133-13.65-104.0162h0a76.535,76.535,0,0,0-60.9729-5.768l-2.3307.7654-15.7494,5.6152"/><path d="M889.1232,177.1488l-6.699,7.4084-16.0008,17.6954-19.4372,21.4957-16.74,18.5123c-2.7246,3.0131-5.5309,5.9708-8.1823,9.0489-.0375.0435-.0771.0852-.1156.1278a1.9355,1.9355,0,0,0,.3876,3.0075c4.52,2.2111,8.6519,5.3435,12.6977,8.3021,5.8393,4.27,11.5348,8.7365,17.1706,13.2707q8.2022,6.5989,16.207,13.44a53.8155,53.8155,0,0,1,5.5514,5.1827,71.6357,71.6357,0,0,1,5.6167,7.4419,90.006,90.006,0,0,1,6.1272,10.5153,32.6684,32.6684,0,0,1,3.3576,9.6072c.1846,1.4628,2.06,2.7558,3.2689,1.354l6.8818-7.983,16.3486-18.9646,19.2927-22.38L950.8315,255.7c2.8056-3.2545,5.6942-6.4307,8.2293-9.9031,9.2452-12.6637,16.5432-27.3647,17.7017-43.2107a59.1341,59.1341,0,0,0-8.6875-34.8518c-6.1774-10.2-14.857-18.6607-24.4148-25.69a29.8585,29.8585,0,0,0-4.9449-2.6942q-2.946-1.4-6-2.5647a76.5555,76.5555,0,0,0-12.31-3.5539,78.41,78.41,0,0,0-25.5375-.8931c-10.1784,1.3363-19.5974,5.0313-29.1949,8.4531l-3.2463,1.1575c-2.3051.8218-1.3117,4.5236,1.0181,3.693,6.3552-2.2659,12.6734-4.6973,19.1144-6.7119a75.23,75.23,0,0,1,49.5392,1.7027,43.2339,43.2339,0,0,1,10.215,5.152q3.3852,2.5224,6.5546,5.3186a86.0066,86.0066,0,0,1,11.7206,12.4222c6.9722,9.1856,11.717,20.051,12.401,31.65.8527,14.46-4.3111,28.3913-11.7752,40.5638a82.1136,82.1136,0,0,1-7.5042,10.772L950.082,250.72l-14.4245,16.7327-18.8181,21.8294-17.2633,20.0257-9.5048,11.0258-.4459.5171,3.269,1.3541c-.8634-6.8406-4.5093-13.3228-8.0939-19.0917-3.2216-5.1847-6.8157-10.408-11.4486-14.4363-10.9524-9.5232-22.2526-18.706-33.8837-27.388-4.826-3.6023-9.7638-7.4922-15.1988-10.1507l.3875,3.0075,6.699-7.4085,16.0008-17.6954,19.4372-21.4957,16.74-18.5123c2.7246-3.0131,5.5309-5.9708,8.1823-9.0489.0375-.0435.0771-.0852.1156-.1278,1.6495-1.8242-1.0508-4.5409-2.7081-2.708Z"/><path d="M891.4183,322.1238c3.2855-3.7523-5.21-16.86-19.2794-31.4586l-16.2652,16.9276C873.0411,320.5331,888.006,326.0208,891.4183,322.1238Z"/><path d="M892.7723,323.4778c3.2359-3.8849-.3623-9.9219-2.4977-13.439-4.6059-7.5862-10.6531-14.3533-16.7817-20.7277a1.9378,1.9378,0,0,0-2.7081,0l-14.2522,14.8327-2.0129,2.095a1.95,1.95,0,0,0,.3876,3.0075,113.27,113.27,0,0,0,19.0744,11.8892c4.24,2.0224,9.1439,4.217,13.9517,4.1331a6.59,6.59,0,0,0,4.8389-1.7908c1.6618-1.8149-1.0393-4.5306-2.708-2.7081-.09.0986-.5048.4345-.0608.1116a4.9946,4.9946,0,0,1-.4314.2683c-.2423.1412.3371-.0587-.17.0673-.19.0473-.3805.1-.5706.1488-.5123.13.0419.022-.287.0436-.2339.0153-.4667.0289-.7013.0309a12.4956,12.4956,0,0,1-1.3593-.07,30.8562,30.8562,0,0,1-7.6138-2.222c-7.9154-3.23-15.2241-8.0963-22.03-13.2084l.3876,3.0075L871.48,294.1141l2.0129-2.0949h-2.7081a124.1872,124.1872,0,0,1,15.5,18.8567,29.9758,29.9758,0,0,1,3.49,6.8141c.1411.4433.2515.8914.3524,1.3452q.0351.1778.0631.3569-.0363-.2892-.0141-.0811c.0173.1884.0311.3769.032.5662a4.8419,4.8419,0,0,1-.03.5971c.0615-.5172-.0108-.0668-.0327.0335-.1166.5333.0573-.161-.0358.1415-.04.1313-.4026.549-.0456.12C888.4975,322.6508,891.1927,325.3743,892.7723,323.4778Z"/><line x1="548.7718" y1="307.2347" x2="524.7283" y2="391.9119"/><path d="M546.9253,306.7257l-2.38,8.38-5.7513,20.2553-6.9291,24.4033-6.0221,21.2088c-.9691,3.4128-2.1081,6.8233-2.9185,10.2784-.0119.0507-.0286.1007-.0429.1509-.6743,2.3751,3.02,3.3889,3.693,1.0181l2.38-8.38,5.7513-20.2553,6.9292-24.4033,6.0221-21.2088c.969-3.4128,2.108-6.8234,2.9185-10.2784.0119-.0508.0286-.1007.0428-.1509.6744-2.3751-3.02-3.3889-3.693-1.0181Z"/><path class="cls-8" d="M689.647,241.8048l.8521-9.0406a35.3164,35.3164,0,0,1,13.21-24.352l23.614-18.7355-2.8654-2.6827a21.6031,21.6031,0,0,0-28.0052-1.3l-22.2708,17.2748a21.6031,21.6031,0,0,0-7.62,22.6839l11.094,45.5206L728.64,366.93"/><path d="M691.5619,241.8048c.3395-3.602.501-7.2713,1.079-10.8448a33.8656,33.8656,0,0,1,10.6442-19.6849c2.1359-1.9374,4.491-3.6614,6.7479-5.452l11.241-8.9187,7.403-5.8736a1.9265,1.9265,0,0,0,0-2.7081,61.074,61.074,0,0,0-5.1225-4.5448,23.0907,23.0907,0,0,0-10.5759-4.2844,24.0216,24.0216,0,0,0-18.1975,5.0929q-9.944,7.7085-19.8833,15.4229c-.69.5349-1.3833,1.0651-2.0691,1.6049a23.3306,23.3306,0,0,0-7.0225,9.2c-2.2311,5.2558-2.2325,10.6649-.8993,16.1354l5.7678,23.6659,3.3786,13.8632c.5726,2.3493,1.0142,4.7845,1.7293,7.0958a14.5066,14.5066,0,0,0,1.1958,2.3992l3.3375,6.2683,11.6391,21.86,14.5611,27.348,13.0472,24.5047,7.087,13.31.3358.6307c1.1588,2.1764,4.4659.2438,3.3069-1.933l-4.8446-9.0989-11.66-21.8989-14.3555-26.9618-12.7443-23.9357-7.0225-13.1892a3.7346,3.7346,0,0,0-.3571-.6707c.1583-.0056.2518.8037.0958.0589-.0795-.3792-.1841-.755-.2758-1.1315l-2.4512-10.0576-6.7525-27.7068c-.5041-2.0685-1-4.1392-1.5124-6.2056a19.9618,19.9618,0,0,1,5.3933-19.3484,90.3339,90.3339,0,0,1,7.3871-5.8823l11.6365-9.0261c2.7131-2.1045,5.1845-4.2963,8.0458-5.7541a19.8663,19.8663,0,0,1,20.5968,1.8194,52.456,52.456,0,0,1,4.4963,4.057v-2.7081l-17.7224,14.0611c-2.1659,1.7184-4.3687,3.3993-6.4965,5.1653a37.2135,37.2135,0,0,0-12.2695,19.7418c-1.1356,4.71-1.2949,9.7023-1.7484,14.5139a1.9288,1.9288,0,0,0,1.9149,1.9149,1.9561,1.9561,0,0,0,1.9149-1.9149Z"/><path d="M691.5619,241.8048c.3395-3.602.501-7.2713,1.079-10.8448a33.8656,33.8656,0,0,1,10.6442-19.6849c2.1359-1.9374,4.491-3.6614,6.7479-5.452l11.241-8.9187,7.403-5.8736a1.9265,1.9265,0,0,0,0-2.7081,47.2668,47.2668,0,0,0-6.1826-5.2873,23.53,23.53,0,0,0-24.5241-.6615,37.6283,37.6283,0,0,0-4.2253,3.0162c-6.9531,5.3933-13.9422,10.7435-20.8608,16.1811a23.7026,23.7026,0,0,0-8.702,21.9825c.4028,2.7944,1.2586,5.5868,1.9261,8.3256l7.5287,30.8917c.7057,2.8956,1.2762,5.8693,2.1268,8.7268a13.8867,13.8867,0,0,0,1.1882,2.4331l8.7,16.399,14.4721,27.2776,16.1006,30.3473,13.81,26.0305,7.2552,13.675.3334.6284c1.1556,2.1781,4.4626.2453,3.307-1.933l-4.9623-9.353-12.2773-23.1409-15.62-29.442-15.1258-28.51-10.7866-20.3311-2.5164-4.743c-.0821-.1548-.1553-.3208-.2488-.469-.2533-.4015.1977.276.108.2963-.0051.0011-.458-1.8792-.4828-1.9812l-6.92-28.3926-3.07-12.5978c-.202-.8288-.4019-1.6581-.6059-2.4864a20.3174,20.3174,0,0,1-.0535-10.1259,20.0015,20.0015,0,0,1,6.7175-10.397c.8631-.7068,1.7593-1.3754,2.6407-2.059l12.0505-9.3473,5.6487-4.3815,1.7561-1.3622c.1015-.0787.7231-.5521.5371-.4136a19.948,19.948,0,0,1,22.6869-.8757,40.7719,40.7719,0,0,1,5.5621,4.788v-2.7081l-17.7224,14.0611c-2.1659,1.7184-4.3687,3.3993-6.4965,5.1653a37.2135,37.2135,0,0,0-12.2695,19.7418c-1.1356,4.71-1.2949,9.7023-1.7484,14.5139a1.9288,1.9288,0,0,0,1.9149,1.9149,1.9561,1.9561,0,0,0,1.9149-1.9149Z"/><path d="M676.8708,345.811c.0864.1523.1641.31.2415.4666.0847.1719.1619.3472.2435.5206.0361.0768.1942.4463.0688.1515-.1307-.3069.0726.18.1049.2632a26.4154,26.4154,0,0,1,1.3636,4.8174,24.37,24.37,0,0,1-2.3326,15.1108,35.2172,35.2172,0,0,1-8.5529,10.4186c-1.8692,1.6128.85,4.3115,2.7081,2.7081,5.85-5.0477,10.6642-11.6738,11.95-19.4378a27.873,27.873,0,0,0-1.23-14.0734,19.1424,19.1424,0,0,0-1.2585-2.8786c-1.2166-2.1433-4.5265-.2157-3.3069,1.933Z"/><circle class="cls-9" cx="695.3501" cy="279.4785" r="3.1915"/><circle class="cls-9" cx="715.9995" cy="316.1984" r="3.1915"/><circle class="cls-9" cx="736.649" cy="352.9183" r="3.1915"/><path d="M724.6062,572.4662A231.2354,231.2354,0,0,1,742.732,602.28,51.834,51.834,0,0,1,746.7608,612.4c.606,2.3873,4.3007,1.3756,3.693-1.0181-1.7692-6.9694-5.5378-13.5385-9.0975-19.7222-3.4588-6.0083-7.18-11.8679-11.0477-17.6206-.79-1.1746-1.583-2.3473-2.3954-3.5063-1.4043-2.0033-4.7262-.0915-3.307,1.933Z"/><path class="cls-1" d="M730.4917,392.7859l-.17,31.8605a67.9838,67.9838,0,0,0,18.56,47.044l1.0878,1.1518"/><path d="M728.5768,392.7859l-.1281,24.0394c-.0161,3.0153-.0748,6.034-.0371,9.0494a69.6945,69.6945,0,0,0,5.26,25.7119,74.1638,74.1638,0,0,0,14.9445,22.61c1.6959,1.7955,4.4006-.9162,2.7081-2.7081a70.7573,70.7573,0,0,1-13.1871-19.1634,65.6745,65.6745,0,0,1-5.8468-24.6121c-.3285-8.26.0189-16.583.063-24.8458l.0537-10.0809c.0131-2.4648-3.8167-2.4677-3.83,0Z"/><path class="cls-6" d="M757.9428,534.2276a43.9273,43.9273,0,0,0-8.6566.8605l-.9391,85.5172a43.722,43.722,0,1,0,9.5957-86.3777Z"/><path d="M757.9428,532.3127a49.0911,49.0911,0,0,0-9.1657.9289,1.9332,1.9332,0,0,0-1.4058,1.8465l-.0937,8.53-.2235,20.3558-.2718,24.7466-.2339,21.3029c-.038,3.4632-.2422,6.9705-.1145,10.4327.0018.05-.0011.1-.0017.15a1.938,1.938,0,0,0,1.4059,1.8465,45.6367,45.6367,0,0,0,54.7607-53.9465,45.6625,45.6625,0,0,0-44.656-36.1926c-2.4647-.01-2.4679,3.82,0,3.83a41.8091,41.8091,0,1,1-9.0866,82.6163l1.4058,1.8465.0937-8.53.2235-20.3558.2718-24.7467.2339-21.3029.0779-7.0963a28.4945,28.4945,0,0,0,.0366-3.3364,1.2653,1.2653,0,0,1,.0017-.1495l-1.4059,1.8465a43.5118,43.5118,0,0,1,8.1476-.7921C760.4065,536.1294,760.4117,532.3,757.9428,532.3127Z"/><path class="cls-6" d="M688.049,600.93a43.7166,43.7166,0,0,0-42.1-43.6824c-1.957,13.9142-2.4125,26.7519-.705,37.5662,1.96,12.4126,8.2429,28.2978,17.1635,45.9233A43.7209,43.7209,0,0,0,688.049,600.93Z"/><path d="M689.9639,600.93a45.6311,45.6311,0,0,0-44.015-45.5973,1.9194,1.9194,0,0,0-1.8465,1.4059c-1.6644,11.9306-2.6219,24.15-1.0524,36.146,1.3228,10.1109,4.7108,19.8288,8.6136,29.2065,2.77,6.6557,5.84,13.1791,9.09,19.6125a1.9583,1.9583,0,0,0,2.62.687,46.0251,46.0251,0,0,0,25.0384-29.6226,46.5728,46.5728,0,0,0,1.5516-11.838c.01-2.4647-3.8194-2.4678-3.83,0a41.846,41.846,0,0,1-24.6932,38.1537l2.62.687A220.1709,220.1709,0,0,1,650.41,607.75a91.3309,91.3309,0,0,1-3.2941-13.2882,93.4985,93.4985,0,0,1-.9992-16.1606,166.2909,166.2909,0,0,1,1.6791-20.5443l-1.8465,1.4058A41.7357,41.7357,0,0,1,686.1341,600.93C686.1438,603.3938,689.9736,603.3987,689.9639,600.93Z"/><path class="cls-10" d="M614.0061,878.2715s-4.5019.4331-12.71,1.147"/><path class="cls-11" d="M575.7317,881.5249c-127.0359,9.9507-527.2731,34.1523-537.4723-54.9561-12.1277-105.9575,417.4484-88.7236,414.2567-174.894,0,0,7.0215-93.1919-245.1072-68.9365-185.107,18.5107-81.33,65.1128,41.49,68.9365,256.2776,7.9785,328.4056-82.0215,238.4051-138.83s-339.8947,4.7871-367.3417-39.894,141.7026-44.0425,132.7665-76.5957c-5.3018-19.314-31.7231-23.5738-52.3378-23.8447"/><path class="cls-10" d="M187.5594,372.814c-7.6046.4448-12.7037,1.2-12.7037,1.2"/></svg>