<svg id="Layer_1" data-name="Layer 1" xmlns="http://www.w3.org/2000/svg" width="1000" height="1000" viewBox="0 0 1000 1000"><defs><style>.cls-1{fill:#fc7f3a;}.cls-2{fill:#fff;}.cls-3{fill:#ffc41f;}.cls-4{fill:#389b48;}.cls-5{fill:#ea2f2f;}.cls-6{fill:#fc7272;}.cls-7{fill:#458dc9;}</style></defs><path class="cls-1" d="M161.1026,439.1112l138.4481,91.465c29.69,15.4269,66.6138,6.0669,87.1263-20.366l19.7808-11.7287,25.5115-55.275c-9.3754-8.2871-17.0528-30.5811-31.5857-38.8747-7.9452-4.5342-35.9688,20.8668-43.3761,17.5934l-17.0731,31.8941-4.8578,9.0745L219.1408,404.7373c-13.2028-6.6228-28.5237-16.6153-32.6693-30.7923l-.7506-2.567a50.0975,50.0975,0,0,0-20.6459-27.8548,96.11,96.11,0,0,1-14.5591-11.8706l-13.94-13.6632a7.0441,7.0441,0,0,0-8.1756-.07l-3.5859,2.51c-5.9787,4.1843-3.17,9.3918,1.0317,15.3583l5.799,11.5712c3.2243,6.4338-1.5619,19.3131-13.795,15.052l-19.3526.6166-10.9335-16.4-6.0741,7.289-3.0371,4.252c-2.975,5.6525-2.45,10.7015-1.367,16.9966L81.5546,401.14a29.0011,29.0011,0,0,0,24.48,23.7925l28.416,4.0594A65.0371,65.0371,0,0,1,161.1026,439.1112Z"/><path d="M160.1829,440.6846l11.2615,7.44,27.5579,18.206,35.43,23.4065,34.07,22.5082,24.0171,15.8668L298.01,531.74a17.5011,17.5011,0,0,0,2.0179,1.1152,68.06,68.06,0,0,0,14.6224,5.2189,72.6756,72.6756,0,0,0,58.203-12.0622A74.1531,74.1531,0,0,0,384.63,515.4888a46.3813,46.3813,0,0,1,3.18-3.8317,15.7111,15.7111,0,0,1,2.2259-1.32l16.0931-9.5422a4.6333,4.6333,0,0,0,2.1047-1.8327c.6348-1.2534,1.1817-2.56,1.77-3.8358l7.3358-15.8944,15.2482-33.0377.9546-2.0683a1.88,1.88,0,0,0-.285-2.2082c-5.5409-4.9785-9.1042-12.0476-13.0552-18.2543-4.4978-7.0659-9.4026-14.241-16.2753-19.2095-2.1809-1.5766-4.186-2.7176-6.93-2.4218a24.3464,24.3464,0,0,0-7.5,2.419c-6.0547,2.8034-11.6583,6.5257-17.3923,9.9119a77.2846,77.2846,0,0,1-9.0265,4.811,17.4234,17.4234,0,0,1-3.4379,1.1148,3.4805,3.4805,0,0,1-2.1488-.121,1.8218,1.8218,0,0,0-2.0578.8374l-17.0769,31.901-4.854,9.0676,2.4932-.6538-11.7952-5.9167L295.8244,441.169l-33.918-17.0141-28.82-14.4571q-6.4922-3.2566-12.9843-6.5133c-7.6137-3.8308-15.1047-8.2293-21.38-14.0538a40.2989,40.2989,0,0,1-8.538-10.8181c-1.66-3.196-2.3615-6.6766-3.5531-10.0458a52.1,52.1,0,0,0-16.7242-23.4858c-4.4645-3.5213-9.29-6.4582-13.5837-10.2226-2.1081-1.8483-4.1159-3.8-6.1171-5.7613l-11.6718-11.44a8.7392,8.7392,0,0,0-8.6444-2.1585c-2.5564.7779-5.266,2.9086-7.28,4.649-3.5636,3.0793-3.5711,7.3665-1.6939,11.3833,1.2642,2.7051,3.141,5.0455,4.48,7.7167l3.9131,7.808a10.9844,10.9844,0,0,1,1.482,5.6241,10.1411,10.1411,0,0,1-3.5093,7.4438,7.5315,7.5315,0,0,1-4.0028,1.58c-1.9615.1751-3.5559-.6577-5.4368-.8145a46.5575,46.5575,0,0,0-5.22.1663l-9.3663.2985-4.7579.1515,1.5735.9026-10.9335-16.4a1.8408,1.8408,0,0,0-2.862-.3688c-2.1679,2.6015-4.496,5.1264-6.5006,7.856a30.7122,30.7122,0,0,0-3.4448,5.1767,23.1862,23.1862,0,0,0-1.7271,12.2775c.9314,8.7409,2.8677,17.4509,4.357,26.1074.6451,3.75,1.1687,7.4879,2.619,11.04A30.9937,30.9937,0,0,0,95.795,423.5073a37.5858,37.5858,0,0,0,12.4041,3.561l13.9938,1.9991c3.8944.5563,7.791,1.1,11.6835,1.669a65.0847,65.0847,0,0,1,26.3065,9.9482c1.9687,1.2874,3.7969-1.8669,1.8394-3.1469a67.1715,67.1715,0,0,0-24.3644-9.8539c-3.17-.591-6.387-.9723-9.578-1.4281-7.6559-1.0937-15.4516-1.844-23.0433-3.331a27.372,27.372,0,0,1-17.11-11.0224,31.3089,31.3089,0,0,1-4.9243-13.0436q-2.0547-11.9433-4.1095-23.8866a34.3353,34.3353,0,0,1-.6965-10.1922c.443-3.38,1.9282-5.83,3.8355-8.5.2963-.4149.6016-.8247.89-1.2455.3421-.5-.3857.4464.0188-.0239.6416-.7463,1.2609-1.5131,1.8909-2.2692l4.0211-4.8252-2.862-.3688,8.522,12.783c.8781,1.3172,2.1876,4.3516,3.9849,4.52a45.6965,45.6965,0,0,0,5.5495-.1768l9.8-.3122c1.1087-.0353,2.246-.15,3.3548-.1069a30.3292,30.3292,0,0,1,3.1378.6442c7.7074,1.1531,13.587-4.7151,14.078-12.1964a13.5252,13.5252,0,0,0-1.6142-7.0906l-4.0644-8.11c-1.4719-2.9369-3.6391-5.5368-4.877-8.5677-.829-2.03-.9759-4.0637.5632-5.7831a20.585,20.585,0,0,1,3.658-2.7914c1.5143-1.06,2.9783-2.0911,4.9525-1.8645a4.701,4.701,0,0,1,2.9212,1.44l5.9227,5.805c4.8366,4.74,9.5722,9.6393,14.8421,13.9049,4.4581,3.6086,9.4925,6.4537,13.7037,10.3618A48.6583,48.6583,0,0,1,180.207,362.67,61.8924,61.8924,0,0,1,184.7,374.3789a35.89,35.89,0,0,0,6.6464,12.2284c7.8087,9.6619,18.9837,15.745,29.9079,21.2248l23.4323,11.7543,35.46,17.7875,33.8975,17.0039,19.2085,9.6354.9051.4541a1.854,1.854,0,0,0,2.4932-.6538q9.2877-17.35,18.5751-34.7l3.3558-6.2688-2.0579.8374c1.7742.7287,3.926.26,5.676-.3035a43.8417,43.8417,0,0,0,7.4705-3.4235c5.8238-3.1835,11.36-6.8635,17.177-10.06a46.1093,46.1093,0,0,1,7.7029-3.5859,12.6081,12.6081,0,0,1,2.9963-.6828,4.0794,4.0794,0,0,1,1.8424.2379c3.5083,1.6988,6.5333,4.8287,9.0668,7.7167a88.3385,88.3385,0,0,1,7.5582,10.2984c4.504,6.9452,8.43,15.0115,14.6676,20.6154l-.285-2.2082-11.6446,25.23L410.16,486.1313c-1.66,3.5966-3.6293,7.1826-5.0269,10.8916-.4048,1.0744-.1846-.2236.39-.1059-.2695-.0552-1.2628.7488-1.4791.8771l-7.7908,4.6194-8.16,4.8384c-.7107.4213-1.4769.8035-2.1544,1.2773-1.3293.93-2.2933,2.5793-3.3691,3.8017a70.3429,70.3429,0,0,1-54.2853,23.8468,59.6116,59.6116,0,0,1-31.1548-9.3822l-20.6666-13.6533-32.5593-21.51-35.3519-23.355-30.0678-19.8642-15.7483-10.404-.7131-.4711C160.06,436.2412,158.2323,439.396,160.1829,440.6846Z"/><rect class="cls-2" x="234.5588" y="670.9879" width="267.8708" height="219.2775"/><path d="M502.43,888.4431H245.4186c-3.449,0-6.9595-.19-10.4049,0-.1506.0083-.3039,0-.4549,0l1.8223,1.8222V679.8893c0-2.82.2013-5.7251,0-8.54-.0085-.119,0-.2415,0-.361l-1.8223,1.8222H491.57c3.449,0,6.9595.19,10.4049,0,.1506-.0083.3039,0,.4549,0l-1.8223-1.8222v210.376c0,2.8436-.07,5.6974,0,8.54.003.12,0,.2409,0,.3611a1.8233,1.8233,0,0,0,3.6445,0V679.8893c0-2.8436.07-5.6974,0-8.54-.0029-.12,0-.2408,0-.361a1.8488,1.8488,0,0,0-1.8222-1.8223H245.4186c-3.466,0-6.9393-.0655-10.4049,0-.1515.0029-.3033,0-.4549,0a1.8487,1.8487,0,0,0-1.8222,1.8223v210.376c0,2.8436-.07,5.6974,0,8.54.0029.12,0,.2409,0,.3611a1.8488,1.8488,0,0,0,1.8222,1.8223H491.57c3.466,0,6.9393.0655,10.4049,0,.1515-.0029.3033,0,.4549,0A1.8233,1.8233,0,0,0,502.43,888.4431Z"/><path class="cls-2" d="M148.913,608.4245a57.7033,57.7033,0,0,1,115.2915-3.6451h.1178V873.2039a17.0614,17.0614,0,0,1-17.0615,17.0614H218.2123a17.0613,17.0613,0,0,1-17.0614-17.0614V665.8691A57.7086,57.7086,0,0,1,148.913,608.4245Z"/><path d="M150.7353,608.4245A55.9088,55.9088,0,0,1,247.92,570.782a56.0771,56.0771,0,0,1,14.4625,33.9974,1.8585,1.8585,0,0,0,1.8222,1.8223h.1178L262.5,604.7794V872.074a18.2907,18.2907,0,0,1-.9848,6.5516,15.338,15.338,0,0,1-8.6217,8.7516,18.3334,18.3334,0,0,1-6.8624,1.0659c-9.4205,0-18.88.2677-28.2964-.0066a15.3933,15.3933,0,0,1-14.7616-15.251c-.01-.9006,0-1.802,0-2.7026V665.8691a1.8693,1.8693,0,0,0-1.8222-1.8223,55.8164,55.8164,0,0,1-50.4156-55.6223c-.01-2.3446-3.6542-2.3493-3.6445,0,.0956,23.2255,13.9631,44.934,35.2829,54.3657a60.9,60.9,0,0,0,18.7772,4.9011l-1.8223-1.8222v199.226c0,3.5916-.296,7.3771.2262,10.9469a19.0494,19.0494,0,0,0,18.18,16.039c4.0977.1223,8.2148.0066,12.3137.0066h16.1255c6.9909,0,13.4478-2.9382,17.2-9.0345,2.8329-4.6031,2.771-9.4464,2.771-14.5418V604.7794a1.8487,1.8487,0,0,0-1.8222-1.8222h-.1178l1.8223,1.8222a59.5311,59.5311,0,0,0-118.936,3.6451C147.081,610.77,150.7255,610.773,150.7353,608.4245Z"/><line class="cls-2" x1="182.9284" y1="673.4175" x2="220.5882" y2="673.4175"/><path d="M182.9284,675.24h37.66a1.8233,1.8233,0,0,0,0-3.6445h-37.66a1.8233,1.8233,0,0,0,0,3.6445Z"/><path class="cls-2" d="M491.4268,890.2653h238.232a26.671,26.671,0,0,0,26.6711-26.671V604.7794H536.445"/><path d="M491.4268,892.0876H728.4142a36.3843,36.3843,0,0,0,6.4384-.4795,28.6249,28.6249,0,0,0,19.8986-14.505,29.31,29.31,0,0,0,3.401-13.8936q.0023-1.6886,0-3.3772V604.7794a1.8487,1.8487,0,0,0-1.8223-1.8222H545.4c-2.8587,0-5.7294-.0767-8.5874,0-.1223.0032-.2451,0-.3675,0a1.8233,1.8233,0,0,0,0,3.6445h210.93c2.8268,0,5.7675.234,8.5874,0,.1207-.01.2462,0,.3675,0l-1.8222-1.8223V852.9065q0,5.1052,0,10.2106a25.5133,25.5133,0,0,1-2.9034,12.1466,25.02,25.02,0,0,1-19.7582,13.09c-2.9908.2428-6.0482.0891-9.0439.0891H491.4268a1.8233,1.8233,0,0,0,0,3.6445Z"/><path class="cls-2" d="M694.5052,666.1285H537.0524l-80.179-245.5206V332.242a50.001,50.001,0,0,1,50.0009-50.001h215.855A50.001,50.001,0,0,1,772.73,332.242V587.9036A78.2249,78.2249,0,0,1,694.5052,666.1285Z"/><path d="M694.5052,664.3063H543.4862c-1.9452,0-4.2337-.3356-6.1582,0a1.6906,1.6906,0,0,1-.2756,0l1.7572,1.3378L531.9373,644.6l-16.8636-51.6389-21.2251-64.9947-19.9569-61.111-13.0588-39.9882c-.7251-2.22-1.3725-4.4869-2.1811-6.679.0616.167.0024.6638.0439-.0028.0491-.791,0-1.6007,0-2.393V344.779c0-5.7406-.3184-11.6266.2288-17.3524a48.507,48.507,0,0,1,24.51-37.2874c7.7743-4.3452,16.3079-6.0759,25.1384-6.0759h209.591a70.1065,70.1065,0,0,1,14.0938.9377,48.7008,48.7008,0,0,1,34.6151,27.8808c3.0172,6.8206,4.0349,14.0564,4.0349,21.4426v252.553c0,25.5375-12.1681,49.7733-33.43,64.212a76.9443,76.9443,0,0,1-42.9732,13.2169c-2.3447.0079-2.3492,3.6524,0,3.6445a80.0406,80.0406,0,0,0,80.0472-80.77q.002-4.9746,0-9.9493V334.0992a56.005,56.005,0,0,0-4.5324-23.0569A52.1558,52.1558,0,0,0,735.7567,282.07a66.7186,66.7186,0,0,0-16.8923-1.6514h-210.44a54.376,54.376,0,0,0-26.3868,6.329,52.1365,52.1365,0,0,0-26.1161,36.022c-1.1865,6.5372-.8706,13.2536-.8706,19.8692v74.3789a21.1641,21.1641,0,0,0,.0672,4.0809,56.8711,56.8711,0,0,0,1.9925,6.1014l5.2332,16.0249L479.5132,495.8l21.5091,65.8641,19.96,61.12L533.5372,661.23l1.7581,5.3833a1.8733,1.8733,0,0,0,1.7571,1.3379h151.019c2.036,0,4.1255.1362,6.1583,0,.0909-.0061.1842,0,.2755,0A1.8233,1.8233,0,0,0,694.5052,664.3063Z"/><path class="cls-2" d="M907.677,585.414s18.8312-64.7931,48.68-59.33c10.8786,1.9909,18,12.531,16.3611,23.4682C966.5139,590.9526,907.677,585.414,907.677,585.414Z"/><path d="M908.5556,585.6562a164.455,164.455,0,0,1,9.6842-24.8847,109.34,109.34,0,0,1,11.5265-19.39c4.0393-5.2732,8.9924-10.3885,15.1948-13.0494a19.2431,19.2431,0,0,1,21.5217,4.1987,20.1756,20.1756,0,0,1,5.5564,14.213,32.9676,32.9676,0,0,1-3.0961,12.6833c-6.0524,13.3825-19.7366,20.2314-33.4586,23.1968A104.9708,104.9708,0,0,1,908.12,584.539c-.1477-.0072-.2957-.0224-.443-.0362-1.1671-.1092-1.16,1.7138,0,1.8223a94.9729,94.9729,0,0,0,24.693-1.2467c13.9781-2.4106,28.5272-8.3829,36.1865-21.01,4.6593-7.6814,7.1706-17.8875,3.4783-26.4146A21.1623,21.1623,0,0,0,949.82,525.07c-6.71.972-12.46,5.192-17.04,9.98a85.224,85.224,0,0,0-13.0367,18.7331A169.3475,169.3475,0,0,0,906.96,584.6338c-.0544.1791-.1089.3582-.1612.5379A.9119.9119,0,0,0,908.5556,585.6562Z"/><path class="cls-2" d="M909.7927,487.5735s18.7174-64.826,48.5762-59.4158c10.8821,1.9718,18.0222,12.4994,16.4023,23.44C968.6392,493.0088,909.7927,487.5735,909.7927,487.5735Z"/><path d="M910.6712,487.8157a164.4756,164.4756,0,0,1,9.64-24.9018,109.4846,109.4846,0,0,1,11.4925-19.4108c4.0291-5.282,8.9745-10.4026,15.1713-13.0766a19.2413,19.2413,0,0,1,21.5293,4.159,20.1751,20.1751,0,0,1,5.5824,14.2028,32.9673,32.9673,0,0,1-3.0729,12.6888c-6.029,13.3932-19.7,20.267-33.4171,23.2566a104.8922,104.8922,0,0,1-27.361,1.964c-.1478-.007-.2958-.0218-.4431-.0354-1.1674-.1071-1.16,1.7158,0,1.8223a94.9731,94.9731,0,0,0,24.6908-1.29c13.9733-2.435,28.5134-8.4323,36.15-21.0725,4.6467-7.691,7.1381-17.8979,3.4335-26.4207a21.1628,21.1628,0,0,0-22.2361-12.5462c-6.708.9814-12.4526,5.2142-17.0227,10.0089A85.22,85.22,0,0,0,921.8044,455.92a169.3591,169.3591,0,0,0-12.73,30.873c-.0541.1791-.1082.3583-.16.5381A.9119.9119,0,0,0,910.6712,487.8157Z"/><path class="cls-2" d="M911.7368,397.2751s-3.8727-38.3414,13.4656-40.5115c6.319-.791,15.047,3.2616,16.0413,9.5518C945.0072,390.1258,911.7368,397.2751,911.7368,397.2751Z"/><path d="M912.648,397.2751a91.9449,91.9449,0,0,1-.1806-14.9372,58.8713,58.8713,0,0,1,1.9072-12.1986c.9939-3.54,2.4894-7.19,5.2172-9.7571,3.2541-3.0621,7.7679-3.3321,11.9052-2.0779a14.5152,14.5152,0,0,1,7.2281,4.6c1.6551,2.1039,1.93,4.7195,1.9031,7.3162-.0915,8.9024-6.2981,15.6288-13.57,19.9471A61.6528,61.6528,0,0,1,911.784,396.33c-.095.0263-.193.0455-.2894.0663-1.1457.2473-.6609,2.0044.4844,1.7571a55.0148,55.0148,0,0,0,14.368-5.4873c7.7045-4.1784,14.7261-10.7526,15.9171-19.849a19.7049,19.7049,0,0,0-.3279-7.6006,11.8217,11.8217,0,0,0-5.1465-6.4514c-4.27-2.8075-10.2772-4.0963-15.0885-1.9617-7.6018,3.3727-9.6926,13.4206-10.6156,20.7957a88.9911,88.9911,0,0,0-.2912,19.3362c.0107.1131.02.2264.0313.3395C910.9417,398.431,912.7652,398.4429,912.648,397.2751Z"/><path class="cls-2" d="M877.1084,524.171s-38.1578-57.7183-63.5985-41.1779c-9.272,6.0281-11.7834,18.4983-6.0572,27.96C829.128,546.7678,877.1084,524.171,877.1084,524.171Z"/><path d="M877.8951,523.7111a171.2554,171.2554,0,0,0-16.2809-20.6385,115.8264,115.8264,0,0,0-15.9406-14.8073c-5.2665-3.951-11.2725-7.5452-17.8328-8.75a20.1393,20.1393,0,0,0-17.8266,5.082c-7.0743,6.7146-8.4213,17.7785-3.7026,26.2075A41.0567,41.0567,0,0,0,825.2693,528.19a50.3271,50.3271,0,0,0,22.04,3.89,81.1859,81.1859,0,0,0,29.784-6.9073c.1589-.07.3178-.1407.4751-.2146,1.06-.4985.1365-2.07-.92-1.5734a63.5655,63.5655,0,0,1-6.7522,2.5954,84.5544,84.5544,0,0,1-16.7048,3.8247,56.1616,56.1616,0,0,1-21.1485-1.1486,38.9641,38.9641,0,0,1-19.6945-12.417c-3.0122-3.5462-5.6913-7.5979-6.6381-12.2144a19.9474,19.9474,0,0,1,2.1392-13.72,18.2678,18.2678,0,0,1,17.1071-9.3336c6.164.41,11.95,3.4509,16.9738,6.8516a99.1183,99.1183,0,0,1,15.85,13.81A182.074,182.074,0,0,1,876.05,524.2259c.0922.1339.1824.2694.2721.405C876.9659,525.6046,878.5447,524.6929,877.8951,523.7111Z"/><path d="M920.3522,376.5975,905.097,411.1c-4.023,9.099-6.8186,18.4314-7.1138,28.4622-.045,1.5322-.03,3.067-.03,4.6V721.7056c0,5.2377-.0687,10.4807,0,15.7182.003.2278,0,.4558,0,.6836a.9117.9117,0,0,0,1.8223,0V447.6414q0-2.691,0-5.3821a67.9781,67.9781,0,0,1,4.41-24.4262c1.9892-5.18,4.43-10.2146,6.6732-15.2869l9.3622-21.1748,1.7041-3.8542c.47-1.0629-1.1-1.9912-1.5734-.92Z"/><path class="cls-2" d="M887.8862,428.28s-3.9581-47.82-25.6777-46.5431c-7.9158.4654-17.6821,7.4073-17.4721,15.3339C845.5312,427.076,887.8862,428.28,887.8862,428.28Z"/><path d="M888.7974,428.28a115.2919,115.2919,0,0,0-3.5637-19.973,69.1731,69.1731,0,0,0-5.8024-15.3009c-2.2742-4.1814-5.3565-8.3227-9.6739-10.5552-5.5086-2.8485-11.91-1.6078-17.0707,1.466a18.9859,18.9859,0,0,0-7.849,8.303c-1.3973,3.1834-1.1048,6.6711-.4435,10.0041,2.2387,11.2832,11.5209,18.5729,21.7674,22.5035a68.617,68.617,0,0,0,13.4219,3.5519,56.99,56.99,0,0,0,7.9175.8955c.1284.0028.2568.0125.3852.0162a.9117.9117,0,0,0,0-1.8222,66.5232,66.5232,0,0,1-16.7493-2.8794c-9.5325-2.8255-19.31-8.1516-23.4356-17.7a25.6911,25.6911,0,0,1-1.9934-8.4384,12.1229,12.1229,0,0,1,3.8306-9.7148c4.3635-4.3927,11.4807-7.4242,17.6147-5.3332,4.2105,1.4352,7.3179,5.0238,9.5906,8.7a58.324,58.324,0,0,1,6.0133,14.2247,119.8255,119.8255,0,0,1,4.1836,21.6748c.013.1257.0239.2518.0344.3777C887.0717,429.44,888.8948,429.4507,888.7974,428.28Z"/><path d="M868.559,402.7284l9.8637,14.4317q5.2673,7.7067,10.5346,15.4135a59.4013,59.4013,0,0,1,9.2568,22.405c.2178,1.1509,1.9744.6636,1.7572-.4844a60.3845,60.3845,0,0,0-8.5557-21.5093c-1.1536-1.7862-2.3846-3.5254-3.5843-5.2806L873.98,407.4377l-3.8473-5.629c-.6578-.9624-2.2376-.0519-1.5735.92Z"/><path d="M899.7758,524.171v-8.0475a55.2091,55.2091,0,0,1,.4652-10.0632,29.4233,29.4233,0,0,1,8.1233-15.4673c1.0716-1.0673,2.2412-2.0286,3.392-3.0079l29.3205-24.9516,9.7147-8.267c.8944-.7612-.4-2.0448-1.2885-1.2886l-24.5959,20.9309-13.8279,11.7675c-.7554.6428-1.5144,1.2816-2.2662,1.9285a31.3116,31.3116,0,0,0-9.3836,14.1148c-1.3494,4.198-1.4759,8.4444-1.4759,12.7956v9.5558a.9117.9117,0,0,0,1.8223,0Z"/><path d="M830.88,501.505a11.5521,11.5521,0,0,0,2.4492,1.52c1.7232.95,3.4709,1.8552,5.2193,2.7571,5.4677,2.82,10.9751,5.564,16.4855,8.3q9.7194,4.8253,19.4683,9.5909,4.518,2.2126,9.04,4.4178c2.8513,1.3907,6.04,2.5853,8.51,4.6066a16.1013,16.1013,0,0,1,5.886,11.6792c.0922,2.1873.0156,4.39.0156,6.5785a.9117.9117,0,0,0,1.8223,0c0-1.9323.0148-3.8651,0-5.7973a18.0074,18.0074,0,0,0-3.385-10.4886c-2.2147-3.034-5.1322-4.84-8.4475-6.4547q-4.3049-2.0967-8.6066-4.1994c-12.5312-6.1256-25.0682-12.2479-37.4929-18.5876-2.2459-1.146-4.49-2.2968-6.71-3.4934-.702-.3786-1.404-.7591-2.0917-1.1633-.2209-.13-.4388-.2637-.6557-.4-.0792-.05-.1554-.1041-.232-.1578-.1169-.0819.18.1627.0133.0034-.8478-.81-2.1383.4763-1.2885,1.2885Z"/><path d="M939.6609,553.0531l-21.2461,19.7954-11.18,10.4167a40.0044,40.0044,0,0,0-3.31,3.3033,25.1315,25.1315,0,0,0-5.8712,13.9761c-.2581,2.8249-.1,5.7209-.1,8.5527v7.8609a.9117.9117,0,0,0,1.8223,0c0-4.6886-.014-9.3774,0-14.066a23.44,23.44,0,0,1,4.0321-13.1885,28.3876,28.3876,0,0,1,4.249-4.7155l24.5537-22.8772,8.3388-7.7694c.86-.8012-.4309-2.0876-1.2885-1.2885Z"/><path class="cls-2" d="M889.9568,667.9922s-18.8312-64.793-48.6805-59.33c-10.8786,1.9909-18,12.531-16.3611,23.4682C831.12,673.5309,889.9568,667.9922,889.9568,667.9922Z"/><path d="M890.8354,667.75a166.9624,166.9624,0,0,0-10.3887-26.3973,105.0674,105.0674,0,0,0-12.187-19.8242c-4.2736-5.3223-9.514-10.3087-16.0087-12.7379a20.9922,20.9922,0,0,0-22.504,5.1495,22.0716,22.0716,0,0,0-5.9506,13.9936,32.6451,32.6451,0,0,0,2.7255,13.6049C832.3091,655.68,846.115,663.3455,860.38,666.67a95.8791,95.8791,0,0,0,29.0933,2.2722c.1612-.013.3225-.0241.4835-.0392,1.1577-.1083,1.169-1.9316,0-1.8222a93.1156,93.1156,0,0,1-23.166-1.008c-13.438-2.1576-27.7177-7.4595-35.4946-19.3229-4.7033-7.1748-7.5578-17.1016-4.2241-25.3506a19.3393,19.3393,0,0,1,21.4344-11.7914c6.4,1.2963,11.717,5.6051,16.0086,10.3281a88.5461,88.5461,0,0,1,12.4938,18.6488,168.2872,168.2872,0,0,1,11.9219,29.1563c.05.1642.1.3283.1475.493A.9119.9119,0,0,0,890.8354,667.75Z"/><path d="M856.6844,636.92l20.8021,19.3818,11.38,10.6032c.8353.7782,1.694,1.5412,2.49,2.36a23.1,23.1,0,0,1,6.4489,14.4491c.348,5.24.0527,10.5727.0527,15.8222a.9116.9116,0,0,0,1.8222,0c0-4.7147.0265-9.43,0-14.1449a25.7544,25.7544,0,0,0-8.6-18.9133l-24.5278-22.853-8.58-7.9939c-.8573-.7987-2.1488.4871-1.2886,1.2885Z"/><polyline class="cls-1" points="399.318 774.576 399.282 836.732 324.269 817.923 324.269 749.344"/><path d="M397.4955,774.5758l-.0122,21.114-.0192,33.3514-.0044,7.6911,2.3067-1.7572-25.4789-6.3887-40.29-10.1025-9.2447-2.3181,1.3379,1.7572V749.3438a1.8233,1.8233,0,0,0-3.6445,0V817.923a1.8531,1.8531,0,0,0,1.3378,1.7572l25.4788,6.3887,40.29,10.1025,9.2446,2.3181a1.8432,1.8432,0,0,0,2.3067-1.7572l.0122-21.114.0191-33.3514.0045-7.6911a1.8233,1.8233,0,0,0-3.6445,0Z"/><path class="cls-3" d="M470.844,312.0045l-43.5181-.4352a27.1268,27.1268,0,0,0-24.7053,15.3424L352.3977,431.0582s40.6969-7.8964,72.89,20.0447C428.3248,461.429,470.844,312.0045,470.844,312.0045Z"/><path d="M470.844,310.1822l-14.6518-.1465-23.4126-.2341c-1.7873-.0179-3.5748-.0436-5.3622-.0536a28.9324,28.9324,0,0,0-26.3814,16.2672c-.32.6547-.6331,1.3127-.95,1.969l-5.74,11.9028L385.08,359.103,374.2,381.6643l-10.58,21.9389-8.3661,17.3488c-1.413,2.93-2.8446,5.8519-4.2392,8.7908-.0628.1322-.1273.2638-.1909.3957a1.848,1.848,0,0,0,2.0579,2.6768c.3963-.0765.796-.1371,1.195-.1966.2174-.0324.4351-.0624.6527-.093.0222-.0031-.4188.0527-.03.0047.1673-.0207.3345-.0425.5018-.0628q.9957-.1209,1.9943-.2146a95.476,95.476,0,0,1,12.2658-.3428,91.5087,91.5087,0,0,1,37.1385,8.983,83.019,83.019,0,0,1,10.3258,6.0312q2.5447,1.7448,4.9474,3.6839.578.4686,1.1474.9474c.0816.0686.6519.5555.6526.5548a3.4416,3.4416,0,0,0-.1281-.4747c-.05.0442.2294.5724.2615.6294.8952,1.5906,2.7833,1.3666,3.8736.1592a14.675,14.675,0,0,0,2.1754-3.77c1.01-2.1972,1.903-4.45,2.7664-6.7079,2.5046-6.55,4.74-13.2051,6.9363-19.8639,2.8277-8.5731,5.5437-17.1828,8.2157-25.8055q4.3027-13.885,8.46-27.8146,3.8621-12.9016,7.6434-25.8274,2.9037-9.9159,5.7674-19.8437c.9473-3.2847,1.9478-6.5608,2.8313-9.8635.0392-.1468.0834-.2924.1249-.4385.6431-2.26-2.8724-3.2245-3.5143-.9689q-.962,3.3806-1.9356,6.7578-2.5247,8.78-5.0826,17.5513-3.5664,12.2328-7.1959,24.4471-4.1022,13.7964-8.3107,27.561-4.0737,13.2935-8.319,26.5337c-2.3463,7.2711-4.7381,14.5311-7.3265,21.72-.95,2.6373-1.9245,5.267-2.9792,7.8644q-.1529.3764-.3083.7518-.0856.2066-.1722.4128c-.1.2392.1534-.3551-.0273.0634-.1988.46-.3976.9206-.6046,1.3774-.3362.7416-.6848,1.4794-1.0742,2.1949-.1478.2714-.3.5412-.4655.8021-.0649.1021-.1377.2-.2.3039-.2391.3964.1066-.1041.0571-.0616-.07.06-.1116.1577-.1872.2139-.2406.1789-.0862.0225,0,.0247a2.394,2.394,0,0,1,.7545-.2469,1.462,1.462,0,0,1,1.2821.7008c-.1782-.3134.1584.4354.084.22a3.6525,3.6525,0,0,0-1.314-1.5965,85.8242,85.8242,0,0,0-10.0255-7.32,92.1617,92.1617,0,0,0-39.1089-13.0314,93.2394,93.2394,0,0,0-23.5955.3507c-.3734.0563-.7474.1135-1.1182.1851l2.0579,2.6769,2.8815-5.9754,7.451-15.4511,10.0817-20.9062L385.32,366.97l9.8144-20.3518,6.9136-14.3366a51.1352,51.1352,0,0,1,4.8728-8.9373,25.5194,25.5194,0,0,1,14.7219-9.3721,33.9263,33.9263,0,0,1,7.8056-.56l20.8819.2088,19.4008.194,1.1131.0111C473.19,313.85,473.1917,310.2057,470.844,310.1822Z"/><path d="M420.9137,501.6869l-17.0912.4214s-5.9253,18.9047,10.1578,27.0874C429.6046,537.1449,420.9137,501.6869,420.9137,501.6869Z"/><path d="M420.9137,499.8646l-17.0912.4215a1.8746,1.8746,0,0,0-1.7571,1.3378,28.7915,28.7915,0,0,0-.97,11.4249,22.0262,22.0262,0,0,0,12.1651,17.82c2.078,1.0163,4.5513,1.7937,6.8269.9505a7.2271,7.2271,0,0,0,4.0939-4.7329c1.611-4.63,1.0392-10.1107.447-14.8737a96.4994,96.4994,0,0,0-1.9574-11.01c-.5569-2.2772-4.0723-1.3128-3.5143.9688.6311,2.5805,1.1109,5.2062,1.5158,7.83.3392,2.1988.6073,4.4565.7459,6.8907.0688,1.2073.1011,2.4174.0744,3.6266-.0119.5445-.0357,1.0888-.0751,1.632-.02.2777-.044.5551-.073.8321q-.0189.1807-.04.3613a1.1419,1.1419,0,0,1-.0309.2213,15.3725,15.3725,0,0,1-.6831,2.7654c-.1428.4045.1-.1511-.1279.3047-.083.1661-.1655.3319-.2586.4926-.1007.1739-.21.34-.3247.505-.1552.2233.289-.3258.0074-.0134-.07.078-.1405.1556-.2126.232-.0924.0979-.5482.4547-.1406.1609-.1321.0952-.2681.1823-.4085.2645-.4324.253.2181-.0256-.1807.0927-.2057.0611-.4053.1166-.6161.16a1.6853,1.6853,0,1,0-.2573.0044c-.1949-.0057-.3887-.0077-.5834-.0236-.3468-.0283-.0453-.0058.022.0051-.1342-.0216-.2706-.0449-.4023-.0792-.2859-.0744-.5691-.145-.85-.2376-5.9959-1.9745-10.2756-7.8509-11.3643-14.0978a24.4846,24.4846,0,0,1,.6875-11.5086l-1.7572,1.3379,17.0912-.4215C423.2548,503.4514,423.2637,499.8067,420.9137,499.8646Z"/><path d="M545.4667,481.2285s29.3447,5.6432,32.7306,22.5728-39.5024,20.88-39.5024,20.88"/><path d="M544.9823,482.9856a68.2763,68.2763,0,0,1,12.8321,3.9608c6.7535,2.7705,14.14,6.9463,17.4541,13.7741a14.14,14.14,0,0,1,.8767,2.3406,8.7079,8.7079,0,0,1,.4095,2.1747,7.2762,7.2762,0,0,1-.5065,3.0832,13.0337,13.0337,0,0,1-5.2684,5.5467c-5.71,3.66-12.5479,5.4842-19.1512,6.91q-4.6326,1-9.3323,1.6512-.2089.0294-.418.0579c-.344.0475.3627-.0465-.17.0227q-.3558.0462-.7117.0913-.6205.0777-1.2419.1483c-.3529.04-.7061.0791-1.06.1118-2.3158.2145-2.3383,3.8611,0,3.6445a116.8851,116.8851,0,0,0,12.0214-1.8232c7.0683-1.408,14.3612-3.3075,20.6592-6.915a19.896,19.896,0,0,0,7.1465-6.35,11.2891,11.2891,0,0,0,1.2037-9.0807c-2.1879-8.2329-9.803-13.7044-17.1-17.2072a69.4979,69.4979,0,0,0-16.6741-5.6555c-2.2916-.4427-3.273,3.0692-.9689,3.5143Z"/><path class="cls-3" d="M443.51,311.5719h78.6415c11.2369,0,33.7668,5.8084,38.59,22.3,0,0,5.4667,95.9719,17.4556,168.475-75.16,19.2168-182.673-.2382-182.673-.2382l40.6969-147.8066"/><path d="M443.51,313.3941h66.7265c4.1739,0,8.3541-.068,12.5276.0056a51.4415,51.4415,0,0,1,14.7794,2.6368,39.8081,39.8081,0,0,1,15.1046,8.3777,23.729,23.729,0,0,1,5.0956,6.7383,18.0644,18.0644,0,0,1,.815,1.9014c.0812.2243.4478,1.2018.3613.8312a2.74,2.74,0,0,1,.0168.29c.1823,1.5148.1847,3.0743.2806,4.5965q.7415,11.7774,1.6285,23.545,1.3925,18.6765,3.0785,37.33,2.0526,22.6711,4.6085,45.2932c1.7886,15.6573,3.79,31.2936,6.16,46.874q.8388,5.5142,1.7466,11.0174l1.2727-2.2416a271.6508,271.6508,0,0,1-46.5451,7.2273,463.9224,463.9224,0,0,1-47.6124.9869c-14.2077-.3842-28.4-1.2926-42.55-2.6269-10.3824-.9791-20.8987-2.2027-31.0265-3.6411q-4.7469-.6742-9.4818-1.4307c-1.4031-.2257-2.8782-.6384-4.2984-.72a1.6321,1.6321,0,0,1-.19-.0338l1.2728,2.2415,4.064-14.76,9.69-35.1945,11.7844-42.8,10.1338-36.8046c1.6487-5.9881,3.5-11.9592,4.9556-17.9982.02-.0838.0458-.1665.0687-.25a1.8238,1.8238,0,0,0-3.5143-.9689l-4.064,14.76-9.69,35.1945-11.7844,42.8-10.1338,36.8046c-1.6487,5.9881-3.5,11.9592-4.9556,17.9982-.02.0837-.0458.1664-.0687.25a1.8373,1.8373,0,0,0,1.2728,2.2416c3.7608.68,7.544,1.2479,11.3248,1.8026q14.9379,2.1914,29.9668,3.6964c13.8507,1.4008,27.7452,2.3957,41.6577,2.9061,15.9576.5854,31.9518.5422,47.8928-.4455a296.8531,296.8531,0,0,0,47.2445-6.3835q2.7866-.6315,5.5552-1.3379a1.87,1.87,0,0,0,1.2727-2.2416c-2.566-15.5413-4.6963-31.1522-6.5862-46.7893q-2.7969-23.1418-4.9589-46.3547-1.8819-19.8655-3.4144-39.7623-1.0443-13.5-1.93-27.011-.2159-3.3234-.4171-6.6477a16.02,16.02,0,0,0-2.2393-6.9c-5.79-10.4339-18.3108-15.77-29.5413-17.7824a85.539,85.539,0,0,0-15.3014-.8655H443.51a1.8233,1.8233,0,0,0,0,3.6445Z"/><path class="cls-4" d="M351.3375,814.0361l10.0247,8.27a19.1961,19.1961,0,0,0,25.016-.5017h12.94l-.1148,66.6383H254.46s-2.4679-41.0965,51.57-45.4342a19.3116,19.3116,0,0,0,17.696-19.4728l-.0052-.5166a11.7732,11.7732,0,0,1,12.0844-11.89l8.3437.2178A11.7775,11.7775,0,0,1,351.3375,814.0361Z"/><path d="M350.049,815.3246l8.9937,7.42a25.7,25.7,0,0,0,5.9658,3.9362,21.0566,21.0566,0,0,0,22.6583-3.5872l-1.2886.5337h12.94l-1.8222-1.8223-.0388,22.5012-.0618,35.88-.0142,8.2568,1.8222-1.8223H260.3958c-1.8644,0-3.8275-.177-5.6859,0-.0816.0078-.1673,0-.25,0l1.8222,1.8223a21.7581,21.7581,0,0,1,.0275-2.4187c.0484-.9182.1388-1.8318.2453-2.7448.01-.0853.0652-.4992.0231-.1869-.0447.3313.0177-.1243.0291-.1993.0471-.3077.0929-.6154.1444-.9224q.1562-.9318.3526-1.8564a39.9364,39.9364,0,0,1,8.4775-17.6684c6.5585-7.7845,15.7729-12.5587,25.5045-15.1334a80.1308,80.1308,0,0,1,10.135-1.9815c3.6371-.4738,7.3423-.4753,10.7978-1.8426a21.3686,21.3686,0,0,0,12.9548-14.8437,22.2073,22.2073,0,0,0,.5748-5.1089,11.2383,11.2383,0,0,1,.7653-4.52,10.0831,10.0831,0,0,1,6.9223-5.812,23.1054,23.1054,0,0,1,5.8877-.1652c1.8094.0472,3.6328.031,5.44.1492a9.9729,9.9729,0,0,1,5.4852,2.1369,1.8819,1.8819,0,0,0,2.577,0,1.8333,1.8333,0,0,0,0-2.577,14.7781,14.7781,0,0,0-9.1642-3.24l-6.6588-.1738a15.2846,15.2846,0,0,0-7.598,1.5132,13.73,13.73,0,0,0-6.6393,7.842c-1.0982,3.2861-.411,6.799-1.41,10.1313a17.747,17.747,0,0,1-5.3947,8.2693,17.2776,17.2776,0,0,1-9.0305,4.0285c-3.8559.496-7.7036.78-11.53,1.5213-11.0336,2.1369-21.911,6.6681-29.9255,14.7491A43.8946,43.8946,0,0,0,254.12,876.9359,36.7607,36.7607,0,0,0,252.631,888.28c.0033.0542.0039.1086.0071.1628a1.8573,1.8573,0,0,0,1.8223,1.8222h127.01c5.8157,0,11.6694.1949,17.4828,0,.083-.0027.1665,0,.25,0a1.8491,1.8491,0,0,0,1.8223-1.8222l.0387-22.5012.0618-35.88.0143-8.2568a1.8486,1.8486,0,0,0-1.8223-1.8222h-12.24a6.9448,6.9448,0,0,0-.7,0c-1.3027.1338-2.3775,1.4823-3.4508,2.1628a17.5656,17.5656,0,0,1-14.9937,1.7908c-3.22-1.0838-5.6681-3.236-8.2309-5.35l-7.0768-5.8383C350.83,811.266,348.2376,813.83,350.049,815.3246Z"/><path class="cls-5" d="M413.5511,623.831C412.2572,680.7646,407.5,790.0292,407.5,790.0292l-94.3679.601L303.0265,577.0749a69.0438,69.0438,0,0,1,68.995-71.64H589.5279l5.9539,31.17a71.9065,71.9065,0,0,1-69.4548,85.3879Z"/><path d="M411.7289,623.831c-.29,12.7078-.6762,25.4134-1.0924,38.1176q-.7023,21.4369-1.5174,42.87-.7582,20.2073-1.5755,40.412-.62,15.3729-1.2668,30.7445-.1992,4.7305-.4016,9.4611a32.5962,32.5962,0,0,0-.19,4.4053,1.378,1.378,0,0,1-.0081.1879l1.8222-1.8223-32.1007.2045-50.7145.323-11.5527.0736,1.8223,1.8222-.3472-7.3364-.9255-19.5583-1.339-28.2985L310.7544,701.88l-1.6719-35.3337-1.5975-33.7587-1.3444-28.4132-.9337-19.73c-.1193-2.5216-.2556-5.0431-.358-7.5655a67.2093,67.2093,0,0,1,52.4224-68.2018,82.6594,82.6594,0,0,1,18.3024-1.6194H589.5279l-1.7572-1.3378,4.1276,21.6092q.89,4.6575,1.7793,9.3149a71.5539,71.5539,0,0,1,1.1609,17.5275,70.3047,70.3047,0,0,1-43.2947,60.5808,73.6776,73.6776,0,0,1-26.88,5.2415l-15.3956.2515-26.2848.4295-29.7841.4867-25.4981.4166-13.5344.2212-.6152.01c-2.3428.0383-2.35,3.6829,0,3.6445l9.7317-.159,23.714-.3875,29.9388-.4892,27.942-.4565,18.1767-.297a84.7779,84.7779,0,0,0,22.4239-2.95,73.6142,73.6142,0,0,0,52.8481-76.9666,111.2566,111.2566,0,0,0-1.7207-11.1417l-4.9289-25.8044-.3917-2.05a1.8365,1.8365,0,0,0-1.7571-1.3378H381.24c-3.0286,0-6.0572-.0053-9.0857,0a70.8932,70.8932,0,0,0-67.5428,48.94,73.5533,73.5533,0,0,0-3.3185,26.4L301.95,592.84l1.163,24.58,1.4922,31.5343,1.6583,35.0447,1.6576,35.03,1.4956,31.6078,1.1541,24.39.6538,13.8166.0846,1.7867a1.8542,1.8542,0,0,0,1.8222,1.8223l32.1007-.2045,50.7146-.323,11.5526-.0736a1.8582,1.8582,0,0,0,1.8223-1.8222q.2457-5.6433.4826-11.2868.6145-14.526,1.2033-29.0531.8034-19.8039,1.5573-39.61.8148-21.4765,1.5443-42.9564.6552-19.5443,1.1647-39.0931.0515-2.0994.0993-4.1989C415.4269,621.4848,411.7824,621.4856,411.7289,623.831Z"/><path class="cls-2" d="M399.2031,888.4431H254.46s-.0948-5.75,3.17-14.2334l20.7032-.647,9.8257-3.7065a37.9485,37.9485,0,0,1,24.3077.1038v0a37.9485,37.9485,0,0,0,21.3.9705l7.8037-1.9034a37.948,37.948,0,0,1,15.9547-.4365l11.06,2.0644a37.9482,37.9482,0,0,0,24.0768-3.4341l6.6554-3.3629Z"/><path d="M399.2031,886.6208H260.3958c-1.8644,0-3.8276-.177-5.686,0-.0816.0078-.1673,0-.25,0l1.8223,1.8223c-.06-4.6486,1.4787-9.4683,3.1051-13.749l-1.7572,1.3378,19.4763-.6086c2.4741-.0773,4.6659-1.218,6.9692-2.0869,4.7932-1.8081,9.4441-3.3807,14.6492-3.5776a36.43,36.43,0,0,1,12.16,1.6014,49.04,49.04,0,0,0,11.4759,2.3965c5.6383.3594,10.9691-.8443,16.3872-2.1658,1.79-.4367,3.58-.9173,5.3926-1.2528a35.53,35.53,0,0,1,12.4329-.0744c3.3618.5822,6.7106,1.25,10.0645,1.8755a43.2977,43.2977,0,0,0,17.9975-.0714c5.093-1.1854,9.632-3.62,14.2564-5.9564l1.3454-.68-2.7419-1.5735-.1,21.4632-.0146,3.1218c-.0109,2.3455,3.6336,2.3484,3.6445,0l.1-21.4632.0146-3.1218a1.843,1.843,0,0,0-2.742-1.5735,104.48,104.48,0,0,1-9.8775,4.7915,36.8523,36.8523,0,0,1-19.8259,1.7518c-3.4372-.6381-6.8725-1.2865-10.31-1.9243a42.39,42.39,0,0,0-17.992.5355c-4.2729,1.0422-8.5893,2.3536-12.992,2.659a36.438,36.438,0,0,1-12.02-1.1529c-1.783-.4808-3.5093-1.141-5.2989-1.6005a41.3229,41.3229,0,0,0-5.8882-1.0425,39.5508,39.5508,0,0,0-18.1422,2.4092l-5.7228,2.1588c-.684.2581-1.3839.4913-2.0572.7761a3.4845,3.4845,0,0,0-.4046.1526c-.0071-.0832.7289-.026.3038-.0533-1.0845-.07-2.2233.0694-3.3083.1033l-6.0117.1879-10.595.3311-.6252.0195a1.897,1.897,0,0,0-1.7571,1.3379c-1.7391,4.5771-3.2993,9.7545-3.2353,14.7178a1.85,1.85,0,0,0,1.8222,1.8222H381.4708c5.8157,0,11.6694.1949,17.4828,0,.0829-.0027.1664,0,.25,0A1.8233,1.8233,0,0,0,399.2031,886.6208Z"/><path d="M317.1206,838.9843c.2024.1068.3963.232.5868.3583.2167.1437.4181.317.6379.4542-.1055-.0658-.37-.2937-.1405-.1073.06.0485.12.0961.1791.145q.2237.1842.4394.378.4338.39.8331.8152.2271.2423.4421.4956c.0687.0811.1348.1642.2031.2456.1884.2247-.2239-.3085.0162.02a13.2869,13.2869,0,0,1,.8245,1.2589q.1979.3468.3722.7064c.0551.1137.1066.2289.16.3436.02.0438.0975.2482.0093.0182-.0938-.2443.0122.0361.03.083a12.538,12.538,0,0,1,.5527,1.9008c.0332.1657.0566.3332.0886.499.04.2088-.0117-.1016-.0136-.1187.011.0995.0235.1988.0334.2985.0412.4143.0586.83.0611,1.2458a1.8223,1.8223,0,0,0,3.6445,0,14.3385,14.3385,0,0,0-6.3088-11.6759,7.7893,7.7893,0,0,0-.8109-.5109,1.8225,1.8225,0,1,0-1.8395,3.1469Z"/><path d="M307.567,844.1285c.2024.1069.3963.232.5868.3584.2167.1436.4181.3169.6379.4542-.1055-.0659-.37-.2938-.14-.1074.06.0485.12.0962.1791.145q.2238.1843.4395.378.4337.39.833.8152.2271.2422.4421.4956c.0687.0811.1348.1643.2031.2456.1884.2247-.2239-.3085.0163.02a13.2522,13.2522,0,0,1,.8244,1.2588q.1978.3469.3722.7064c.0551.1137.1066.229.16.3436.02.0438.0974.2482.0092.0183-.0937-.2444.0123.036.03.0829a12.5532,12.5532,0,0,1,.5528,1.9008c.0332.1658.0565.3332.0885.499.04.2088-.0117-.1015-.0136-.1187.0111.1.0235.1989.0335.2985.0412.4143.0585.83.0611,1.2458a1.8223,1.8223,0,0,0,3.6445,0,14.3389,14.3389,0,0,0-6.3089-11.6759,7.8017,7.8017,0,0,0-.8109-.5109,1.8225,1.8225,0,1,0-1.8395,3.1469Z"/><path d="M294.6028,846.3332c.2024.1068.3962.232.5868.3583.2167.1437.4181.317.6378.4542-.1055-.0658-.37-.2937-.1405-.1073.06.0485.12.0961.1792.145q.2236.1842.4394.378.4338.39.833.8152.2273.2422.4422.4956c.0687.0811.1348.1642.203.2456.1885.2247-.2238-.3085.0163.02a13.2869,13.2869,0,0,1,.8245,1.2589q.1977.3468.3722.7064c.055.1137.1066.2289.16.3436.02.0438.0974.2482.0092.0182-.0937-.2443.0123.0361.03.083a12.5383,12.5383,0,0,1,.5528,1.9008c.0332.1657.0566.3332.0886.499.04.2088-.0117-.1016-.0136-.1187.011.1.0235.1988.0334.2985.0412.4142.0585.83.0611,1.2458a1.8223,1.8223,0,0,0,3.6445,0,14.3388,14.3388,0,0,0-6.3088-11.6759,7.78,7.78,0,0,0-.811-.5109,1.8225,1.8225,0,1,0-1.8394,3.1469Z"/><rect class="cls-6" x="305.5066" y="763.5772" width="109.9855" height="29.7608" rx="7.2111"/><path d="M408.2809,791.5158H328.9816c-5.3955,0-10.7991.0867-16.1942,0a5.47,5.47,0,0,1-5.4256-4.6944,41.748,41.748,0,0,1-.033-5.1178v-8.282c0-2.0039-.2289-4.0911,1.0289-5.8128,1.7-2.3266,4.1922-2.2093,6.696-2.2093h92.6348a6.2909,6.2909,0,0,1,3.2176.6812c2.2886,1.2942,2.7637,3.5179,2.7637,5.9134,0,4.6387.0354,9.2788,0,13.9173a5.4769,5.4769,0,0,1-5.3889,5.6044c-2.3413.0557-2.35,3.7,0,3.6445a9.1392,9.1392,0,0,0,8.96-7.9985,46.6757,46.6757,0,0,0,.0737-5.4582v-8.4714c0-2.4047.0583-4.7208-1.1788-6.9084a9.2,9.2,0,0,0-7.9324-4.5688c-.5547-.0091-1.11,0-1.665,0H331.5614c-6.1937,0-12.3888-.0387-18.5824,0a9.4064,9.4064,0,0,0-6.4135,2.4207c-2.2267,2.0353-2.8812,4.792-2.8812,7.681,0,4.7124-.07,9.43,0,14.1419a9.2018,9.2018,0,0,0,6.2066,8.7076,10.7056,10.7056,0,0,0,3.4868.4541h94.9032A1.8233,1.8233,0,0,0,408.2809,791.5158Z"/><line class="cls-7" x1="419.2136" y1="613.7914" x2="393.702" y2="613.7914"/><path d="M419.2136,611.9692H393.702a1.8233,1.8233,0,0,0,0,3.6445h25.5116a1.8233,1.8233,0,0,0,0-3.6445Z"/><path d="M446.631,566.0873H423.5734c-7.666,0-15.3465-.1409-23.0114.0066a38.7624,38.7624,0,0,0-35.4638,25.5419c-1.9771,5.5122-2.1675,11.1338-2.3194,16.8776l-.5274,19.94-.7866,29.7347-.898,33.95-.8607,32.5379-.6745,25.4989-.34,12.8327-.015.57c-.0621,2.3461,3.5824,2.3447,3.6445,0l.232-8.7722.599-22.646.8172-30.8928.8962-33.8781.8267-31.2565.61-23.0665c.0843-3.1868.1562-6.3743.2529-9.5608a35.0307,35.0307,0,0,1,23.7747-32.0175,40.9385,40.9385,0,0,1,12.979-1.755H446.631a1.8233,1.8233,0,0,0,0-3.6445Z"/><path class="cls-1" d="M81.1944,354.0229c6.9494-9.3619,18.58-23.2769,32.5781-33.1591,14.3613-9.8228,20.02.9732,8.62,13.65-7.3213,8.1414-16.8023,19.0833-23.5925,28.42"/><path d="M82.7678,354.9426a181.1874,181.1874,0,0,1,13.9213-16.6092c2.8991-3.0561,5.9176-6.0009,9.0753-8.79a77.7083,77.7083,0,0,1,10.2142-7.9454c2.2756-1.4127,5.467-3.0913,8.086-2.6974,1.7971.27,2.5321,1.3757,2.5752,3.1612.0691,2.8671-1.4545,5.66-3.0106,7.9622-2.2454,3.3224-5.22,6.1955-7.8581,9.206-6.4511,7.3624-12.7747,14.87-18.5447,22.7831-1.3836,1.8974,1.7772,3.7179,3.1469,1.8395,5.5037-7.548,11.5483-14.7008,17.6966-21.7277,4.8476-5.54,11.9571-11.6438,12.2115-19.6038a6.9237,6.9237,0,0,0-3.1482-6.3671c-2.5237-1.4832-5.7769-.9815-8.3787-.0007-4.2131,1.5882-7.7986,4.4078-11.2777,7.1983a129.1752,129.1752,0,0,0-10.3284,9.2908,182.4925,182.4925,0,0,0-17.5275,20.46,1.8364,1.8364,0,0,0,.6537,2.4932,1.8631,1.8631,0,0,0,2.4932-.6537Z"/><path class="cls-1" d="M89.9936,361.2052a126.8507,126.8507,0,0,1,41.6548.5994c17.0951,3.2393,13.4418,14.8679-3.5844,15.7408-10.9348.5606-25.3777,1.5683-36.784,3.3485"/><path d="M90.478,362.9624a125.4531,125.4531,0,0,1,34.9488-.2821c3.8509.5031,8.0029.9285,11.5517,2.6255a9.9928,9.9928,0,0,1,2.9487,1.9843,3.525,3.525,0,0,1,1.0278,1.8531c.0731.36.0106.0881.0046.013.0089.1105.0108.221.0127.3319.0052.3115-.0065.27-.0049.2606a2.3911,2.3911,0,0,1-.3088.9491,5.8812,5.8812,0,0,1-1.7071,1.8975,17.7109,17.7109,0,0,1-8.0871,2.8712c-3.8.545-7.7272.5151-11.557.766-9.5306.6244-19.0691,1.4421-28.5118,2.9043a1.837,1.837,0,0,0-1.2728,2.2416,1.8655,1.8655,0,0,0,2.2416,1.2727c8.9805-1.3906,18.06-2.1461,27.1237-2.7465,4.24-.2808,8.5551-.287,12.7631-.8968a20.89,20.89,0,0,0,9.14-3.2655,8.1751,8.1751,0,0,0,3.8118-5.9226,7.2332,7.2332,0,0,0-3.0258-5.9335c-2.807-2.2452-6.4465-3.3158-9.9347-3.9233a137.5965,137.5965,0,0,0-14.7306-1.7567,131.6072,131.6072,0,0,0-27.4024,1.2419,1.8359,1.8359,0,0,0-1.2728,2.2416,1.8676,1.8676,0,0,0,2.2416,1.2727Z"/><path class="cls-1" d="M87.5942,377.3191c11.5368-1.6855,29.603-3.2692,46.4839-.329,17.0951,3.2392,13.4418,14.8678-3.5844,15.7407-10.0044.5129-22.9452,1.4-33.81,2.9107"/><path d="M88.0786,379.0763a179.6581,179.6581,0,0,1,22.97-1.8846c4.509-.0712,9.0232.0487,13.5181.42a56.76,56.76,0,0,1,12.7353,2.0645c2.0845.6731,4.6281,1.8215,5.6871,3.6142a2.0268,2.0268,0,0,1,.3773.9558c.0966.4063.0176-.0407.0327.2617.0057.1157-.0391.7065.0132.344a3.3011,3.3011,0,0,1-.86,1.8351c-1.5832,1.8333-4.0454,2.7807-6.357,3.3822-3.6066.9383-7.3656.9161-11.063,1.1367-9.6691.5769-19.3355,1.3544-28.9335,2.6787a1.8353,1.8353,0,0,0-1.2728,2.2416,1.869,1.869,0,0,0,2.2416,1.2727c9.2036-1.27,18.4876-1.98,27.7584-2.5362,6.5876-.3954,14.8021-.1462,19.8524-5.2224a6.9046,6.9046,0,0,0,2.12-6.28c-.5224-2.4922-2.6353-4.367-4.7629-5.5576-3.526-1.9732-7.5652-2.64-11.5148-3.1733a125.34,125.34,0,0,0-14.83-1.083A180.0964,180.0964,0,0,0,87.11,375.562a1.8358,1.8358,0,0,0-1.2727,2.2416,1.8674,1.8674,0,0,0,2.2415,1.2727Z"/><path class="cls-1" d="M90.0239,392.5046c11.5368-1.6856,29.603-3.2693,46.4838-.3291,17.0952,3.2392,13.4419,14.8678-3.5844,15.7407-7.4333.3811-16.4877.9688-25.1074,1.8653a3.9658,3.9658,0,0,0-3.2443,5.4838h0"/><path d="M90.5083,394.2617a179.1963,179.1963,0,0,1,23.4168-1.891,136.2152,136.2152,0,0,1,13.7689.4856c4.2417.3754,8.6479.7936,12.6856,2.2243,2.0468.7252,4.4623,1.9376,5.2945,3.8815-.0694-.162.1622.906.15.6479a4.3437,4.3437,0,0,1-.0063.5806c.0308-.3612-.0554.2238-.0861.34a4.26,4.26,0,0,1-1.2518,1.8655c-1.8782,1.7917-4.6563,2.6471-7.1707,3.1629-3.9549.8111-8.1148.7228-12.1326.9788-5.3217.3392-10.64.7483-15.9463,1.2772-2.2.2193-4.1588.5363-5.5862,2.3988a5.7153,5.7153,0,0,0-.8293,5.5357,1.8866,1.8866,0,0,0,2.2415,1.2727,1.832,1.832,0,0,0,1.2728-2.2416,2.2157,2.2157,0,0,1,1.3049-3.1159,15.741,15.741,0,0,1,3.0161-.3437q2.0172-.1928,4.0365-.364c4.7448-.4038,9.4963-.7292,14.25-1.0023,6.2348-.358,14.431-.4136,18.8156-5.7352a6.5587,6.5587,0,0,0,1.4454-6.17,9.7649,9.7649,0,0,0-5.1278-5.327c-3.7169-1.9-7.8656-2.5059-11.9574-3.0327a124.5442,124.5442,0,0,0-14.3473-.9652A180.8053,180.8053,0,0,0,89.54,390.7474a1.836,1.836,0,0,0-1.2728,2.2416,1.8675,1.8675,0,0,0,2.2416,1.2727Z"/><polyline class="cls-1" points="219.479 719.619 192.006 775.374 133.003 725.379 163.28 663.845"/><path d="M217.9059,718.699l-9.3326,18.94-14.7416,29.9165-3.4,6.899,2.862-.3688-20.0407-16.9811-31.69-26.8522-7.2715-6.1614.2849,2.2083,10.257-20.8459,16.2793-33.0849,3.7409-7.6029c1.0318-2.0971-2.11-3.9461-3.1469-1.84L151.45,683.7716l-16.2792,33.0849-3.7409,7.6029a1.8648,1.8648,0,0,0,.2849,2.2083l20.0407,16.9811,31.69,26.8522,7.2715,6.1614a1.8452,1.8452,0,0,0,2.862-.3688l9.3326-18.94,14.7416-29.9165,3.3995-6.899c1.0331-2.0966-2.1091-3.9456-3.1469-1.84Z"/><path class="cls-5" d="M303.4473,592.93c-26.2968,50.5133-78.8051,146.4521-78.8051,146.4521l-84.9384-41.1235L224.92,502.1814a69.0438,69.0438,0,0,1,93.5354-33.8193L513.6161,564.39l89.6448-25.8186v0C593.7037,595.2059,559.82,637.7223,502.43,640.01l-55.8355,1.3384a121.4107,121.4107,0,0,1-52.5756-9.6838Z"/><path d="M301.8738,592.01c-12.4563,23.9208-25.2348,47.6747-38.04,71.41q-16.9038,31.3315-33.9591,62.5812-3.4,6.2323-6.8057,12.461l2.4932-.6537-28.744-13.9166L151.2,701.8054l-10.576-5.12.6537,2.4931,14.7266-33.8849,31.5717-72.6446,29.5652-68.0278c6.5035-14.9641,11.9535-30.8246,23.9131-42.4761a67.8614,67.8614,0,0,1,50.8214-18.9642c10.0811.5662,19.44,3.6946,28.4194,8.1126l47.0392,23.1454,73.9,36.3622,59.7329,29.3911c3.8027,1.8711,7.5793,4.0432,11.5006,5.6588,1.4154.5832,2.5435.0338,3.9537-.3724l11.5193-3.3177,70.65-20.3479,5.1542-1.4845-2.2416-2.2416c-5.2478,31.0984-18.8342,62.6251-44.8785,81.8078a94.9717,94.9717,0,0,1-43.1418,17.3194c-8.7377,1.2342-17.6249,1.1312-26.429,1.3422l-33.8.81c-2.5061.06-5.0125.1114-7.5181.1908A120.3115,120.3115,0,0,1,411.5,635.73c-8.6607-2.2638-16.7789-5.7324-24.969-9.235L357.916,614.2575,305.39,591.794l-1.0234-.4377c-2.1328-.9121-3.9917,2.2265-1.8394,3.1469l46.776,20.0046c16.0318,6.8563,31.9373,14.2439,48.2053,20.531,16.5436,6.3934,33.73,8.5,51.36,8.0769l31.3908-.7524c8.1451-.1953,16.3311-.1637,24.4663-.6456,16.2211-.9608,32.212-5.3386,46.2175-13.682,27.7433-16.5274,44.2182-46.1521,51.6014-76.8462q1.4484-6.0213,2.4736-12.1341a1.8457,1.8457,0,0,0-2.2416-2.2416l-30.3628,8.7448L524.2578,559.428l-11.1261,3.2044,1.4041.1837L490.32,550.901,434.747,523.5566l-62.6053-30.8045-44.7412-22.0146c-2.6435-1.3007-5.2826-2.6108-7.9306-3.9022a70.8619,70.8619,0,0,0-96.8282,36.048l-15.1874,34.9453-26.6235,61.2591-26.66,61.3438-15.3163,35.2419-.7237,1.6653a1.8565,1.8565,0,0,0,.6537,2.4932l28.744,13.9166,45.6183,22.0863,10.5761,5.12a1.8579,1.8579,0,0,0,2.4932-.6537q9.6681-17.6653,19.2752-35.3642,19.6941-36.2382,39.1717-72.5939,10.2622-19.2025,20.3582-38.494C306.1027,591.7717,302.9587,589.9268,301.8738,592.01Z"/><rect class="cls-6" x="173.2793" y="653.5417" width="29.7608" height="109.9855" rx="7.2111" transform="translate(-530.6545 564.5507) rotate(-63.8008)"/><path d="M225.3826,741.4079l-12.98-6.3868-28.8845-14.2124L154.23,706.3978c-4.8412-2.3821-9.7279-4.69-14.53-7.15a5.485,5.485,0,0,1-2.9025-6.6657,38.6813,38.6813,0,0,1,2.16-4.4947l3.6564-7.4311c.89-1.8092,1.61-3.78,3.465-4.8231,2.52-1.4158,4.7169-.2422,6.9543.8587l8.18,4.0249L188.89,694.3354l30.0567,14.7892,17.2045,8.4653a6.6556,6.6556,0,0,1,2.6479,2.0074c1.5115,2.1108,1.0324,4.3667-.0158,6.4969-2.0479,4.1621-4.0647,8.3411-6.1444,12.4875a5.5012,5.5012,0,0,1-7.2559,2.8262c-2.1146-.9787-3.968,2.1617-1.8394,3.1469a9.1783,9.1783,0,0,0,11.6241-3.0443,40.4936,40.4936,0,0,0,2.4759-4.8649l3.74-7.6011c1.0522-2.1383,2.201-4.2214,2.0583-6.7038a9.18,9.18,0,0,0-4.99-7.67c-.4937-.253-.9962-.49-1.4939-.7351l-7.9642-3.9187L200.569,696.03l-30.8849-15.1967c-5.5574-2.7345-11.099-5.5043-16.6734-8.2041a9.4328,9.4328,0,0,0-6.8357-.7531,9.793,9.793,0,0,0-6.0175,5.5368c-2.0807,4.2286-4.2166,8.4344-6.2436,12.689a9.24,9.24,0,0,0,4.476,12.5536l6.4379,3.1677,26.9377,13.2546,31.5767,15.5371L222.6,744.0905l.9435.4643C225.64,745.5866,227.4893,742.4444,225.3826,741.4079Z"/><path d="M385.6826,558.0734l-19.0612-6.7155-36.4775-12.8515q-11.4084-4.0192-22.8168-8.0386c-6.935-2.4369-14.316-3.7217-21.642-2.62a30.0285,30.0285,0,0,0-20.2858,13.0388c-2.8381,4.1513-4.7615,9.0728-6.8855,13.615l-11.7009,25.0211-16.0016,34.2179-16.6462,35.5962L200.5385,678.476l-7.0635,15.1046-.3191.6825c-.9876,2.1118,2.1531,3.9645,3.1469,1.8394l4.89-10.4563,12.2941-26.29L229.57,624.9642l16.3716-35.0093,13.1311-28.0794q3.1833-6.8071,6.3666-13.6145c2.3772-5.0741,5.701-9.7266,10.4326-12.8487,7.2522-4.7852,16.1991-5.1638,24.4613-3.2209a89.1735,89.1735,0,0,1,9.1845,2.9038l12.2462,4.3145,35.7818,12.6063,25.8113,9.0937,1.3569.478c2.2164.7809,3.17-2.7389.9688-3.5143Z"/><path class="cls-4" d="M159.007,733.8422l5.3435,11.8466a19.196,19.196,0,0,0,22.6674,10.5942h0l11.61,5.7127-29.5233,59.7415L39.2324,757.8344s15.9307-37.967,66.337-17.9961a19.3086,19.3086,0,0,0,24.4689-9.6614l.2227-.4645a11.7742,11.7742,0,0,1,16.0932-5.3352l7.39,3.8791A11.7778,11.7778,0,0,1,159.007,733.8422Z"/><path d="M157.4335,734.7619l4.8267,10.7007c2.58,5.7208,6.8467,10.1854,12.8834,12.2511a21.0306,21.0306,0,0,0,12.3588.3265l-1.4042-.1837,11.61,5.7127-.6538-2.4932-9.9689,20.1724-15.8963,32.1669-3.6581,7.4022,2.4932-.6538-12.966-6.38-31.0129-15.26-37.4947-18.449L56.0626,764.09l-10.5848-5.2082a56.548,56.548,0,0,0-5.1018-2.51,2.4815,2.4815,0,0,1-.2239-.11l.8374,2.0578c-.3888.9237-.0054.0379.1147-.21.2762-.57.5755-1.128.8874-1.6787.4863-.8589,1.0076-1.6981,1.5569-2.5181q.4864-.7261,1.0024-1.4321.2784-.381.5649-.7559c.1943-.2551-.1837.23.1012-.129.1191-.15.238-.3.3584-.4491a39.9728,39.9728,0,0,1,16.5134-12.32c10.1283-3.9739,21.2553-3.5633,31.6652-.9322a91.35,91.35,0,0,1,10.7343,3.4668,21.09,21.09,0,0,0,26.1963-8.5566,41.2907,41.2907,0,0,1,2.3242-4.12,10.1834,10.1834,0,0,1,3.4388-2.8,9.9608,9.9608,0,0,1,8.5173-.1667c1.531.6982,3.0015,1.5611,4.49,2.3426a32.69,32.69,0,0,1,4.9479,2.764,10.5936,10.5936,0,0,1,3.03,3.9368c.9976,2.1208,4.1405.2729,3.1469-1.8394-2.3332-4.9606-7.2113-6.9195-11.7646-9.3095a18.2729,18.2729,0,0,0-6.4885-2.3212,13.5341,13.5341,0,0,0-9.3811,2.474,13.9579,13.9579,0,0,0-3.4949,3.6706c-.9235,1.4165-1.5209,3.0056-2.4815,4.4076a17.6013,17.6013,0,0,1-7.4309,6.0837,17.4252,17.4252,0,0,1-9.3492,1.2777c-3.6951-.53-7.1709-2.3513-10.7123-3.4706-11.3575-3.5895-23.8582-5.0191-35.41-1.4532a43.791,43.791,0,0,0-19.7,12.6752,39.3668,39.3668,0,0,0-6.6468,9.8175c-.0854.19-.1644.3835-.2453.5757a1.8165,1.8165,0,0,0,.8374,2.0579l12.9661,6.38,31.0129,15.26,37.4947,18.449,32.4882,15.9856c5.2269,2.5718,10.4226,5.2234,15.6867,7.7185.0751.0356.1492.0735.2238.11a1.85,1.85,0,0,0,2.4932-.6538l9.9689-20.1724,15.8964-32.1668,3.658-7.4023a1.849,1.849,0,0,0-.6537-2.4931l-7.3512-3.6171-3.7354-1.838a5.8629,5.8629,0,0,0-.9588-.4413,4.2952,4.2952,0,0,0-2.0248.2636,15.53,15.53,0,0,1-1.9847.3119,17.574,17.574,0,0,1-13.8282-4.9163c-2.503-2.4641-3.8055-5.56-5.2183-8.6918l-3.866-8.5708a1.8378,1.8378,0,0,0-2.4931-.6538A1.8639,1.8639,0,0,0,157.4335,734.7619Z"/><path class="cls-2" d="M169.1049,821.7373,39.2323,757.8344s2.4535-5.201,9.1285-11.3715l18.8619,8.56,10.4526,1.0122A37.9475,37.9475,0,0,1,99.44,766.86h0a37.9481,37.9481,0,0,0,18.6829,10.2744l7.8423,1.7375a37.9467,37.9467,0,0,1,14.5083,6.6522l9.0127,6.7354a37.9483,37.9483,0,0,0,23.1193,7.5484l7.4565-.0791Z"/><path d="M170.0246,820.1638l-12.966-6.38-31.0129-15.26L88.5509,780.0752,56.0626,764.09l-10.5849-5.2082c-1.6694-.8214-3.3557-1.86-5.1018-2.51-.0767-.0286-.15-.0739-.2239-.11l.6538,2.4932c2.0058-4.2126,5.48-7.8666,8.8435-11.0027l-2.2082.2849,18.1122,8.22a7.3043,7.3043,0,0,0,2.4224.6619l5.9259.5739a40.2691,40.2691,0,0,1,14.807,3.83,36.3424,36.3424,0,0,1,9.0061,6.3961,44.7349,44.7349,0,0,0,8.5268,6.6906c4.83,2.83,10.0412,4.1829,15.438,5.3786,1.7613.39,3.5385.7417,5.2832,1.2025a36.4447,36.4447,0,0,1,10.81,4.855c3.1842,2.1061,6.1775,4.5385,9.2338,6.8226a43.4645,43.4645,0,0,0,15.5441,7.7761c5.2588,1.3094,10.5385,1.182,15.9,1.1251l1.6117-.0171-1.5735-2.742-9.5657,19.214-1.3913,2.7946c-1.0421,2.0933,2.1005,3.9415,3.147,1.84l9.5656-19.214,1.3913-2.7946a1.8431,1.8431,0,0,0-1.5734-2.742c-2.4711.0262-4.9424.0628-7.4136.0786a36.3573,36.3573,0,0,1-16.3327-3.674c-5.5459-2.74-10.2987-6.9941-15.2733-10.62a39.9763,39.9763,0,0,0-14.8211-6.6274c-2.5337-.5661-5.072-1.1124-7.6043-1.6847a36.38,36.38,0,0,1-15.0089-7.1986c-2.164-1.7683-4.03-3.855-6.2224-5.5919a39.9915,39.9915,0,0,0-7.1991-4.5941,40.762,40.762,0,0,0-14.1444-3.94L67.2227,753.2l.92.2488-18.8619-8.56a1.9083,1.9083,0,0,0-2.2082.285c-3.5678,3.3265-7.2864,7.273-9.4134,11.74a1.8514,1.8514,0,0,0,.6537,2.4931l12.966,6.38,31.013,15.26,37.4947,18.449,32.4883,15.9856c5.2269,2.5719,10.4226,5.2234,15.6867,7.7186.0751.0356.1493.0734.2239.11C170.2822,824.3425,172.1313,821.2,170.0246,820.1638Z"/><path d="M117.2373,741.0348a8.145,8.145,0,0,1,.5541.9117q.1364.2522.2611.51.0584.1209.1143.2428c.0246.0537.19.43.07.1508-.1177-.2751.0237.0621.0469.1211q.0707.18.1362.3622.14.39.2567.7877a14.3657,14.3657,0,0,1,.367,1.6427c.0724.4289-.0133-.2346.0187.17.0134.17.0306.3385.04.5086q.0309.5291.0146,1.06-.0071.2287-.0236.457c-.0053.0752-.0485.5342-.0336.4116.0219-.1793-.0461.287-.0536.3291q-.0525.2923-.12.5819a10.7441,10.7441,0,0,1-.7569,2.1811,1.8712,1.8712,0,0,0,.6537,2.4932,1.8386,1.8386,0,0,0,2.4932-.6538,14.1024,14.1024,0,0,0,.9927-9.87,13.1438,13.1438,0,0,0-1.8855-4.2378,1.8752,1.8752,0,0,0-2.4932-.6537,1.8365,1.8365,0,0,0-.6538,2.4932Z"/><path d="M106.3941,741.4327a8.16,8.16,0,0,1,.5541.9117q.1364.2522.261.5105.0585.1209.1144.2428c.0246.0537.19.43.07.1508-.1177-.2751.0238.0621.047.1211q.0707.18.1362.3622.14.39.2567.7877a14.37,14.37,0,0,1,.367,1.6427c.0723.4289-.0133-.2346.0187.17.0134.17.0306.3386.0405.5086q.0309.5291.0146,1.06c-.0047.1525-.0129.3049-.0236.457-.0053.0752-.0485.5342-.0336.4116.0218-.1793-.0461.287-.0536.3291q-.0525.2923-.12.5819a10.738,10.738,0,0,1-.7568,2.1811,1.8712,1.8712,0,0,0,.6537,2.4932,1.8386,1.8386,0,0,0,2.4932-.6538,14.1024,14.1024,0,0,0,.9927-9.87,13.1438,13.1438,0,0,0-1.8855-4.2378,1.8752,1.8752,0,0,0-2.4932-.6537,1.8364,1.8364,0,0,0-.6538,2.4932Z"/><path d="M93.7884,737.6872a8.1442,8.1442,0,0,1,.554.9117q.1364.2523.2611.5106.0585.1208.1143.2428c.0247.0537.19.43.07.1507-.1177-.2751.0238.0622.0469.1211q.0708.18.1363.3623.14.39.2567.7876a14.3722,14.3722,0,0,1,.367,1.6428c.0723.4288-.0133-.2347.0187.17.0134.17.0306.3386.0405.5087q.0309.529.0146,1.06-.0072.2287-.0236.457c-.0054.0751-.0485.5342-.0336.4116.0218-.1793-.0461.287-.0536.329q-.0525.2925-.12.582a10.7332,10.7332,0,0,1-.7569,2.181,1.8713,1.8713,0,0,0,.6538,2.4932,1.8386,1.8386,0,0,0,2.4932-.6537,14.1027,14.1027,0,0,0,.9927-9.87,13.1445,13.1445,0,0,0-1.8856-4.2377,1.8752,1.8752,0,0,0-2.4932-.6538,1.8365,1.8365,0,0,0-.6537,2.4932Z"/><path class="cls-3" d="M553.8124,372.9026l-3.3975,85.4827a255.2834,255.2834,0,0,1,25.9779.5655c16.69,1.19,58.9241,20.5911,70.9618,24.0066l5.2582-109.9949c1.3943-29.1672-19.0239-58.0943-48.1371-60.3506l-82.6087-1.2148"/><path d="M551.99,372.9026l-.3388,8.5263-.8087,20.3476-.9832,24.7366-.8463,21.2943c-.1374,3.4549-.4779,6.97-.4145,10.4285.0009.05-.004.1-.006.1494a1.8392,1.8392,0,0,0,1.8223,1.8223q7.49-.2269,14.9836.0051c4.0742.1235,8.8685.22,12.6.7189a92.9127,92.9127,0,0,1,16.1091,4.1116c12.9136,4.1826,25.4843,9.3586,38.1107,14.32,4.8237,1.8953,9.6624,3.9249,14.6522,5.3515a1.8443,1.8443,0,0,0,2.3067-1.7571l.5919-12.3811,1.3869-29.0146,1.62-33.8838,1.2711-26.5907c.2865-5.9922.7438-11.97.0454-17.9567-1.8341-15.7219-9.477-30.996-21.8548-41.0462a49.061,49.061,0,0,0-30.0209-11.3279l-24.113-.3546-33.55-.4934-21.6062-.3177-1.08-.0159c-2.346-.0345-2.3469,3.61,0,3.6445l15.4256.2269,32.1032.4721,28.4907.4189c2.09.0308,4.1818.0324,6.2707.0923a41.0207,41.0207,0,0,1,16.5944,4.524c13.8814,6.9081,23.7107,20.3133,27.863,35.0761a60.0861,60.0861,0,0,1,2.17,19.0589c-.0685,1.4929-.1427,2.9856-.2141,4.4784l-1.1184,23.3965L647.8756,433.94l-1.4787,30.933-.8265,17.2893-.038.7951,2.3067-1.7572c-4.3384-1.24-8.5518-2.9671-12.75-4.6063-6.1417-2.3979-12.26-4.8558-18.4078-7.2375-6.4845-2.512-12.9969-4.9636-19.594-7.1659a113.2608,113.2608,0,0,0-16.7814-4.5662,99.0855,99.0855,0,0,0-12.7439-.9817q-8.5695-.3311-17.1471-.0795l1.8222,1.8222.3389-8.5262.8087-20.3476.9832-24.7366.8463-21.2943c.1373-3.455.4778-6.97.4145-10.4285-.0009-.05.004-.1.0059-.1495.0933-2.3453-3.5514-2.3412-3.6445,0Z"/><path d="M647.1185,483.3587c.4407-6.1807-10.06-12.4577-26.7417-17.1906L615.06,496.97C634.0025,494.8225,646.6512,489.9091,647.1185,483.3587Z"/><path d="M648.9408,483.3587c.2554-4.6629-3.9394-8.1744-7.4659-10.4645-6.2185-4.0383-13.535-6.4618-20.6136-8.4833a1.8352,1.8352,0,0,0-2.2416,1.2727l-4.6543,26.9616-.663,3.8405c-.1779,1.0305.4706,2.4545,1.7572,2.3067,8.1694-.9386,16.5435-2.2633,24.1523-5.5189,4.2769-1.83,9.2829-4.7807,9.7289-9.9148.2029-2.3362-3.4428-2.3226-3.6445,0q-.0321.3243.0079,0-.0266.1606-.0628.3194c-.0466.1865-.0984.3692-.1574.5521-.1321.409.043-.0372-.1041.2622q-.1533.3121-.3368.6076a8.35,8.35,0,0,1-1.6309,1.803,21.4628,21.4628,0,0,1-6.0415,3.3832c-6.9533,2.7576-14.5153,4.0121-21.9111,4.8619l1.7572,2.3067,4.6542-26.9616.663-3.8405-2.2416,1.2727c6.5223,1.8626,13.1432,4.06,18.96,7.6224a19.662,19.662,0,0,1,5.02,4.0857,5.2318,5.2318,0,0,1,1.4243,3.7254C645.1679,485.7023,648.8128,485.6951,648.9408,483.3587Z"/><path class="cls-1" d="M576.3928,458.9508a255.2834,255.2834,0,0,0-25.9779-.5655L548.82,494.5265l-.4538,10.2828L395.5243,502.126,378.26,482.9066a50.0957,50.0957,0,0,0-37.267-16.6182H313.523l30.9008,33.1729a40.83,40.83,0,0,1,10.93,26.4228h0a34.1859,34.1859,0,0,0,18.4345,29.1735l0,0a85.0369,85.0369,0,0,0,28.9589,8.9277l142.87,17.214c33.4415,1.0643,62.6822-23.3484,69.7405-56.0538l3.0993-21.4742,1.92-37.5033A223.9564,223.9564,0,0,0,576.3928,458.9508Z"/><path d="M576.3928,457.1286a259.5368,259.5368,0,0,0-25.9779-.5655,1.8619,1.8619,0,0,0-1.8223,1.8222q-.7977,18.0765-1.5953,36.1529-.2267,5.1356-.4534,10.2711l1.8223-1.8222L533.17,502.72l-36.4948-.6407-44.155-.7752-38.1763-.67-12.584-.2209a46.9215,46.9215,0,0,0-5.9747-.1049,2.0563,2.0563,0,0,1-.2613-.0046l1.2885.5337-9.7511-10.855c-3.6188-4.0284-7.107-8.3477-11.1251-11.9926a52.4053,52.4053,0,0,0-29.59-13.237c-5.2971-.5671-10.7413-.2867-16.059-.2867H313.523a1.8435,1.8435,0,0,0-1.2885,3.1108l25.2665,27.1244c4.1491,4.4541,8.481,8.7072,11.4063,14.1213a38.86,38.86,0,0,1,3.5306,9.197,58.7156,58.7156,0,0,1,1.186,9.457,36.1748,36.1748,0,0,0,5.7813,16.9675c7.4024,11.2119,20.6983,16.5847,33.3137,19.5915a116.7,116.7,0,0,0,13.1572,2.1491l30.795,3.71,47.3763,5.7082,43.2111,5.2064,13.5456,1.6321a57.2775,57.2775,0,0,0,6.1253.6086c23.0245.2836,44.7342-11.5932,58.0719-30.15a74.1983,74.1983,0,0,0,8.4014-15.2786,55.0158,55.0158,0,0,0,3.8038-12.6256l2.8314-19.6177c.5788-4.01.57-8.12.7767-12.1621l1.1623-22.7076.2222-4.34a1.8445,1.8445,0,0,0-1.3378-1.7572,223.2744,223.2744,0,0,0-44.4685-7.2823c-2.34-.1694-2.3294,3.4758,0,3.6445a218.3035,218.3035,0,0,1,43.5,7.1521l-1.3378-1.7571-1.83,35.7556c-.0286.5592-.1,1.135-.0867,1.6953.0049.2078.1171-.7653.0342-.237-.0656.4187-.1211.8394-.1817,1.2589l-1.47,10.1853c-.4452,3.0843-.8636,6.1738-1.3356,9.2541a56.464,56.464,0,0,1-3.7961,12.5722c-8.5245,20.8167-27.259,36.9186-49.3653,41.47a52.0859,52.0859,0,0,1-16.5463,1.0574l-10.0953-1.2163-39.2569-4.73-47.5268-5.7263-36.3728-4.3824q-3.793-.4571-7.5863-.9141c-10.3448-1.2533-20.9983-4.3016-30.0261-9.6075a32.3739,32.3739,0,0,1-15.202-20.9333,78.028,78.028,0,0,1-.9476-8.7708c-1.079-9.9184-5.5111-18.5644-12.256-25.8054l-27.37-29.3819L314.8115,465l-1.2885,3.1108h24.4146a59.45,59.45,0,0,1,15.2805,1.5745,48.4843,48.4843,0,0,1,22.0752,12.7317c6.0087,6.0617,11.4966,12.7088,17.1988,19.0566,1.0841,1.2069,1.8572,2.43,3.5734,2.4843,1.4229.0448,2.8482.05,4.2715.075l18.9541.3328,28.3619.4979,32.4009.5689,31.0713.5455,24.373.4279c4.106.0721,8.22.2254,12.3268.2164.18,0,.3609.0063.5412.01a1.8548,1.8548,0,0,0,1.8222-1.8223q.87-19.7007,1.7388-39.4014l.31-7.0226-1.8222,1.8223a259.5368,259.5368,0,0,1,25.9779.5655C578.7334,460.9374,578.7232,457.2922,576.3928,457.1286Z"/><path class="cls-7" d="M441.98,168.2658l-22.7224-.5573a13.21,13.21,0,0,0-13.501,12.6081c-.3114,6.5114,1.1283,13.5934,7.9907,16.2787-12.1483,7.289-10.4994,38.1758,30.2842,42.17,16.5736-7.8049,29.85-51.281,29.85-51.281"/><path d="M441.98,166.4435l-19.5825-.48c-3.5248-.0864-6.8518-.1129-10.1378,1.4907a15.01,15.01,0,0,0-6.3329,5.9643,17.0189,17.0189,0,0,0-2.03,8.864,22.059,22.059,0,0,0,1.9722,9.3893,13.6723,13.6723,0,0,0,7.3936,6.6809l-.4353-3.3306c-5.6373,3.4307-7.9765,10.4523-7.4384,16.7827.743,8.7416,6.1818,16.09,13.3636,20.8266a48.772,48.772,0,0,0,16.62,6.6367c1.7391.3739,3.4931.6723,5.2552.914.9347.1282,1.87.2459,2.8088.3448a3.5734,3.5734,0,0,0,2.2227-.5442,24.428,24.428,0,0,0,5.2828-3.9649,57.5755,57.5755,0,0,0,9.291-12.2868,135.0655,135.0655,0,0,0,7.5254-14.8829,159.9093,159.9093,0,0,0,7.7745-20.54c.032-.1138.0709-.226.1055-.3392.6874-2.2479-2.8293-3.2089-3.5143-.9688-1.5385,5.0316-3.39,9.984-5.353,14.8627-3.6653,9.1089-7.9045,18.2564-13.7406,26.1986-2.674,3.639-5.8384,7.1763-9.919,9.1307l.92-.2488c-10.9147-1.0957-22.7227-4.5158-29.973-13.2922a22.3421,22.3421,0,0,1-4.7175-9.7756,18.1868,18.1868,0,0,1-.3633-4.7279q.0239-.5422.0775-1.0825a5.1266,5.1266,0,0,1,.1222-.8962,19.682,19.682,0,0,1,.5375-2.2459c.13-.42.2769-.833.4369-1.242.1005-.2568-.09.1742.1139-.2661.0845-.1825.1692-.3647.2591-.5446a15.8651,15.8651,0,0,1,1.2165-2.0165c.2463-.351.0036-.0223.152-.2038.1206-.1474.2423-.2938.3683-.4367q.3972-.45.8361-.8617c.1365-.1276.2788-.2482.4178-.373.0519-.0465.1072-.09.1605-.1344.2635-.2221-.163.1168.0143-.0162.3149-.2359.6407-.4542.9767-.6588a1.8483,1.8483,0,0,0-.4353-3.3306c-5.0308-2.0488-6.6014-7.3979-6.6873-12.3915a13.3842,13.3842,0,0,1,1.7834-7.6149,11.28,11.28,0,0,1,5.7129-4.6244c2.572-.9019,5.2385-.6515,7.9082-.586l11.2234.2752,7.8077.1915c2.3461.0576,2.345-3.5869,0-3.6445Z"/><path class="cls-1" d="M497.2082,356.9533h0A38.3431,38.3431,0,0,1,458.865,318.61v-7.2131h76.6863V318.61A38.3431,38.3431,0,0,1,497.2082,356.9533Z"/><path d="M497.2082,355.1311a36.5237,36.5237,0,0,1-36.4957-35.1153c-.1021-2.8683-.0253-5.749-.0253-8.6187l-1.8222,1.8222h76.6863l-1.8222-1.8222c0,2.4006.01,4.8014,0,7.2021a37.3428,37.3428,0,0,1-2.5717,13.5279,36.4873,36.4873,0,0,1-33.9492,23.004c-2.3446.01-2.3494,3.6551,0,3.6445a40.1626,40.1626,0,0,0,40.0883-37.7138c.2025-3.2084.0771-6.4518.0771-9.6647a1.8488,1.8488,0,0,0-1.8223-1.8223H458.865a1.8488,1.8488,0,0,0-1.8223,1.8223c0,2.5216-.0223,5.0441.0016,7.5656a40.1932,40.1932,0,0,0,23.4079,36.1513,40.55,40.55,0,0,0,16.756,3.6616A1.8233,1.8233,0,0,0,497.2082,355.1311Z"/><polyline class="cls-1" points="522.911 318.686 522.218 266.733 478.039 283.396 476.43 317.49"/><path d="M524.7333,318.6861l-.235-17.6186-.3725-27.9208-.0855-6.4134a1.8364,1.8364,0,0,0-2.3067-1.7572l-14.9709,5.6466-23.7308,8.9506-5.4774,2.0659a1.9065,1.9065,0,0,0-1.3378,1.7572l-1.4105,29.8867-.1985,4.2073c-.1107,2.3446,3.5341,2.3389,3.6445,0l1.41-29.8867.1986-4.2073-1.3379,1.7572,14.971-5.6467,23.7308-8.95,5.4774-2.066-2.3067-1.7571.235,17.6185.3725,27.9209.0855,6.4134c.0313,2.3433,3.6759,2.35,3.6445,0Z"/><path class="cls-1" d="M522.4744,284.6707c25.5115-19.4373,17.8706-39.284,19.36-53.6309.8647-8.3309-9.9979-26.5075-9.9979-26.5075l-84.6029,2.4482S412.229,301.2451,493.9284,288"/><path d="M523.3941,286.2442c6.73-5.1624,12.8-11.4079,16.3352-19.2221a47.3283,47.3283,0,0,0,3.8949-18.5816c.1239-5.3486-.4335-10.7108-.081-16.054a23.46,23.46,0,0,0-.619-7.6305,58.647,58.647,0,0,0-3.224-8.8772,110.3987,110.3987,0,0,0-6.29-12.2662,1.8252,1.8252,0,0,0-1.5734-.9025l-28.7766.8327-45.4736,1.3159-10.3527.3a1.893,1.893,0,0,0-1.7571,1.3378c-1.15,3.0989-2.071,6.2958-2.93,9.4848a135.6926,135.6926,0,0,0-4.1565,22.54c-.8061,8.5713-.6646,17.45,1.6471,25.7948,2.3347,8.427,7.1649,15.9945,14.65,20.71,9.9406,6.2619,22.5061,6.7915,33.8568,5.5349,1.9626-.2173,3.9194-.49,5.8688-.8032,2.31-.3711,1.3293-3.8836-.9688-3.5143-11.3465,1.823-24.2779,2.2754-34.527-3.001a27.8994,27.8994,0,0,1-9.435-7.7023c-.334-.4169-1.0579-1.4238-1.56-2.2039q-.8111-1.26-1.5052-2.59a31.1807,31.1807,0,0,1-2.25-5.3645c-2.6267-7.9753-2.9332-16.1154-2.32-24.611a104.5147,104.5147,0,0,1,1.4914-11.6986q.9338-5.2177,2.2582-10.3557.97-3.786,2.1406-7.5175c.3709-1.1765.92-2.371,1.1945-3.5725a1.3493,1.3493,0,0,1,.0586-.1606l-1.7572,1.3379L476.01,207.97l45.4737-1.3159,10.3527-.2995-1.5735-.9026c1.855,3.1083,3.5306,6.3389,5.0785,9.6092a70.5883,70.5883,0,0,1,3.3211,8.1295,20.72,20.72,0,0,1,1.3864,7.35c-.1154,2.3546-.2775,4.6749-.2382,7.0376.0438,2.6376.1632,5.2735.1867,7.9115a49.6716,49.6716,0,0,1-2.3619,17.0421c-2.95,8.4081-9.1055,15.2151-16.0807,20.5659a1.8859,1.8859,0,0,0-.6537,2.4931,1.8325,1.8325,0,0,0,2.4931.6538Z"/><path d="M473.9145,228.825a11.0375,11.0375,0,0,1,1.2332-.6106c-.4966.2213.2674-.1.4208-.1557q.3621-.1317.73-.2469a16.9336,16.9336,0,0,1,2.0139-.4976,14.694,14.694,0,0,1,4.4206-.074,15.0215,15.0215,0,0,1,5.8,2.2478c1.989,1.2558,3.82-1.8966,1.8394-3.1469-5.3258-3.3624-12.7557-4.0163-18.2971-.6631-2.0041,1.2128-.1744,4.3656,1.8394,3.147Z"/><path d="M444.2405,227.166c5.3122-2.1834,13.5843-1.7482,15.4737,4.71.9132,3.1216-.3673,6.5333-1.8537,9.2771a27.2224,27.2224,0,0,1-3.7363,5.2444c-.7748.86-1.8845,1.6318-2.182,2.7826a5.9032,5.9032,0,0,0-.1416,2.057c.4345,4.1639,5.1452,4.4939,8.4318,4.2428,2.3238-.1775,2.343-3.8235,0-3.6445-1.4212.1086-3.21.27-4.4456-.3651a.598.598,0,0,1-.3705-.5242c.0315.1631-.0139-.44.0025-.5607,0-.0019-.7071,1.712.0377-.2364-.1964.5138.3086-.1742.4449-.316a29.6121,29.6121,0,0,0,6.7758-10.6162,13.0073,13.0073,0,0,0-.3013-10.4376,11.6821,11.6821,0,0,0-9.0906-6.1885,20.9593,20.9593,0,0,0-10.0137,1.0612,1.8842,1.8842,0,0,0-1.2727,2.2416,1.8325,1.8325,0,0,0,2.2416,1.2727Z"/><circle cx="447.2803" cy="238.765" r="2.9617"/><path d="M445.2321,238.6458c.0015-.0277.03-.2986-.0013-.0849.0078-.0532.0176-.1065.0285-.1592.0272-.1311.0673-.2564.1071-.3837.0745-.2378-.0868.1466.0287-.0725.0243-.0461.0462-.0931.0712-.1389q.0558-.1023.12-.2c.024-.0367.1643-.216.04-.0653a3.1273,3.1273,0,0,1,.2622-.2825c.0374-.0355.0769-.0681.1146-.1031.1775-.1644-.1459.0817.06-.0453.11-.0679.2164-.1389.3323-.198.0461-.0236.093-.0461.14-.0671-.1878.0834.0713-.0192.1119-.0318.1271-.0393.2556-.0642.3855-.0912.1448-.03-.2119.001.0379-.0007.0681,0,.1362-.0068.2044-.0069s.138.0064.2069.0066c.253.0009-.1039-.0287.0421.0008a3.8478,3.8478,0,0,1,.4279.1037c.0271.0087.2674.1061.0765.0211.0476.0212.0947.0439.141.0676.1162.06.2229.1306.3332.1994.2062.1288-.0806-.0738.0307.0216.0488.0419.0974.0838.144.1282s.0914.09.135.1375c.0292.0317.1936.2473.0776.0836a3.26,3.26,0,0,1,.2065.3267c.0248.0456.0465.0923.0706.1382.1133.2159-.0409-.1645.0276.0707.0369.1267.0792.25.1062.38q.0163.0781.0284.1572c-.0323-.211-.0014.0765,0,.1207a3.65,3.65,0,0,1-.0121.3712c.0152-.21-.0092.0467-.016.0792-.0109.0522-.0231.1044-.0368.156-.02.0771-.0463.1517-.07.2276-.0514.1624-.0116.0369.0042.0015a2.916,2.916,0,0,1-.2238.41c.0017-.0026-.1456.2023-.0641.0964s-.0783.0882-.0764.0861c-.0869.0961-.1815.1806-.2763.2684-.1781.165.0926-.06-.0288.023-.0533.0364-.1061.0728-.1611.1066-.0439.027-.0887.0529-.134.0776-.037.02-.3316.1425-.1355.0711a3.3766,3.3766,0,0,1-.3757.1161c-.0517.0122-.1037.0218-.1558.0325-.2422.0495.1126.0058-.0369.0039-.1369-.0018-.2727.0133-.41.0058-.0477-.0025-.2311-.0229-.0435.0037-.08-.0113-.1592-.0274-.2377-.046s-.1544-.04-.23-.0643c-.0241-.0079-.26-.1046-.0765-.0212a3.0583,3.0583,0,0,1-.41-.2238c-.0432-.0283-.0854-.0579-.1274-.0881.1674.12-.0828-.0774-.1116-.1049a3.0286,3.0286,0,0,1-.2612-.2831c.13.16-.0231-.0408-.039-.0652-.0421-.0648-.0819-.1315-.1188-.1994s-.0718-.138-.1033-.209c.0653.147,0-.013-.02-.0743a2.8566,2.8566,0,0,1-.1094-.4626c.0059.04.0113.1765.0059.0016-.0034-.11-.0077-.2184-.0048-.3285a.919.919,0,0,0-.9111-.9111.9291.9291,0,0,0-.9111.9111,3.8746,3.8746,0,1,0,3.2181-3.6928,3.9042,3.9042,0,0,0-3.2181,3.6928.917.917,0,0,0,.9111.9111A.9315.9315,0,0,0,445.2321,238.6458Z"/><circle cx="475.2215" cy="238.765" r="2.9617"/><path d="M473.1733,238.6458c.0015-.0277.03-.2986-.0014-.0849.0079-.0532.0176-.1065.0286-.1592.0272-.1311.0673-.2564.1071-.3837.0744-.2378-.0869.1466.0287-.0725.0243-.0461.0461-.0931.0712-.1389q.0558-.1023.12-.2c.024-.0367.1642-.216.04-.0653a3.1273,3.1273,0,0,1,.2622-.2825c.0374-.0355.0769-.0681.1146-.1031.1775-.1644-.1459.0817.06-.0453.11-.0679.2164-.1389.3323-.198.046-.0236.0929-.0461.14-.0671-.1879.0834.0713-.0192.1119-.0318.1271-.0393.2555-.0642.3855-.0912.1448-.03-.2119.001.0379-.0007.0681,0,.1362-.0068.2044-.0069s.138.0064.2069.0066c.253.0009-.104-.0287.0421.0008a3.8532,3.8532,0,0,1,.4279.1037c.027.0087.2673.1061.0765.0211.0476.0212.0947.0439.141.0676.1162.06.2229.1306.3332.1994.2062.1288-.0806-.0738.0306.0216.0489.0419.0974.0838.1441.1282s.0914.09.135.1375c.0292.0317.1936.2473.0776.0836a3.2594,3.2594,0,0,1,.2064.3267c.0249.0456.0466.0923.0706.1382.1133.2159-.0408-.1645.0277.0707.0369.1267.0792.25.1062.38q.0164.0781.0284.1572c-.0323-.211-.0014.0765,0,.1207a3.7084,3.7084,0,0,1-.0121.3712c.0151-.21-.0092.0467-.016.0792-.0109.0522-.0232.1044-.0368.156-.02.0771-.0463.1517-.07.2276-.0514.1624-.0115.0369.0043.0015a2.9262,2.9262,0,0,1-.2238.41c.0017-.0026-.1457.2023-.0641.0964s-.0783.0882-.0765.0861c-.0869.0961-.1814.1806-.2762.2684-.1782.165.0926-.06-.0288.023-.0533.0364-.1061.0728-.1611.1066q-.0659.0405-.1341.0776c-.0369.02-.3315.1425-.1354.0711a3.3766,3.3766,0,0,1-.3757.1161c-.0517.0122-.1037.0218-.1558.0325-.2422.0495.1126.0058-.0369.0039-.1369-.0018-.2727.0133-.41.0058-.0477-.0025-.2312-.0229-.0435.0037-.08-.0113-.1593-.0274-.2377-.046s-.1545-.04-.23-.0643c-.0241-.0079-.26-.1046-.0765-.0212a3.0521,3.0521,0,0,1-.41-.2238c-.0433-.0283-.0854-.0579-.1274-.0881.1674.12-.0828-.0774-.1116-.1049a3.0286,3.0286,0,0,1-.2612-.2831c.13.16-.0231-.0408-.039-.0652-.0422-.0648-.0819-.1315-.1189-.1994s-.0717-.138-.1032-.209c.0652.147,0-.013-.02-.0743a2.8461,2.8461,0,0,1-.1094-.4626c.0059.04.0113.1765.0059.0016-.0034-.11-.0077-.2184-.0048-.3285a.919.919,0,0,0-.9111-.9111.929.929,0,0,0-.9111.9111,3.8746,3.8746,0,1,0,3.218-3.6928,3.9042,3.9042,0,0,0-3.218,3.6928.917.917,0,0,0,.9111.9111A.9315.9315,0,0,0,473.1733,238.6458Z"/><path d="M462.2172,266.4549l6.7549-1.6887.95-.2374-2.3067-1.7571q0,.1472-.01.294c-.0346.4938.0767-.3213.0044-.0136-.0559.2382-.14.4648-.202.7.14-.5293.0863-.1993-.0023-.0343q-.0824.1538-.1786.2994c-.254.3844.2292-.249.0274-.023-.0572.064-.1121.13-.1713.1917q-.1179.1236-.2462.2365c-.3435.3024.2888-.1878.0351-.0215-.1911.1253-.3825.237-.5848.3433-.2715.1427.4776-.1752.044-.0208q-.16.057-.3242.1c-.11.029-.2209.0495-.332.0727-.3238.0675.51-.03.1039-.0177-.2163.0068-.4265.0078-.6429-.0039-.3139-.0171.5195.0975.0551.0017q-.1723-.0356-.3409-.087c-.1659-.0506-.48-.2464.0157.0282-.1064-.0589-.2214-.1034-.3282-.1629-.11-.0611-.2126-.1318-.3193-.198-.2845-.1767.3435.2994.0227.0186q-.6091-.5334-1.219-1.066a1.8223,1.8223,0,0,0-2.5771,2.5771,8.5364,8.5364,0,0,0,3.82,2.4126,5.8657,5.8657,0,0,0,5.8161-2.1468,5.6908,5.6908,0,0,0,1.179-3.48,1.8433,1.8433,0,0,0-2.3067-1.7572l-6.7549,1.6887-.95.2374a1.8227,1.8227,0,1,0,.9689,3.5143Z"/><path d="M523.5663,229.4609a6.6689,6.6689,0,0,0-3.6645-.1573c-2.843.5551-5.0395,2.8313-6.4847,5.2122a28.2379,28.2379,0,0,0-3.0259,7.7587,1.8227,1.8227,0,0,0,3.5143.9689,35.8083,35.8083,0,0,1,1.12-3.6729c.0973-.2628.2-.523.3038-.7834.1926-.4851-.094.2.0338-.0826.0533-.1181.1039-.2375.1575-.3555q.3-.6615.6459-1.3012c.2077-.3815.4289-.7556.6665-1.1193q.1641-.2513.3387-.4955c.0448-.0627.0915-.1241.1362-.1868.2129-.2984-.2667.3169.0228-.028a12.4008,12.4008,0,0,1,1.3728-1.404c.3732-.3243-.1995.13.0053-.0072.1135-.0762.2225-.1589.337-.2337a6.9451,6.9451,0,0,1,.6942-.4,1.34,1.34,0,0,0,.29-.1366c-.2468.2287-.4163.16-.1815.0784.042-.0146.0834-.0319.1252-.0471a6.0013,6.0013,0,0,1,.6363-.1931c.1729-.042.3742-.0474.5408-.1048-.5473.1885-.3975.0425-.1628.028.0933-.0058.1863-.0138.28-.0171.3028-.011.5959.0309.8964.041-.0954-.0032-.5985-.1027-.2716-.0328.0623.0134.1254.023.1877.0365.0919.02.1835.0421.2739.0683a2.3605,2.3605,0,0,1,.2434.0809,1.827,1.827,0,0,0,2.2416-1.2727,1.879,1.879,0,0,0-1.2727-2.2416Z"/><path class="cls-7" d="M433.1913,197.32c4.52,7.8834,11.8375,14.6884,23.6821,16.2828,23.8527,3.2109,44.3414-8.0987,44.3414-8.0987v16.2742a67.9414,67.9414,0,0,0,4.8594,25.2324c0-.0013-2.1829-13.3208,3.4205-20.3087,2.4063-2.7835,5.1319-4.5953,7.7583-4.5953,7.2124,0,12.7557,2.43,12.7557,12.7557,0,6.8353-5.7286,18.7487-9.7187,21.867l2.1844,27.9412.0149-.0118a108.8062,108.8062,0,0,0,33.1146-45.52c3.1494-8.2791,5.2665-16.7945,4.53-23.7136-1.6277-15.2993-7.9647-21.7-13.4967-24.3475,1.6034-2.1449,3.7116-4.1854,6.2077-4.8085-7.1959-2.0831-11.3627,1.0817-13.13,3.0136-.1741-.01-.3393-.0172-.4941-.0215,1.4657-3.7318,5.7533-14.2462,8.86-17.7836-6.0018.2013-11.962,7.0176-15.0777,11.2186A34.86,34.86,0,0,0,506.37,169.5369l-80.4748-1.49"/><path d="M431.6178,198.24a35.9577,35.9577,0,0,0,10.8534,11.938c5.3693,3.6287,11.5889,5.131,17.9749,5.625a79.3346,79.3346,0,0,0,34.8343-5.64,59.0851,59.0851,0,0,0,6.8542-3.0853l-2.742-1.5735c0,8.9181-.5089,18.0386.8234,26.8808a68.9507,68.9507,0,0,0,4.101,15.11,1.8239,1.8239,0,0,0,3.5143-.9688c-.0069-.0428-.0134-.0856-.02-.1285-.07-.4744.0334.2919,0,.0134-.0649-.5456-.1264-1.0911-.1731-1.6387a43.7106,43.7106,0,0,1-.1427-5.0081c.118-3.9692.7357-8.561,3.2873-11.7738,1.445-1.82,3.7172-3.8476,6.1409-4.0523a15.1078,15.1078,0,0,1,5.359.5974c3.4118,1.0049,5.1373,3.7234,5.6893,7.1328.7223,4.4618-.53,8.8372-2.1865,12.9489-1.4574,3.6164-3.3887,7.7667-6.3287,10.4363a2.43,2.43,0,0,0-.947,2.2192l.2,2.5554.6857,8.7708,1.2565,16.0715a1.85,1.85,0,0,0,3.1108,1.2885,109.46,109.46,0,0,0,29.5137-36.93c3.792-7.7192,7.0353-16.0574,8.3114-24.5976a42.019,42.019,0,0,0-3.1478-23.0849,23.5191,23.5191,0,0,0-10.8829-11.8421l.6537,2.4932a10.255,10.255,0,0,1,5.1186-3.9712,1.8374,1.8374,0,0,0,0-3.5143c-5.3015-1.4677-11.0374-.6793-14.903,3.4823l1.2885-.5337q-.2469-.0146-.4941-.0215l1.7572,2.3067c1.1313-2.876,2.3286-5.7265,3.631-8.53,1.3268-2.8554,2.7174-6.0711,4.76-8.45.9532-1.11.4033-3.2011-1.2886-3.1107-7.1566.3823-12.6735,6.7863-16.6512,12.1211l2.862-.3688a37.3384,37.3384,0,0,0-28.6749-13.7071l-15.201-.2815-26.0321-.4821-25.3-.4684c-4.3151-.08-8.6742-.3485-12.99-.2406-.0661.0017-.1328-.0025-.199-.0037-2.3461-.0434-2.3462,3.6011,0,3.6445l10.5332.1951,23.9734.4439,26.4245.4893,17.4929.324a53.3506,53.3506,0,0,1,5.5436.2784,33.0723,33.0723,0,0,1,18.3185,8.5666,36.2063,36.2063,0,0,1,3.5334,3.8186c.8113,1.0086,2.2386.4672,2.8619-.3688a42.1341,42.1341,0,0,1,5.8866-6.4921c2.1085-1.8535,4.7235-3.6693,7.6177-3.8239l-1.2885-3.1108a39.1989,39.1989,0,0,0-5.33,9.1877c-1.4347,3.0876-2.7522,6.2319-3.9985,9.4a1.8375,1.8375,0,0,0,1.7572,2.3067c1.3038.0466,1.82-.6484,2.7109-1.416a9.5288,9.5288,0,0,1,2.33-1.4559,12.0634,12.0634,0,0,1,8.0985-.1854V184.512c-3.12.8731-5.3863,3.1373-7.2966,5.646a1.8274,1.8274,0,0,0,.6537,2.4932,19.579,19.579,0,0,1,8.7772,8.8766,37.2607,37.2607,0,0,1,3.7355,20.7167c-.8943,8.1114-3.93,16.1409-7.3945,23.4786a107.3682,107.3682,0,0,1-29.65,37.6591l3.1108,1.2885-1.9161-24.51-.2683-3.4315-.5337,1.2886a20.8422,20.8422,0,0,0,4.5508-5.8591,49.6681,49.6681,0,0,0,3.9659-8.6894c1.9018-5.4759,2.8318-12.1978-.2395-17.46-2.5887-4.4351-7.9057-5.9069-12.7672-5.7208-3.6294.139-6.885,2.6246-9.0725,5.3679a18.9162,18.9162,0,0,0-3.513,8.1531,39.0243,39.0243,0,0,0-.1861,13.685l3.5143-.9688a67.6208,67.6208,0,0,1-4.7942-24.849q-.0082-5.8278,0-11.6558v-4.5174a1.8407,1.8407,0,0,0-2.742-1.5734,69.9661,69.9661,0,0,1-17.5094,6.3375,73.8666,73.8666,0,0,1-18.3977,2.0759c-6.1049-.1069-12.2921-.9091-17.72-3.8765A31.2931,31.2931,0,0,1,434.7647,196.4c-1.174-2.03-4.3246-.1966-3.1469,1.84Z"/><path d="M507.8964,247.0109v0a1.8731,1.8731,0,0,0-1.8222-1.8223l-.4845.0651a1.8205,1.8205,0,0,0-.8041.4687l-.2849.3688a1.8139,1.8139,0,0,0-.2488.92v0a1.8727,1.8727,0,0,0,1.8223,1.8222l.4844-.0651a1.8213,1.8213,0,0,0,.8041-.4686l.2849-.3688a1.813,1.813,0,0,0,.2488-.92v0a1.8731,1.8731,0,0,0-1.8222-1.8223l-.4845.0651a1.8205,1.8205,0,0,0-.8041.4687l-.2849.3688a1.8139,1.8139,0,0,0-.2488.92v0a1.8727,1.8727,0,0,0,1.8223,1.8222l.4844-.0651a1.8213,1.8213,0,0,0,.8041-.4686l.2849-.3688A1.813,1.813,0,0,0,507.8964,247.0109Z"/><line class="cls-6" x1="389.7711" y1="495.7214" x2="406.4578" y2="516.0965"/><path d="M388.4825,497.01l14.5908,17.8159,2.096,2.5593a1.835,1.835,0,0,0,2.577,0,1.8637,1.8637,0,0,0,0-2.5771l-14.5907-17.8159-2.096-2.5592a1.8351,1.8351,0,0,0-2.5771,0,1.8638,1.8638,0,0,0,0,2.577Z"/><polyline class="cls-2" points="696.803 550.719 510.934 550.719 510.934 666.129 585.318 666.129"/><path d="M696.8031,548.8971H518.4884c-2.4117,0-4.8343-.0668-7.2454,0-.103.0028-.2064,0-.31,0a1.8486,1.8486,0,0,0-1.8222,1.8222V651.9076c0,4.66-.1775,9.3587,0,14.016.0025.0681,0,.1367,0,.2049a1.8487,1.8487,0,0,0,1.8222,1.8223h74.3843a1.8233,1.8233,0,0,0,0-3.6445H510.9335l1.8223,1.8222V555.3952a42.6043,42.6043,0,0,0,0-4.4709,1.9469,1.9469,0,0,1,0-.205l-1.8223,1.8223H689.2482c2.4117,0,4.8343.0668,7.2453,0,.103-.0029.2065,0,.31,0a1.8233,1.8233,0,0,0,0-3.6445Z"/><path class="cls-2" d="M581.3939,608.4245a57.7033,57.7033,0,0,0-115.2915-3.6451h-.1177V873.2039a17.0613,17.0613,0,0,0,17.0614,17.0614h29.0485a17.0613,17.0613,0,0,0,17.0614-17.0614V665.8691A57.7086,57.7086,0,0,0,581.3939,608.4245Z"/><path d="M583.2161,608.4245a60.4607,60.4607,0,0,0-37.8067-55.35c-22.6444-9.1038-49.3947-2.7306-65.75,15.2956A60.0916,60.0916,0,0,0,464.28,604.7794l1.8222-1.8222h-.1177a1.8488,1.8488,0,0,0-1.8223,1.8222V861.6328q0,5.47,0,10.9406a19.6246,19.6246,0,0,0,3.1315,11.0433c3.9459,5.8821,10.24,8.4709,17.1326,8.4709h16.4943c4.1643,0,8.44.2848,12.5966-.0585a19.0849,19.0849,0,0,0,17.3574-16.9351,36.8656,36.8656,0,0,0,.1035-3.9294V665.8691l-1.8223,1.8222a59.466,59.466,0,0,0,54.06-59.2668c.01-2.3454-3.6348-2.3485-3.6445,0a56.4817,56.4817,0,0,1-32.6491,50.8442,55.4772,55.4772,0,0,1-17.7665,4.7781,1.8641,1.8641,0,0,0-1.8222,1.8223V863.8443c0,3.1169.0346,6.2361,0,9.353a15.41,15.41,0,0,1-15.2444,15.2458c-4.1092.0461-8.2216,0-12.331,0h-15.76c-6.9523,0-13.3711-3.7737-15.4978-10.6772-1.01-3.28-.6935-6.9887-.6935-10.3921V604.7794l-1.8222,1.8223h.1177a1.8622,1.8622,0,0,0,1.8223-1.8223,55.89,55.89,0,0,1,111.6469,3.6451C579.5814,610.7691,583.2259,610.7739,583.2161,608.4245Z"/><path d="M529.156,671.5953h-37.66a1.8233,1.8233,0,0,0,0,3.6445h37.66a1.8233,1.8233,0,0,0,0-3.6445Z"/><path class="cls-2" d="M90.601,326.2788h14.1549c5.3256,0,10.0134.24,13.0723,4.967a11.0158,11.0158,0,0,1-4.573,15.9105c-3.4982,1.633-8.6835.99-12.82.99h-15.3c-8.2077,0-8.2213,12.7557,0,12.7557h15.5871c6.7991,0,13.4864.3916,19.6668-3.1034,9.5189-5.3829,14.3715-17.4808,10.7986-27.9045a24.1474,24.1474,0,0,0-22.93-16.3706c-5.8844-.0484-11.7709,0-17.6555,0-8.2077,0-8.2213,12.7558,0,12.7558Z"/><path d="M90.601,328.101c5.3248,0,10.6618-.1048,15.9852.0164,3.7181.0847,7.4956.6806,9.6685,4.0481a9.27,9.27,0,0,1,.3084,9.5568c-2.0577,3.6434-5.7341,4.6664-9.6834,4.7223-5.1021.0721-10.2238-.1211-15.3291-.1211a63.2271,63.2271,0,0,0-7.44.07A7.7856,7.7856,0,0,0,79.97,348.131c-4.1772,3.4948-3.6263,11.047,1.2531,13.6519a9.9885,9.9885,0,0,0,4.8859.9409h8.2806c5.1581,0,10.3911.2572,15.5366-.1622a26.2174,26.2174,0,0,0,13.4507-4.516,25.83,25.83,0,0,0,7.8216-9.0238,25.3559,25.3559,0,0,0,.171-23.3232,25.9743,25.9743,0,0,0-18.3966-13.5459c-4.9066-.8653-10.0551-.4793-15.0149-.4666-2.61.0066-5.2769-.15-7.88.0325a7.9641,7.9641,0,0,0-4.1064,1.3766c-4.5647,3.2547-4.4243,10.844.3456,13.85a8.2663,8.2663,0,0,0,4.2844,1.1555c2.3461.04,2.3466-3.6048,0-3.6445-4.3593-.0738-5.7714-5.5865-2.825-8.1681a4.2837,4.2837,0,0,1,2.56-.9386c2.5325-.0983,5.0865-.0128,7.6212-.0192q3.9234-.01,7.8471,0a36.2979,36.2979,0,0,1,6.199.3367A22.5557,22.5557,0,0,1,128.38,327.8522a22.02,22.02,0,0,1-8.6065,28.1965c-4.0624,2.377-8.6974,2.9434-13.3238,3.0278-4.91.09-9.829.0028-14.74.0028-2.3377,0-4.7722.1956-7.1-.0178a4.0565,4.0565,0,0,1-2.53-1.1389,5.1218,5.1218,0,0,1-.9957-5.1586c.6786-2.0641,2.4342-2.796,4.7906-2.796,5.1061,0,10.2177-.0692,15.3233.0065,4.1012.0608,8.5485.6181,12.4368-1.0106a12.9362,12.9362,0,0,0,6.2677-17.7816c-4.1893-7.9742-13.9083-6.7258-21.4918-6.7258h-7.81A1.8233,1.8233,0,0,0,90.601,328.101Z"/><path class="cls-2" d="M61.1413,380.6426h0A36.1413,36.1413,0,0,1,25,344.5013V304.7155H97.2826v39.7858A36.1413,36.1413,0,0,1,61.1413,380.6426Z"/><path d="M61.1413,378.82a34.3259,34.3259,0,0,1-34.2376-31.8734c-.2437-3.6461-.0814-7.3474-.0814-10.9976V304.7155L25,306.5377H97.2826L95.46,304.7155v29.0616c0,3.5684.0142,7.1372,0,10.7056A34.311,34.311,0,0,1,61.1413,378.82c-2.3445.0112-2.3493,3.6557,0,3.6445a37.9495,37.9495,0,0,0,37.6413-33.1159,97.1421,97.1421,0,0,0,.3223-12.4746V304.7155a1.8488,1.8488,0,0,0-1.8223-1.8223H25a1.8488,1.8488,0,0,0-1.8223,1.8223V334.882c0,3.7241-.1256,7.4736.0342,11.1961a37.9615,37.9615,0,0,0,37.9294,36.3867A1.8233,1.8233,0,0,0,61.1413,378.82Z"/><path class="cls-1" d="M103.7229,328.9253a110.877,110.877,0,0,1,10.05-8.0615c14.3613-9.8228,20.02.9732,8.62,13.65-1.9322,2.1487-4.015,4.4925-6.159,6.95"/><path d="M105.0114,330.2138a81.4389,81.4389,0,0,1,10.89-8.5684c2.4362-1.5217,5.4-3.0624,8.2206-2.7387-.3255-.0374.3631.0815.4513.1053.1177.0319.7305.2783.3944.1177a5.9027,5.9027,0,0,1,.5343.2987c.2822.1728.0513.0285-.007-.019.1157.0943.2178.2009.328.3.0029.0026.32.3638.1493.1516-.1457-.1807.0472.07.0772.1175a5.1933,5.1933,0,0,1,.3313.6c-.1533-.3368.0537.1871.0888.3109.0342.1206.17.8553.1268.5134.3181,2.5394-.84,5.1617-2.2089,7.4338a34.6325,34.6325,0,0,1-4.0155,5.2024q-2.7337,3.05-5.4275,6.1356c-1.5364,1.76,1.0311,4.3481,2.5771,2.5771,3.28-3.7575,7.0165-7.3352,9.6965-11.5638,1.7653-2.7854,3.3092-6.229,3.04-9.6085a6.5522,6.5522,0,0,0-4.3254-5.9617c-3.1649-1.0894-6.7471.1638-9.5846,1.5886a43.8233,43.8233,0,0,0-6.9558,4.6414q-3.5875,2.764-6.9584,5.7882c-1.7517,1.5671.8329,4.1374,2.577,2.5771Z"/><ellipse cx="61.1413" cy="304.7155" rx="36.1413" ry="5.4668"/><path d="M95.46,304.7155c-.014.3179.0991-.5011.0133-.1894.2775-1.0083.0538-.0586.03-.1443-.08-.29.3-.159-.13.0591.4956-.2513-.2584.1312-.3858.2a5.0956,5.0956,0,0,1-.5966.2834,29.1525,29.1525,0,0,1-5.17,1.3839,117.34,117.34,0,0,1-16.392,1.76c-7.04.3638-14.1023.3913-21.1451.1031a133.9809,133.9809,0,0,1-17.1713-1.5978,39.8055,39.8055,0,0,1-5.7221-1.3274,6.8684,6.8684,0,0,1-1.4959-.605,6.1766,6.1766,0,0,1-.5681-.3445c.5271.3618.023.0038.02.0033-.2511-.0368-.0636-.224.0084.0461-.0956-.3589.0675.59.0675.37,0-.2494-.1234.6869-.0914.406s-.2617.3259-.0568.0811a.9659.9659,0,0,1,.2349-.2126c-.48.2418.26-.1317.3858-.2a6.8144,6.8144,0,0,1,1.4959-.605c.878-.2889,1.7751-.52,2.6758-.726a97.4743,97.4743,0,0,1,15.3947-1.9449c6.9814-.4549,13.9909-.5479,20.9836-.3495a141.7374,141.7374,0,0,1,19.925,1.693,37.2246,37.2246,0,0,1,6.0976,1.4548,6.2225,6.2225,0,0,1,.7823.3087c.2773.1356.54.2848.8042.4439.3466.2088-.3413-.117.004-.0046a.669.669,0,0,1,.2169.2135c-.0975-.254-.2015-.2647-.2144-.5586.1025,2.3361,3.7476,2.3488,3.6445,0-.1433-3.2639-4.8419-4.2038-7.32-4.7706a107.3162,107.3162,0,0,0-17.6477-2.1543,226.0576,226.0576,0,0,0-23.3528-.1364,127.9706,127.9706,0,0,0-18.6919,1.9545A28.9544,28.9544,0,0,0,26.6,301.1241c-1.3083.5377-2.8072,1.289-3.2768,2.7387-1.0553,3.2579,3.4809,4.6523,5.7476,5.2688a87.08,87.08,0,0,0,16.5311,2.3432,221.89,221.89,0,0,0,23.1694.4076,135.0418,135.0418,0,0,0,21.4184-2.06c2.7209-.53,8.7516-1.3876,8.9149-5.1068C99.2078,302.3705,95.5631,302.3755,95.46,304.7155Z"/><path d="M57.8005,284.6707V272.9339c0-4.7431-.0831-9.4394.9455-14.1078A41.6586,41.6586,0,0,1,85.7575,228.56c7.3355-2.4823,14.7918-2.2013,22.391-2.2013h29.893c6.9415,0,13.9238.2222,20.8626,0,.1114-.0036.2235,0,.335,0a1.8488,1.8488,0,0,0,1.8223-1.8223,41.7055,41.7055,0,0,1,25.0512-37.9985c10.3145-4.4324,21.9017-3.3058,32.8605-3.3058h13.1561a1.8488,1.8488,0,0,0,1.8222-1.8223,36.7518,36.7518,0,0,1,24.5934-34.4782,44.1408,44.1408,0,0,1,14.48-1.9668H300.16a1.8488,1.8488,0,0,0,1.8223-1.8222,31.9023,31.9023,0,0,1,27.0361-31.2733c15.1975-2.2278,30.5105,6.0536,37.5323,19.5643a36.7266,36.7266,0,0,1-25.8075,52.8872,60.8427,60.8427,0,0,1-11.7189.6125l-28.185-.0786-.6793-.0019a1.8494,1.8494,0,0,0-1.8222,1.8223,38.2225,38.2225,0,0,1-24.7633,35.5411,44.0936,44.0936,0,0,1-15.376,2.32h-27.284a1.8487,1.8487,0,0,0-1.8222,1.8223v8.2239a66.0354,66.0354,0,0,1-.1862,9.1855,20.2738,20.2738,0,0,1-19.9316,17.2134c-7.8981.057-15.7986,0-23.6968,0H100.7786c-2.3613,0-4.7233-.0172-7.0845,0a23.99,23.99,0,0,0-22.4558,15.9724,23.4912,23.4912,0,0,0-1.2895,7.7168,1.8234,1.8234,0,0,0,3.6446,0A20.2423,20.2423,0,0,1,93.6387,264.626c2.0646-.0179,4.13,0,6.1947,0H183.56c8.4217,0,16.8439.0276,25.2656,0a23.9542,23.9542,0,0,0,21.4663-13.2068c3.3645-6.9081,2.4451-14.962,2.4451-22.4215v-2.639l-1.8223,1.8222h26.8211a48.9889,48.9889,0,0,0,16.0094-2.1692,41.5832,41.5832,0,0,0,28.2373-39.3366l-1.8223,1.8222,27.2952.0761a85.76,85.76,0,0,0,12.3359-.4205,40.32,40.32,0,0,0,31.4221-55.2811,40.7706,40.7706,0,0,0-38.091-24.9565c-16.7078.24-31.5493,12.7094-34.2744,29.2815a36.6607,36.6607,0,0,0-.51,5.9458L300.16,141.32H273.5126a49.5152,49.5152,0,0,0-15.1319,1.8331A40.16,40.16,0,0,0,230.3069,181.41l1.8223-1.8222H204.2068a48.7426,48.7426,0,0,0-18.3346,3.1342,45.67,45.67,0,0,0-19.6388,15.0916,44.888,44.888,0,0,0-8.8165,26.723l1.8222-1.8222H110.0835c-7.4191,0-14.99-.4427-22.2411,1.4228A45.3928,45.3928,0,0,0,56.838,252.35c-3.6292,9.9228-2.682,20.7684-2.682,31.1469v1.1736a1.8233,1.8233,0,0,0,3.6445,0Z"/><path d="M39.578,277.9891V240.2937A49.6689,49.6689,0,0,1,40.18,230.072a30.0882,30.0882,0,0,1,29.31-23.7581c7.8594-.0257,15.7193,0,23.5787,0,8.3312,0,16.6743.132,25.0047,0,.156-.0024.3122,0,.4682,0a1.8488,1.8488,0,0,0,1.8223-1.8222V190.1849a35.5571,35.5571,0,0,1,.8249-8.4777,29.7361,29.7361,0,0,1,26.5029-22.6793c4.4278-.3377,8.9476-.0925,13.3822-.0925h15.1723a1.8488,1.8488,0,0,0,1.8223-1.8222c0-5.2572-.0248-10.515,0-15.7722a29.7492,29.7492,0,0,1,29.7634-29.7841,1.8233,1.8233,0,0,0,0-3.6445,33.3926,33.3926,0,0,0-33.2556,30.2854c-.2972,3.0282-.1523,6.1265-.1523,9.1643v9.7511l1.8222-1.8223c-8.9338,0-17.8882-.1916-26.82.0076A33.411,33.411,0,0,0,116.72,188.88c-.0091,5.204,0,10.408,0,15.6119l1.8223-1.8223H70.0828a34.7777,34.7777,0,0,0-16.264,3.82,33.5328,33.5328,0,0,0-15.1864,16.45c-3.6373,8.5357-2.6989,18.155-2.6989,27.2237v27.8262a1.8233,1.8233,0,0,0,3.6445,0Z"/><path class="cls-2" d="M952.2219,810.735V738.1074H846.5313v72.6277a39.4123,39.4123,0,0,0-18.83,33.6282v3.7287a39.44,39.44,0,0,0,39.44,39.44h64.47a39.44,39.44,0,0,0,39.44-39.44v-3.7287A39.4126,39.4126,0,0,0,952.2219,810.735Z"/><path d="M953.133,810.735V738.1074a.9244.9244,0,0,0-.9111-.9111H850.87c-1.3711,0-2.7841-.0986-4.1527,0-.0613.0044-.1245,0-.1861,0a.9243.9243,0,0,0-.9111.9111v72.6277l.4513-.7867a40.7738,40.7738,0,0,0-19.0336,29.9753c-1.137,10.1456.3684,20.719,5.8292,29.4733a40.62,40.62,0,0,0,26.7936,18.3508c4.7932.8891,9.6745.6953,14.525.6953H920.048c3.8517,0,7.7037.0136,11.5555,0a40.3827,40.3827,0,0,0,37.93-26.5385,43.6553,43.6553,0,0,0,2.43-15.1964,46.1163,46.1163,0,0,0-2.426-16.1448,40.6129,40.6129,0,0,0-9.7971-15.1266,41.5689,41.5689,0,0,0-7.0581-5.4886c-.9992-.62-1.9152.9557-.92,1.5735a38.9,38.9,0,0,1,16.1434,19.8744,48.0658,48.0658,0,0,1,1.9784,21.222,38.8687,38.8687,0,0,1-29.4475,32.9878,48.5654,48.5654,0,0,1-11.2369,1.0149H871.4417c-2.5355,0-5.0929.0726-7.6214-.1382a38.8589,38.8589,0,0,1-33.905-28.4192,40.8435,40.8435,0,0,1-1.3028-10.6,54.4,54.4,0,0,1,.67-10.3022A38.8394,38.8394,0,0,1,842.18,815.0142q1.1545-.9872,2.3869-1.8771.6648-.4787,1.3487-.93a4.9906,4.9906,0,0,0,1.3316-.92,1.2912,1.2912,0,0,0,.1957-.8041c.0543-.79,0-1.6031,0-2.3944V738.1074l-.9112.9111H950.6044a6.6951,6.6951,0,0,0,1.4314,0,.8769.8769,0,0,1,.1861,0l-.9112-.9111V810.735A.9117.9117,0,0,0,953.133,810.735Z"/><ellipse cx="899.3766" cy="737.8037" rx="52.8453" ry="10.0224"/><path d="M951.3107,737.8037a1.8626,1.8626,0,0,1-.5939,1.1671,7.5116,7.5116,0,0,1-1.98,1.3968,32.0612,32.0612,0,0,1-7.3322,2.5735,137.1767,137.1767,0,0,1-24.361,3.4,266.5239,266.5239,0,0,1-31.79.2118,158.2842,158.2842,0,0,1-25.6258-3.0761,45.2807,45.2807,0,0,1-8.2566-2.4586c-1.3256-.5722-3.192-1.3762-3.8345-2.7572a1.1763,1.1763,0,0,1,.0228-.96,3.9025,3.9025,0,0,1,1.2791-1.3464,20.8025,20.8025,0,0,1,6.18-2.65c7.5185-2.239,15.4688-3.1362,23.26-3.7811a261.8281,261.8281,0,0,1,31.1127-.6509,180.1414,180.1414,0,0,1,27.27,2.7537,62.3567,62.3567,0,0,1,9.0346,2.3125c1.7117.6036,3.7473,1.3333,5.0206,2.6982a1.8693,1.8693,0,0,1,.5939,1.1671.9117.9117,0,0,0,1.8223,0c-.0392-1.64-1.3307-2.8069-2.6161-3.6352a26.188,26.188,0,0,0-7.1741-2.8737c-8.1722-2.2782-16.7787-3.1678-25.2148-3.7752a264.5449,264.5449,0,0,0-33.7706-.2388,150.9917,150.9917,0,0,0-26.6609,3.4239,38.49,38.49,0,0,0-8.1191,2.715c-1.4632.723-3.2223,1.7659-3.7845,3.4062-1.3329,3.8893,4.8544,5.9684,7.4448,6.8274,7.5483,2.5034,15.6945,3.42,23.5777,4.1271a259.5058,259.5058,0,0,0,33.4994.7419,174.8594,174.8594,0,0,0,28.0858-3.0319,52.098,52.098,0,0,0,9.1166-2.5686c1.7682-.7158,3.7818-1.605,4.9372-3.2015a3.3708,3.3708,0,0,0,.6786-1.9166A.9117.9117,0,0,0,951.3107,737.8037Z"/><path d="M846.835,763.3152H948.1868c1.3711,0,2.7841.0986,4.1527,0,.0613-.0044.1245,0,.1861,0a.9116.9116,0,0,0,0-1.8222H851.1739c-1.3712,0-2.7841-.0986-4.1528,0-.0613.0044-.1245,0-.1861,0a.9116.9116,0,0,0,0,1.8222Z"/><path d="M846.835,774.2487H948.1868c1.3711,0,2.7841.0986,4.1527,0,.0613-.0044.1245,0,.1861,0a.9116.9116,0,0,0,0-1.8222H851.1739c-1.3712,0-2.7841-.0986-4.1528,0-.0613.0044-.1245,0-.1861,0a.9116.9116,0,0,0,0,1.8222Z"/><path d="M830.2786,830.6141l13.1906,7.8964a.9117.9117,0,0,0,.92,0l15.9256-9.7187h-.92l15.926,9.7187a.9094.9094,0,0,0,.92,0l15.928-9.7187h-.92l15.9282,9.7187a.91.91,0,0,0,.92,0l15.9279-9.7187h-.92l15.9288,9.7187a.91.91,0,0,0,.92,0l15.9309-9.7187h-.92l13.805,8.5039c1.0012.6167,1.9175-.9588.92-1.5735l-13.805-8.5038a.9084.9084,0,0,0-.92,0l-15.9309,9.7187h.92l-15.9288-9.7187a.91.91,0,0,0-.92,0l-15.928,9.7187h.92l-15.9282-9.7187a.91.91,0,0,0-.92,0l-15.9279,9.7187h.92l-15.926-9.7187a.91.91,0,0,0-.92,0l-15.9257,9.7187h.92l-13.1906-7.8965a.9118.9118,0,0,0-.92,1.5735Z"/><path d="M827.5453,852.4811,843.4692,862.2a.91.91,0,0,0,.92,0l15.9256-9.7187h-.92l15.926,9.7187a.91.91,0,0,0,.92,0l15.928-9.7187h-.92L907.177,862.2a.91.91,0,0,0,.92,0l15.9279-9.7187h-.92L939.0338,862.2a.91.91,0,0,0,.92,0l15.9309-9.7187h-.92l13.805,8.5038c1.0012.6168,1.9175-.9588.92-1.5734l-13.805-8.5039a.9087.9087,0,0,0-.92,0l-15.9309,9.7187h.92l-15.9288-9.7187a.91.91,0,0,0-.92,0l-15.928,9.7187h.92l-15.9282-9.7187a.91.91,0,0,0-.92,0l-15.9279,9.7187h.92l-15.926-9.7187a.91.91,0,0,0-.92,0l-15.9257,9.7187h.92l-15.924-9.7187c-1.0037-.6125-1.92.9628-.92,1.5735Z"/><line class="cls-6" x1="269.1816" y1="577.4457" x2="303.1969" y2="592.6311"/><path d="M268.2619,579.0191l29.8444,13.3234,4.1709,1.862a1.8818,1.8818,0,0,0,2.4932-.6537,1.8347,1.8347,0,0,0-.6537-2.4932l-29.8444-13.3234-4.171-1.862a1.8818,1.8818,0,0,0-2.4932.6537,1.8346,1.8346,0,0,0,.6538,2.4932Z"/></svg>